<?xml version="1.0" standalone="no"?>
<!DOCTYPE svg PUBLIC "-//W3C//DTD SVG 1.1//EN" "http://www.w3.org/Graphics/SVG/1.1/DTD/svg11.dtd" >
<svg xmlns="http://www.w3.org/2000/svg" xmlns:xlink="http://www.w3.org/1999/xlink" version="1.1">
<metadata>
Created by FontForge 20190801 at Thu Sep 27 16:46:38 2018
 By root
Copyright 2018 The Major Mono Project Authors (https://github.com/googlefonts/majormono)
</metadata>
<defs>
<font id="MajorMonoDisplay-Regular" horiz-adv-x="740" >
  <font-face 
    font-family="Major Mono Display"
    font-weight="400"
    font-stretch="normal"
    units-per-em="1000"
    panose-1="0 0 5 9 0 0 0 0 0 0"
    ascent="900"
    descent="-100"
    x-height="696"
    cap-height="696"
    bbox="-643 -223 2157 1152"
    underline-thickness="50"
    underline-position="-100"
    unicode-range="U+000D-FB04"
  />
<missing-glyph 
d="M22 696h697v-696h-697v696zM655 659h-596v-596zM85 37h596v596z" />
    <glyph glyph-name="F.alt1" unicode="&#x2022;F" 
d="M118 696h523v-176h-351v-105h256v-177h-256v-238h-172v696z" />
    <glyph glyph-name="G.alt1" unicode="&#x2022;G" 
d="M630.5 551q19.5 -42 19.5 -85h-36q-1 37 -18.5 73t-44.5 65q-67 70 -182 70q-67 0 -124.5 -33.5t-91.5 -91t-34 -125.5v-132q0 -71 20 -117q29 -69 92 -111t139 -42q74 0 131 34.5t88 93.5t31 132v25h-250v36h287v-61q0 -82 -36.5 -150t-102 -107.5t-149.5 -39.5
q-87 0 -158.5 47.5t-104.5 126.5q-24 56 -24 133v132q0 78 38.5 144t104.5 104.5t144 38.5q65 0 119 -21.5t92 -62.5q31 -34 50.5 -76z" />
    <glyph glyph-name="Gbreve.alt1" unicode="&#x2022;&#x11e;" 
d="M524 876q-20 -45 -62 -72t-92 -27t-92 27t-62 72l33 16q16 -36 49 -57t72 -21t71.5 21t49.5 56zM370 343h287v-61q0 -64 -19 -114q-31 -83 -104 -133t-165 -50q-87 0 -158.5 47.5t-104.5 126.5q-24 56 -24 133v132q0 78 38.5 144t104.5 104.5t144 38.5q65 0 119 -21.5
t92 -62.5q31 -34 50.5 -76t19.5 -85h-36q-1 37 -18.5 73t-44.5 65q-67 70 -182 70q-67 0 -124.5 -33.5t-91.5 -91t-34 -125.5v-132q0 -71 20 -117q29 -69 92 -111t139 -42q78 0 141 41.5t91 112.5q18 47 18 106v25h-250v36z" />
    <glyph glyph-name="Gcaron.alt1" unicode="&#x2022;&#x1e6;" 
d="M222 896l148 -148l148 148l-26 26l-122 -122l-122 122zM370 343h287v-61q0 -64 -19 -114q-31 -83 -104 -133t-165 -50q-87 0 -158.5 47.5t-104.5 126.5q-24 56 -24 133v132q0 78 38.5 144t104.5 104.5t144 38.5q65 0 119 -21.5t92 -62.5q31 -34 50.5 -76t19.5 -85h-36
q-1 37 -18.5 73t-44.5 65q-67 70 -182 70q-67 0 -124.5 -33.5t-91.5 -91t-34 -125.5v-132q0 -71 20 -117q29 -69 92 -111t139 -42q78 0 141 41.5t91 112.5q18 47 18 106v25h-250v36z" />
    <glyph glyph-name="Gcircumflex.alt1" unicode="&#x2022;&#x11c;" 
d="M222 774l148 148l148 -148l-26 -26l-122 122l-122 -122zM370 343h287v-61q0 -64 -19 -114q-31 -83 -104 -133t-165 -50q-87 0 -158.5 47.5t-104.5 126.5q-24 56 -24 133v132q0 78 38.5 144t104.5 104.5t144 38.5q65 0 119 -21.5t92 -62.5q31 -34 50.5 -76t19.5 -85h-36
q-1 37 -18.5 73t-44.5 65q-67 70 -182 70q-67 0 -124.5 -33.5t-91.5 -91t-34 -125.5v-132q0 -71 20 -117q29 -69 92 -111t139 -42q78 0 141 41.5t91 112.5q18 47 18 106v25h-250v36z" />
    <glyph glyph-name="uni0122.alt1" unicode="&#x2022;&#x122;" 
d="M370 343h287v-61q0 -64 -19 -114q-31 -83 -104 -133t-165 -50q-87 0 -158.5 47.5t-104.5 126.5q-24 56 -24 133v132q0 78 38.5 144t104.5 104.5t144 38.5q65 0 119 -21.5t92 -62.5q31 -34 50.5 -76t19.5 -85h-36q-1 37 -18.5 73t-44.5 65q-67 70 -182 70
q-67 0 -124.5 -33.5t-91.5 -91t-34 -125.5v-132q0 -71 20 -117q29 -69 92 -111t139 -42q78 0 141 41.5t91 112.5q18 47 18 106v25h-250v36zM341 -223l27 47q-25 1 -43 19.5t-18 43.5q0 26 18.5 44.5t44.5 18.5t44.5 -18.5t18.5 -44.5q0 -15 -14 -41l-40 -69h-38z" />
    <glyph glyph-name="Gdotaccent.alt1" unicode="&#x2022;&#x120;" 
d="M312.5 791.5q-23.5 23.5 -23.5 57.5t23.5 58t57.5 24t58 -24t24 -58t-24 -57.5t-58 -23.5t-57.5 23.5zM337 816q14 -14 33 -14q20 0 33.5 14t13.5 33q0 20 -13.5 34t-33.5 14t-33.5 -14t-13.5 -34q0 -19 14 -33zM370 343h287v-61q0 -64 -19 -114q-31 -83 -104 -133
t-165 -50q-87 0 -158.5 47.5t-104.5 126.5q-24 56 -24 133v132q0 78 38.5 144t104.5 104.5t144 38.5q65 0 119 -21.5t92 -62.5q31 -34 50.5 -76t19.5 -85h-36q-1 37 -18.5 73t-44.5 65q-67 70 -182 70q-67 0 -124.5 -33.5t-91.5 -91t-34 -125.5v-132q0 -71 20 -117
q29 -69 92 -111t139 -42q78 0 141 41.5t91 112.5q18 47 18 106v25h-250v36z" />
    <glyph glyph-name="H.alt1" unicode="&#x2022;H" 
d="M102 696h37v-260h462v260h37v-696h-37v260h-462v-260h-37v696z" />
    <glyph glyph-name="Hbar.alt1" unicode="&#x2022;&#x126;" 
d="M638 696v-696h-37v260h-462v-260h-37v696h37v-165h462v165h37zM601 436v58h-462v-58h462z" />
    <glyph glyph-name="Hcircumflex.alt1" unicode="&#x2022;&#x124;" 
d="M222 774l148 148l148 -148l-26 -26l-122 122l-122 -122zM102 0v696h37v-260h462v260h37v-696h-37v260h-462v-260h-37z" />
    <glyph glyph-name="K.alt1" unicode="&#x2022;K" 
d="M110 696h561l-291 -290l290 -406h-44l-272 380l-207 -207v-173h-37v696zM147 659v-434l435 434h-435z" />
    <glyph glyph-name="uni0136.alt1" unicode="&#x2022;&#x136;" 
d="M110 0v696h561l-291 -290l290 -406h-44l-272 380l-207 -207v-173h-37zM147 225l435 434h-435v-434zM341 -223l27 47q-25 1 -43 19.5t-18 43.5q0 26 18.5 44.5t44.5 18.5t44.5 -18.5t18.5 -44.5q0 -15 -14 -41l-40 -69h-38z" />
    <glyph glyph-name="L.alt1" unicode="&#x2022;L" 
d="M143 0v696h182v-519h348v-177h-530z" />
    <glyph glyph-name="uni01C7.alt1" unicode="&#x2022;&#x1c7;" horiz-adv-x="1480" 
d="M673 177v-177h-530v696h182v-519h348zM1200 520h-196v176h378v-413q0 -93 -37 -160.5t-101.5 -102.5t-143.5 -35q-76 0 -140.5 38t-102.5 102.5t-38 140.5h182q0 -46 26.5 -77t71.5 -31q48 0 74.5 30.5t26.5 89.5v242z" />
    <glyph glyph-name="Lacute.alt1" unicode="&#x2022;&#x139;" 
d="M304 912l35 -45l-173 -126l-19 25zM673 177v-177h-530v696h182v-519h348z" />
    <glyph glyph-name="Lcaron.alt1" unicode="&#x2022;&#x13d;" 
d="M673 177v-177h-530v696h182v-519h348zM566 696l37 -7l-48 -211l-38 7z" />
    <glyph glyph-name="uni013B.alt1" unicode="&#x2022;&#x13b;" 
d="M673 177v-177h-530v696h182v-519h348zM341 -223l27 47q-25 1 -43 19.5t-18 43.5q0 26 18.5 44.5t44.5 18.5t44.5 -18.5t18.5 -44.5q0 -15 -14 -41l-40 -69h-38z" />
    <glyph glyph-name="Ldot.alt1" unicode="&#x2022;&#x13f;" 
d="M143 0v696h182v-519h348v-177h-530zM541.5 456.5q26.5 26.5 64.5 26.5t64.5 -26.5t26.5 -63.5t-26.5 -64t-64.5 -27q-37 0 -64 27t-27 64t26.5 63.5z" />
    <glyph glyph-name="uni01C8.alt1" unicode="&#x2022;&#x1c8;" horiz-adv-x="1480" 
d="M673 177v-177h-530v696h182v-519h348zM1379 276q0 -82 -37.5 -148.5t-102 -104.5t-141.5 -38q-71 0 -132 32.5t-100 89.5t-46 126h37q7 -59 41 -107.5t86.5 -76t113.5 -27.5q67 0 123 33t89 91t33 130v383h-312v37h348v-420z" />
    <glyph glyph-name="Lslash.alt1" unicode="&#x2022;&#x141;" 
d="M673 177v-177h-530v293l-54 -33l-19 31l73 44v361h182v-250l65 39l19 -31l-84 -51v-226h348z" />
    <glyph glyph-name="N.alt1" unicode="&#x2022;N" 
d="M99 0v696h39l486 -472v472h37v-696h-562zM135 37h489v135l-489 475v-610z" />
    <glyph glyph-name="uni01CA.alt1" unicode="&#x2022;&#x1ca;" horiz-adv-x="1480" 
d="M99 0v696h39l486 -472v472h37v-696h-562zM1200 520h-196v176h378v-413q0 -93 -37 -160.5t-101.5 -102.5t-143.5 -35q-76 0 -140.5 38t-102.5 102.5t-38 140.5h182q0 -46 26.5 -77t71.5 -31q48 0 74.5 30.5t26.5 89.5v242zM624 37v135l-489 475v-610h489z" />
    <glyph glyph-name="Nacute.alt1" unicode="&#x2022;&#x143;" 
d="M431 912l35 -45l-173 -126l-19 25zM99 0v696h39l486 -472v472h37v-696h-562zM624 37v135l-489 475v-610h489z" />
    <glyph glyph-name="Ncaron.alt1" unicode="&#x2022;&#x147;" 
d="M222 896l148 -148l148 148l-26 26l-122 -122l-122 122zM99 0v696h39l486 -472v472h37v-696h-562zM624 37v135l-489 475v-610h489z" />
    <glyph glyph-name="uni0145.alt1" unicode="&#x2022;&#x145;" 
d="M99 0v696h39l486 -472v472h37v-696h-562zM624 37v135l-489 475v-610h489zM341 -223l27 47q-25 1 -43 19.5t-18 43.5q0 26 18.5 44.5t44.5 18.5t44.5 -18.5t18.5 -44.5q0 -15 -14 -41l-40 -69h-38z" />
    <glyph glyph-name="Eng.alt1" unicode="&#x2022;&#x14a;" 
d="M661 696v-701q0 -57 -34 -91.5t-87 -34.5l1 35q39 0 61 24t22 67v5h-525v696h39l486 -472v472h37zM135 37h489v135l-489 475v-610z" />
    <glyph glyph-name="uni01CB.alt1" unicode="&#x2022;&#x1cb;" horiz-adv-x="1480" 
d="M99 0v696h39l486 -472v472h37v-696h-562zM1379 276q0 -82 -37.5 -148.5t-102 -104.5t-141.5 -38q-71 0 -132 32.5t-100 89.5t-46 126h37q7 -59 41 -107.5t86.5 -76t113.5 -27.5q67 0 123 33t89 91t33 130v383h-312v37h348v-420zM624 37v135l-489 475v-610h489z" />
    <glyph glyph-name="Ntilde.alt1" unicode="&#x2022;&#xd1;" 
d="M543 833q-44 -53 -103 -53q-42 0 -83 28q-29 21 -57 21q-40 0 -74 -42l-29 24q45 54 103 54q38 0 78 -26q32 -22 63 -22q41 0 73 40zM99 0v696h39l486 -472v472h37v-696h-562zM624 37v135l-489 475v-610h489z" />
    <glyph glyph-name="O.alt1" unicode="&#x2022;O" 
d="M83 424q0 78 38.5 144t104.5 104.5t144 38.5t144 -38.5t105 -104.5t39 -144v-152q0 -78 -39 -144t-105 -104.5t-144 -38.5t-144 38.5t-104.5 104.5t-38.5 144v152z" />
    <glyph glyph-name="Oacute.alt1" unicode="&#x2022;&#xd3;" 
d="M437 912l35 -45l-173 -126l-19 25zM658 272q0 -78 -39 -144t-105 -104.5t-144 -38.5t-144 38.5t-104.5 104.5t-38.5 144v152q0 78 38.5 144t104.5 104.5t144 38.5t144 -38.5t105 -104.5t39 -144v-152z" />
    <glyph glyph-name="Obreve.alt1" unicode="&#x2022;&#x14e;" 
d="M524 876q-20 -45 -62 -72t-92 -27t-92 27t-62 72l33 16q16 -36 49 -57t72 -21t71.5 21t49.5 56zM658 272q0 -78 -39 -144t-105 -104.5t-144 -38.5t-144 38.5t-104.5 104.5t-38.5 144v152q0 78 38.5 144t104.5 104.5t144 38.5t144 -38.5t105 -104.5t39 -144v-152z" />
    <glyph glyph-name="Ocircumflex.alt1" unicode="&#x2022;&#xd4;" 
d="M222 774l148 148l148 -148l-26 -26l-122 122l-122 -122zM658 272q0 -78 -39 -144t-105 -104.5t-144 -38.5t-144 38.5t-104.5 104.5t-38.5 144v152q0 78 38.5 144t104.5 104.5t144 38.5t144 -38.5t105 -104.5t39 -144v-152z" />
    <glyph glyph-name="uni1ED0.alt1" unicode="&#x2022;&#x1ed0;" 
d="M437 1146l35 -45l-173 -126l-19 25zM222 774l148 148l148 -148l-26 -26l-122 122l-122 -122zM658 272q0 -78 -39 -144t-105 -104.5t-144 -38.5t-144 38.5t-104.5 104.5t-38.5 144v152q0 78 38.5 144t104.5 104.5t144 38.5t144 -38.5t105 -104.5t39 -144v-152z" />
    <glyph glyph-name="uni1ED8.alt1" unicode="&#x2022;&#x1ed8;" 
d="M222 774l148 148l148 -148l-26 -26l-122 122l-122 -122zM658 272q0 -78 -39 -144t-105 -104.5t-144 -38.5t-144 38.5t-104.5 104.5t-38.5 144v152q0 78 38.5 144t104.5 104.5t144 38.5t144 -38.5t105 -104.5t39 -144v-152zM312.5 -193.5q-23.5 23.5 -23.5 57.5t23.5 58
t57.5 24t58 -24t24 -58t-24 -57.5t-58 -23.5t-57.5 23.5zM337 -169.5q14 -13.5 33 -13.5q20 0 33.5 13.5t13.5 33.5t-13.5 34t-33.5 14t-33.5 -14t-13.5 -34t14 -33.5z" />
    <glyph glyph-name="uni1ED2.alt1" unicode="&#x2022;&#x1ed2;" 
d="M303 1146l-35 -45l173 -126l19 25zM222 774l148 148l148 -148l-26 -26l-122 122l-122 -122zM658 272q0 -78 -39 -144t-105 -104.5t-144 -38.5t-144 38.5t-104.5 104.5t-38.5 144v152q0 78 38.5 144t104.5 104.5t144 38.5t144 -38.5t105 -104.5t39 -144v-152z" />
    <glyph glyph-name="uni1ED4.alt1" unicode="&#x2022;&#x1ed4;" 
d="M389 1106.5q-13 11.5 -37 11.5h-20v34h20q39 0 62 -20.5t23 -52.5q0 -31 -21 -52.5t-52 -22.5v-25h-32v59h26q19 0 31.5 11.5t12.5 28.5t-13 28.5zM222 774l148 148l148 -148l-26 -26l-122 122l-122 -122zM658 272q0 -78 -39 -144t-105 -104.5t-144 -38.5t-144 38.5
t-104.5 104.5t-38.5 144v152q0 78 38.5 144t104.5 104.5t144 38.5t144 -38.5t105 -104.5t39 -144v-152z" />
    <glyph glyph-name="uni1ED6.alt1" unicode="&#x2022;&#x1ed6;" 
d="M541 1067q-44 -53 -103 -53q-42 0 -83 28q-29 21 -57 21q-40 0 -74 -42l-29 24q45 54 103 54q38 0 78 -26q32 -22 63 -22q41 0 73 40zM222 774l148 148l148 -148l-26 -26l-122 122l-122 -122zM658 272q0 -78 -39 -144t-105 -104.5t-144 -38.5t-144 38.5t-104.5 104.5
t-38.5 144v152q0 78 38.5 144t104.5 104.5t144 38.5t144 -38.5t105 -104.5t39 -144v-152z" />
    <glyph glyph-name="uni020C.alt1" unicode="&#x2022;&#x20c;" 
d="M220 916l-45 -35l125 -147l25 19zM440 916l-45 -35l125 -147l25 19zM658 272q0 -78 -39 -144t-105 -104.5t-144 -38.5t-144 38.5t-104.5 104.5t-38.5 144v152q0 78 38.5 144t104.5 104.5t144 38.5t144 -38.5t105 -104.5t39 -144v-152z" />
    <glyph glyph-name="Odieresis.alt1" unicode="&#x2022;&#xd6;" 
d="M201.5 791.5q-23.5 23.5 -23.5 57.5t23.5 58t57.5 24t58 -24t24 -58t-24 -57.5t-58 -23.5t-57.5 23.5zM423.5 791.5q-23.5 23.5 -23.5 57.5t23.5 58t57.5 24t58 -24t24 -58t-24 -57.5t-58 -23.5t-57.5 23.5zM226 816q14 -14 33 -14q20 0 33.5 14t13.5 33q0 20 -13.5 34
t-33.5 14t-33.5 -14t-13.5 -34q0 -19 14 -33zM448 816q14 -14 33 -14q20 0 33.5 14t13.5 33q0 20 -13.5 34t-33.5 14t-33.5 -14t-13.5 -34q0 -19 14 -33zM658 272q0 -78 -39 -144t-105 -104.5t-144 -38.5t-144 38.5t-104.5 104.5t-38.5 144v152q0 78 38.5 144t104.5 104.5
t144 38.5t144 -38.5t105 -104.5t39 -144v-152z" />
    <glyph glyph-name="uni022A.alt1" unicode="&#x2022;&#x22a;" 
d="M518 1015v-37h-296v37h296zM201.5 791.5q-23.5 23.5 -23.5 57.5t23.5 58t57.5 24t58 -24t24 -58t-24 -57.5t-58 -23.5t-57.5 23.5zM423.5 791.5q-23.5 23.5 -23.5 57.5t23.5 58t57.5 24t58 -24t24 -58t-24 -57.5t-58 -23.5t-57.5 23.5zM226 816q14 -14 33 -14
q20 0 33.5 14t13.5 33q0 20 -13.5 34t-33.5 14t-33.5 -14t-13.5 -34q0 -19 14 -33zM448 816q14 -14 33 -14q20 0 33.5 14t13.5 33q0 20 -13.5 34t-33.5 14t-33.5 -14t-13.5 -34q0 -19 14 -33zM658 272q0 -78 -39 -144t-105 -104.5t-144 -38.5t-144 38.5t-104.5 104.5
t-38.5 144v152q0 78 38.5 144t104.5 104.5t144 38.5t144 -38.5t105 -104.5t39 -144v-152z" />
    <glyph glyph-name="uni0230.alt1" unicode="&#x2022;&#x230;" 
d="M518 1015v-37h-296v37h296zM312.5 791.5q-23.5 23.5 -23.5 57.5t23.5 58t57.5 24t58 -24t24 -58t-24 -57.5t-58 -23.5t-57.5 23.5zM337 816q14 -14 33 -14q20 0 33.5 14t13.5 33q0 20 -13.5 34t-33.5 14t-33.5 -14t-13.5 -34q0 -19 14 -33zM658 272q0 -78 -39 -144
t-105 -104.5t-144 -38.5t-144 38.5t-104.5 104.5t-38.5 144v152q0 78 38.5 144t104.5 104.5t144 38.5t144 -38.5t105 -104.5t39 -144v-152z" />
    <glyph glyph-name="uni1ECC.alt1" unicode="&#x2022;&#x1ecc;" 
d="M658 272q0 -78 -39 -144t-105 -104.5t-144 -38.5t-144 38.5t-104.5 104.5t-38.5 144v152q0 78 38.5 144t104.5 104.5t144 38.5t144 -38.5t105 -104.5t39 -144v-152zM312.5 -193.5q-23.5 23.5 -23.5 57.5t23.5 58t57.5 24t58 -24t24 -58t-24 -57.5t-58 -23.5t-57.5 23.5z
M337 -169.5q14 -13.5 33 -13.5q20 0 33.5 13.5t13.5 33.5t-13.5 34t-33.5 14t-33.5 -14t-13.5 -34t14 -33.5z" />
    <glyph glyph-name="Ograve.alt1" unicode="&#x2022;&#xd2;" 
d="M303 912l-35 -45l173 -126l19 25zM658 272q0 -78 -39 -144t-105 -104.5t-144 -38.5t-144 38.5t-104.5 104.5t-38.5 144v152q0 78 38.5 144t104.5 104.5t144 38.5t144 -38.5t105 -104.5t39 -144v-152z" />
    <glyph glyph-name="uni1ECE.alt1" unicode="&#x2022;&#x1ece;" 
d="M389 872.5q-13 11.5 -37 11.5h-20v34h20q39 0 62 -20.5t23 -52.5q0 -31 -21 -52.5t-52 -22.5v-25h-32v59h26q19 0 31.5 11.5t12.5 28.5t-13 28.5zM658 272q0 -78 -39 -144t-105 -104.5t-144 -38.5t-144 38.5t-104.5 104.5t-38.5 144v152q0 78 38.5 144t104.5 104.5
t144 38.5t144 -38.5t105 -104.5t39 -144v-152z" />
    <glyph glyph-name="Ohorn.alt1" unicode="&#x2022;&#x1a0;" 
d="M637.5 685q-28.5 -36 -75.5 -47q45 -41 70.5 -96t25.5 -118v-152q0 -78 -39 -144t-105 -104.5t-144 -38.5t-144 38.5t-104.5 104.5t-38.5 144v152q0 78 38.5 144t104.5 104.5t144 38.5q87 0 160 -49q44 3 71.5 33.5t27.5 79.5v86h37v-86q0 -54 -28.5 -90z" />
    <glyph glyph-name="uni1EDA.alt1" unicode="&#x2022;&#x1eda;" 
d="M299 741l-19 25l157 146l35 -45zM637.5 685q-28.5 -36 -75.5 -47q45 -41 70.5 -96t25.5 -118v-152q0 -78 -39 -144t-105 -104.5t-144 -38.5t-144 38.5t-104.5 104.5t-38.5 144v152q0 78 38.5 144t104.5 104.5t144 38.5q87 0 160 -49q44 3 71.5 33.5t27.5 79.5v86h37v-86
q0 -54 -28.5 -90z" />
    <glyph glyph-name="uni1EE2.alt1" unicode="&#x2022;&#x1ee2;" 
d="M637.5 685q-28.5 -36 -75.5 -47q45 -41 70.5 -96t25.5 -118v-152q0 -78 -39 -144t-105 -104.5t-144 -38.5t-144 38.5t-104.5 104.5t-38.5 144v152q0 78 38.5 144t104.5 104.5t144 38.5q87 0 160 -49q44 3 71.5 33.5t27.5 79.5v86h37v-86q0 -54 -28.5 -90zM428 -78
q24 -24 24 -58t-24 -57.5t-58 -23.5t-57.5 23.5t-23.5 57.5t23.5 58t57.5 24t58 -24zM403.5 -169.5q13.5 13.5 13.5 33.5t-13.5 34t-33.5 14t-33.5 -14t-13.5 -34t14 -33.5t33 -13.5q20 0 33.5 13.5z" />
    <glyph glyph-name="uni1EDC.alt1" unicode="&#x2022;&#x1edc;" 
d="M441 741l-173 126l35 45l157 -146zM637.5 685q-28.5 -36 -75.5 -47q45 -41 70.5 -96t25.5 -118v-152q0 -78 -39 -144t-105 -104.5t-144 -38.5t-144 38.5t-104.5 104.5t-38.5 144v152q0 78 38.5 144t104.5 104.5t144 38.5q87 0 160 -49q44 3 71.5 33.5t27.5 79.5v86h37
v-86q0 -54 -28.5 -90z" />
    <glyph glyph-name="uni1EDE.alt1" unicode="&#x2022;&#x1ede;" 
d="M364 745h-32v59h26q19 0 31.5 11.5t12.5 28.5t-13 28.5t-37 11.5h-20v34h20q39 0 62 -20.5t23 -52.5q0 -31 -21 -52.5t-52 -22.5v-25zM637.5 685q-28.5 -36 -75.5 -47q45 -41 70.5 -96t25.5 -118v-152q0 -78 -39 -144t-105 -104.5t-144 -38.5t-144 38.5t-104.5 104.5
t-38.5 144v152q0 78 38.5 144t104.5 104.5t144 38.5q87 0 160 -49q44 3 71.5 33.5t27.5 79.5v86h37v-86q0 -54 -28.5 -90z" />
    <glyph glyph-name="uni1EE0.alt1" unicode="&#x2022;&#x1ee0;" 
d="M298 829q-40 0 -74 -42l-29 24q45 54 103 54q38 0 78 -26q32 -22 63 -22q41 0 73 40l29 -24q-44 -53 -103 -53q-42 0 -83 28q-29 21 -57 21zM637.5 685q-28.5 -36 -75.5 -47q45 -41 70.5 -96t25.5 -118v-152q0 -78 -39 -144t-105 -104.5t-144 -38.5t-144 38.5
t-104.5 104.5t-38.5 144v152q0 78 38.5 144t104.5 104.5t144 38.5q87 0 160 -49q44 3 71.5 33.5t27.5 79.5v86h37v-86q0 -54 -28.5 -90z" />
    <glyph glyph-name="Ohungarumlaut.alt1" unicode="&#x2022;&#x150;" 
d="M300 916l45 -35l-125 -147l-25 19zM520 916l45 -35l-126 -147l-24 19zM658 272q0 -78 -39 -144t-105 -104.5t-144 -38.5t-144 38.5t-104.5 104.5t-38.5 144v152q0 78 38.5 144t104.5 104.5t144 38.5t144 -38.5t105 -104.5t39 -144v-152z" />
    <glyph glyph-name="uni020E.alt1" unicode="&#x2022;&#x20e;" 
d="M524 793q-20 45 -62 72t-92 27t-92 -27t-62 -72l33 -16q17 35 49.5 56.5t71.5 21.5t71.5 -21.5t49.5 -56.5zM658 272q0 -78 -39 -144t-105 -104.5t-144 -38.5t-144 38.5t-104.5 104.5t-38.5 144v152q0 78 38.5 144t104.5 104.5t144 38.5t144 -38.5t105 -104.5t39 -144
v-152z" />
    <glyph glyph-name="Omacron.alt1" unicode="&#x2022;&#x14c;" 
d="M518 827v-37h-296v37h296zM658 272q0 -78 -39 -144t-105 -104.5t-144 -38.5t-144 38.5t-104.5 104.5t-38.5 144v152q0 78 38.5 144t104.5 104.5t144 38.5t144 -38.5t105 -104.5t39 -144v-152z" />
    <glyph glyph-name="uni01EA.alt1" unicode="&#x2022;&#x1ea;" 
d="M514 672.5q66 -38.5 105 -104.5t39 -144v-152q0 -84 -45 -154t-119 -105q-47 -33 -47 -89q0 -43 32.5 -73.5t81.5 -30.5v-37q-42 0 -76.5 19t-54.5 51.5t-20 70.5q0 37 19 67q-28 -6 -59 -6q-78 0 -144 38.5t-104.5 104.5t-38.5 144v152q0 78 38.5 144t104.5 104.5
t144 38.5t144 -38.5z" />
    <glyph glyph-name="Oslash.alt1" unicode="&#x2022;&#xd8;" 
d="M636 533q22 -52 22 -109v-152q0 -78 -39 -144t-105 -104.5t-144 -38.5q-50 0 -95.5 16t-82.5 46l-65 -99l-30 20l68 103q-39 40 -60.5 91.5t-21.5 109.5v152q0 78 38.5 144t104.5 104.5t144 38.5q49 0 94.5 -16t82.5 -45l66 99l30 -21l-68 -103q39 -40 61 -92z" />
    <glyph glyph-name="Oslashacute.alt1" unicode="&#x2022;&#x1fe;" 
d="M299 741l-19 25l157 146l35 -45zM636 533q22 -52 22 -109v-152q0 -78 -39 -144t-105 -104.5t-144 -38.5q-50 0 -95.5 16t-82.5 46l-65 -99l-30 20l68 103q-39 40 -60.5 91.5t-21.5 109.5v152q0 78 38.5 144t104.5 104.5t144 38.5q49 0 94.5 -16t82.5 -45l66 99l30 -21
l-68 -103q39 -40 61 -92z" />
    <glyph glyph-name="Otilde.alt1" unicode="&#x2022;&#xd5;" 
d="M541 833q-44 -53 -103 -53q-42 0 -83 28q-29 21 -57 21q-40 0 -74 -42l-29 24q45 54 103 54q38 0 78 -26q32 -22 63 -22q41 0 73 40zM658 272q0 -78 -39 -144t-105 -104.5t-144 -38.5t-144 38.5t-104.5 104.5t-38.5 144v152q0 78 38.5 144t104.5 104.5t144 38.5
t144 -38.5t105 -104.5t39 -144v-152z" />
    <glyph glyph-name="uni022C.alt1" unicode="&#x2022;&#x22c;" 
d="M518 975v-37h-296v37h296zM541 833q-44 -53 -103 -53q-42 0 -83 28q-29 21 -57 21q-40 0 -74 -42l-29 24q45 54 103 54q38 0 78 -26q32 -22 63 -22q41 0 73 40zM658 272q0 -78 -39 -144t-105 -104.5t-144 -38.5t-144 38.5t-104.5 104.5t-38.5 144v152q0 78 38.5 144
t104.5 104.5t144 38.5t144 -38.5t105 -104.5t39 -144v-152z" />
    <glyph glyph-name="OE.alt1" unicode="&#x2022;&#x152;" 
d="M511 520v-88h140v-167h-140v-89h195v-176h-377q-85 0 -154.5 38.5t-109 104.5t-39.5 146v118q0 80 39.5 146.5t109 104.5t154.5 38h377v-176h-195z" />
    <glyph glyph-name="R.alt1" unicode="&#x2022;R" 
d="M123 696h271q87 0 142 -31q54 -30 84 -82t30 -115q0 -78 -48 -139.5t-121 -81.5l177 -247h-535v696z" />
    <glyph glyph-name="Racute.alt1" unicode="&#x2022;&#x154;" 
d="M431 912l35 -45l-173 -126l-19 25zM658 0h-535v696h271q87 0 142 -31q54 -30 84 -82t30 -115q0 -78 -48 -139.5t-121 -81.5z" />
    <glyph glyph-name="Rcaron.alt1" unicode="&#x2022;&#x158;" 
d="M222 896l148 -148l148 148l-26 26l-122 -122l-122 122zM658 0h-535v696h271q87 0 142 -31q54 -30 84 -82t30 -115q0 -78 -48 -139.5t-121 -81.5z" />
    <glyph glyph-name="uni0156.alt1" unicode="&#x2022;&#x156;" 
d="M658 0h-535v696h271q87 0 142 -31q54 -30 84 -82t30 -115q0 -78 -48 -139.5t-121 -81.5zM341 -223l27 47q-25 1 -43 19.5t-18 43.5q0 26 18.5 44.5t44.5 18.5t44.5 -18.5t18.5 -44.5q0 -15 -14 -41l-40 -69h-38z" />
    <glyph glyph-name="uni0210.alt1" unicode="&#x2022;&#x210;" 
d="M230 916l-45 -35l125 -147l25 19zM450 916l-45 -35l125 -147l25 19zM658 0h-535v696h271q87 0 142 -31q54 -30 84 -82t30 -115q0 -78 -48 -139.5t-121 -81.5z" />
    <glyph glyph-name="uni0212.alt1" unicode="&#x2022;&#x212;" 
d="M525 793q-20 45 -62 72t-92 27t-92 -27t-62 -72l33 -16q17 35 49.5 56.5t71.5 21.5t71.5 -21.5t49.5 -56.5zM658 0h-535v696h271q87 0 142 -31q54 -30 84 -82t30 -115q0 -78 -48 -139.5t-121 -81.5z" />
    <glyph glyph-name="T.alt1" unicode="&#x2022;T" 
d="M651 696v-176h-190v-520h-182v520h-190v176h562z" />
    <glyph glyph-name="Tbar.alt1" unicode="&#x2022;&#x166;" 
d="M651 696v-176h-190v-207h130v-37h-130v-276h-182v276h-130v37h130v207h-190v176h562z" />
    <glyph glyph-name="Tcaron.alt1" unicode="&#x2022;&#x164;" 
d="M222 896l148 -148l148 148l-26 26l-122 -122l-122 122zM279 0v520h-190v176h562v-176h-190v-520h-182z" />
    <glyph glyph-name="uni0162.alt1" unicode="&#x2022;&#x162;" 
d="M651 696v-176h-190v-520h-182v520h-190v176h562zM393 -8l33 -16l-75 -149l-33 17z" />
    <glyph glyph-name="uni021A.alt1" unicode="&#x2022;&#x21b;" 
d="M651 696v-176h-190v-520h-182v520h-190v176h562zM325.5 -68.5q18.5 18.5 44.5 18.5t44.5 -18.5t18.5 -44.5q0 -15 -14 -41l-41 -69h-37l27 47q-25 1 -43 19t-18 44t18.5 44.5z" />
    <glyph glyph-name="U.alt1" unicode="&#x2022;U" 
d="M89 696h563v-430q0 -76 -38 -140.5t-103 -102.5t-141 -38t-140.5 38t-102.5 102.5t-38 140.5v430zM126 659v-393q0 -66 33 -122t89 -89t122 -33t122 33t89 89t33 122v393h-488z" />
    <glyph glyph-name="Uacute.alt1" unicode="&#x2022;&#xda;" 
d="M437 912l35 -45l-173 -126l-19 25zM652 696v-430q0 -76 -38 -140.5t-103 -102.5t-141 -38t-140.5 38t-102.5 102.5t-38 140.5v430h563zM126 266q0 -66 33 -122t89 -89t122 -33t122 33t89 89t33 122v393h-488v-393z" />
    <glyph glyph-name="Ubreve.alt1" unicode="&#x2022;&#x16c;" 
d="M524 876q-20 -45 -62 -72t-92 -27t-92 27t-62 72l33 16q16 -36 49 -57t72 -21t71.5 21t49.5 56zM652 696v-430q0 -76 -38 -140.5t-103 -102.5t-141 -38t-140.5 38t-102.5 102.5t-38 140.5v430h563zM126 266q0 -66 33 -122t89 -89t122 -33t122 33t89 89t33 122v393h-488
v-393z" />
    <glyph glyph-name="Ucircumflex.alt1" unicode="&#x2022;&#xdb;" 
d="M222 774l148 148l148 -148l-26 -26l-122 122l-122 -122zM652 696v-430q0 -76 -38 -140.5t-103 -102.5t-141 -38t-140.5 38t-102.5 102.5t-38 140.5v430h563zM126 266q0 -66 33 -122t89 -89t122 -33t122 33t89 89t33 122v393h-488v-393z" />
    <glyph glyph-name="uni0214.alt1" unicode="&#x2022;&#x214;" 
d="M220 916l-45 -35l125 -147l25 19zM440 916l-45 -35l125 -147l25 19zM652 696v-430q0 -76 -38 -140.5t-103 -102.5t-141 -38t-140.5 38t-102.5 102.5t-38 140.5v430h563zM126 266q0 -66 33 -122t89 -89t122 -33t122 33t89 89t33 122v393h-488v-393z" />
    <glyph glyph-name="Udieresis.alt1" unicode="&#x2022;&#xdc;" 
d="M201.5 791.5q-23.5 23.5 -23.5 57.5t23.5 58t57.5 24t58 -24t24 -58t-24 -57.5t-58 -23.5t-57.5 23.5zM423.5 791.5q-23.5 23.5 -23.5 57.5t23.5 58t57.5 24t58 -24t24 -58t-24 -57.5t-58 -23.5t-57.5 23.5zM226 816q14 -14 33 -14q20 0 33.5 14t13.5 33q0 20 -13.5 34
t-33.5 14t-33.5 -14t-13.5 -34q0 -19 14 -33zM448 816q14 -14 33 -14q20 0 33.5 14t13.5 33q0 20 -13.5 34t-33.5 14t-33.5 -14t-13.5 -34q0 -19 14 -33zM652 696v-430q0 -76 -38 -140.5t-103 -102.5t-141 -38t-140.5 38t-102.5 102.5t-38 140.5v430h563zM126 266
q0 -66 33 -122t89 -89t122 -33t122 33t89 89t33 122v393h-488v-393z" />
    <glyph glyph-name="uni1EE4.alt1" unicode="&#x2022;&#x1ee4;" 
d="M652 696v-430q0 -76 -38 -140.5t-103 -102.5t-141 -38t-140.5 38t-102.5 102.5t-38 140.5v430h563zM126 266q0 -66 33 -122t89 -89t122 -33t122 33t89 89t33 122v393h-488v-393zM312.5 -193.5q-23.5 23.5 -23.5 57.5t23.5 58t57.5 24t58 -24t24 -58t-24 -57.5t-58 -23.5
t-57.5 23.5zM337 -169.5q14 -13.5 33 -13.5q20 0 33.5 13.5t13.5 33.5t-13.5 34t-33.5 14t-33.5 -14t-13.5 -34t14 -33.5z" />
    <glyph glyph-name="Ugrave.alt1" unicode="&#x2022;&#xd9;" 
d="M303 912l-35 -45l173 -126l19 25zM652 696v-430q0 -76 -38 -140.5t-103 -102.5t-141 -38t-140.5 38t-102.5 102.5t-38 140.5v430h563zM126 266q0 -66 33 -122t89 -89t122 -33t122 33t89 89t33 122v393h-488v-393z" />
    <glyph glyph-name="uni1EE6.alt1" unicode="&#x2022;&#x1ee6;" 
d="M389 872.5q-13 11.5 -37 11.5h-20v34h20q39 0 62 -20.5t23 -52.5q0 -31 -21 -52.5t-52 -22.5v-25h-32v59h26q19 0 31.5 11.5t12.5 28.5t-13 28.5zM652 696v-430q0 -76 -38 -140.5t-103 -102.5t-141 -38t-140.5 38t-102.5 102.5t-38 140.5v430h563zM126 266q0 -66 33 -122
t89 -89t122 -33t122 33t89 89t33 122v393h-488v-393z" />
    <glyph glyph-name="Uhorn.alt1" unicode="&#x2022;&#x1af;" 
d="M735 861v-86q0 -43 -23 -73.5t-60 -39.5v-396q0 -76 -38 -140.5t-103 -102.5t-141 -38t-140.5 38t-102.5 102.5t-38 140.5v430h535q33 0 53.5 21.5t20.5 57.5v86h37zM614 659h-488v-393q0 -66 33 -122t89 -89t122 -33t122 33t89 89t33 122v393z" />
    <glyph glyph-name="uni1EE8.alt1" unicode="&#x2022;&#x1ee8;" 
d="M437 912l35 -45l-173 -126l-19 25zM735 861v-86q0 -43 -23 -73.5t-60 -39.5v-396q0 -76 -38 -140.5t-103 -102.5t-141 -38t-140.5 38t-102.5 102.5t-38 140.5v430h535q33 0 53.5 21.5t20.5 57.5v86h37zM126 659v-393q0 -66 33 -122t89 -89t122 -33t122 33t89 89t33 122
v393h-488z" />
    <glyph glyph-name="uni1EF0.alt1" unicode="&#x2022;&#x1ef0;" 
d="M712 701.5q-23 -30.5 -60 -39.5v-396q0 -76 -38 -140.5t-103 -102.5t-141 -38t-140.5 38t-102.5 102.5t-38 140.5v430h535q33 0 53.5 21.5t20.5 57.5v86h37v-86q0 -43 -23 -73.5zM614 659h-488v-393q0 -66 33 -122t89 -89t122 -33t122 33t89 89t33 122v393zM312.5 -193.5
q-23.5 23.5 -23.5 57.5t23.5 58t57.5 24t58 -24t24 -58t-24 -57.5t-58 -23.5t-57.5 23.5zM336.5 -102q-13.5 -14 -13.5 -34t14 -33.5t33 -13.5q20 0 33.5 13.5t13.5 33.5t-13.5 34t-33.5 14t-33.5 -14z" />
    <glyph glyph-name="uni1EEA.alt1" unicode="&#x2022;&#x1eea;" 
d="M268 867l35 45l157 -146l-19 -25zM735 861v-86q0 -43 -23 -73.5t-60 -39.5v-396q0 -76 -38 -140.5t-103 -102.5t-141 -38t-140.5 38t-102.5 102.5t-38 140.5v430h535q33 0 53.5 21.5t20.5 57.5v86h37zM126 659v-393q0 -66 33 -122t89 -89t122 -33t122 33t89 89t33 122
v393h-488z" />
    <glyph glyph-name="uni1EEC.alt1" unicode="&#x2022;&#x1eec;" 
d="M364 745h-32v59h26q19 1 31.5 12t12.5 28t-13 28.5t-37 11.5h-20v34h20q39 0 62 -20.5t23 -52.5q0 -31 -21 -52.5t-52 -22.5v-25zM614 125.5q-38 -64.5 -103 -102.5t-141 -38t-140.5 38t-102.5 102.5t-38 140.5v430h535q33 0 53.5 21.5t20.5 57.5v86h37v-86
q0 -43 -23 -73.5t-60 -39.5v-396q0 -76 -38 -140.5zM492 55q56 33 89 89t33 122v393h-488v-393q0 -66 33 -122t89 -89t122 -33t122 33z" />
    <glyph glyph-name="uni1EEE.alt1" unicode="&#x2022;&#x1eee;" 
d="M298 865q38 0 78 -26q32 -22 62 -22q42 0 74 40l29 -24q-44 -53 -102 -53q-43 0 -84 28q-28 20 -57 20q-41 0 -74 -41l-29 24q45 54 103 54zM712 701.5q-23 -30.5 -60 -39.5v-396q0 -76 -38 -140.5t-103 -102.5t-141 -38t-140.5 38t-102.5 102.5t-38 140.5v430h535
q33 0 53.5 21.5t20.5 57.5v86h37v-86q0 -43 -23 -73.5zM126 659v-393q0 -66 33 -122t89 -89t122 -33t122 33t89 89t33 122v393h-488z" />
    <glyph glyph-name="Uhungarumlaut.alt1" unicode="&#x2022;&#x170;" 
d="M300 916l45 -35l-125 -147l-25 19zM520 916l45 -35l-126 -147l-24 19zM652 696v-430q0 -76 -38 -140.5t-103 -102.5t-141 -38t-140.5 38t-102.5 102.5t-38 140.5v430h563zM126 266q0 -66 33 -122t89 -89t122 -33t122 33t89 89t33 122v393h-488v-393z" />
    <glyph glyph-name="uni0216.alt1" unicode="&#x2022;&#x216;" 
d="M89 696h563v-430q0 -76 -38 -140.5t-103 -102.5t-141 -38t-140.5 38t-102.5 102.5t-38 140.5v430zM126 659v-393q0 -66 33 -122t89 -89t122 -33t122 33t89 89t33 122v393h-488zM249 777q17 35 49.5 56.5t71.5 21.5t71.5 -21.5t49.5 -56.5l33 16q-20 45 -62 72t-92 27
t-92 -27t-62 -72z" />
    <glyph glyph-name="Umacron.alt1" unicode="&#x2022;&#x16a;" 
d="M516 813v-37h-296v37h296zM652 696v-430q0 -76 -38 -140.5t-103 -102.5t-141 -38t-140.5 38t-102.5 102.5t-38 140.5v430h563zM126 266q0 -66 33 -122t89 -89t122 -33t122 33t89 89t33 122v393h-488v-393z" />
    <glyph glyph-name="Uogonek.alt1" unicode="&#x2022;&#x172;" 
d="M652 696v-430q0 -80 -42.5 -147.5t-111.5 -102.5q-51 -35 -51 -91q0 -44 32.5 -74.5t81.5 -30.5v-37q-42 0 -76.5 19t-54.5 51.5t-20 70.5q0 37 19 67q-28 -6 -59 -6q-76 0 -140.5 38t-102.5 102.5t-38 140.5v430h563zM614 659h-488v-393q0 -66 33 -122t89 -89t122 -33
t122 33t89 89t33 122v393z" />
    <glyph glyph-name="Uring.alt1" unicode="&#x2022;&#x16e;" 
d="M294.5 769.5q-31.5 31.5 -31.5 76.5q0 44 31.5 75.5t75.5 31.5t75.5 -31.5t31.5 -75.5q0 -45 -31.5 -76.5t-75.5 -31.5t-75.5 31.5zM320.5 796q20.5 -21 49.5 -21t49.5 21t20.5 50t-20.5 49.5t-49.5 20.5t-49.5 -20.5t-20.5 -49.5t20.5 -50zM652 696v-430
q0 -76 -38 -140.5t-103 -102.5t-141 -38t-140.5 38t-102.5 102.5t-38 140.5v430h563zM126 266q0 -66 33 -122t89 -89t122 -33t122 33t89 89t33 122v393h-488v-393z" />
    <glyph glyph-name="Utilde.alt1" unicode="&#x2022;&#x168;" 
d="M541 833q-44 -53 -103 -53q-42 0 -83 28q-29 21 -57 21q-40 0 -74 -42l-29 24q45 54 103 54q38 0 78 -26q32 -22 63 -22q41 0 73 40zM652 696v-430q0 -76 -38 -140.5t-103 -102.5t-141 -38t-140.5 38t-102.5 102.5t-38 140.5v430h563zM126 266q0 -66 33 -122t89 -89
t122 -33t122 33t89 89t33 122v393h-488v-393z" />
    <glyph glyph-name="W.alt1" unicode="&#x2022;W" 
d="M227 0l-187 696h38l169 -627l104 389h39l104 -389l169 627h38l-187 -696h-40l-104 387l-103 -387h-40z" />
    <glyph glyph-name="Wacute.alt1" unicode="&#x2022;&#x1e82;" 
d="M431 912l35 -45l-173 -126l-19 25zM351 458h39l104 -389l169 627h38l-187 -696h-40l-104 387l-103 -387h-40l-187 696h38l169 -627z" />
    <glyph glyph-name="Wcircumflex.alt1" unicode="&#x2022;&#x174;" 
d="M222 774l148 148l148 -148l-26 -26l-122 122l-122 -122zM351 458h39l104 -389l169 627h38l-187 -696h-40l-104 387l-103 -387h-40l-187 696h38l169 -627z" />
    <glyph glyph-name="Wdieresis.alt1" unicode="&#x2022;&#x1e84;" 
d="M201.5 791.5q-23.5 23.5 -23.5 57.5t23.5 58t57.5 24t58 -24t24 -58t-24 -57.5t-58 -23.5t-57.5 23.5zM423.5 791.5q-23.5 23.5 -23.5 57.5t23.5 58t57.5 24t58 -24t24 -58t-24 -57.5t-58 -23.5t-57.5 23.5zM226 816q14 -14 33 -14q20 0 33.5 14t13.5 33q0 20 -13.5 34
t-33.5 14t-33.5 -14t-13.5 -34q0 -19 14 -33zM448 816q14 -14 33 -14q20 0 33.5 14t13.5 33q0 20 -13.5 34t-33.5 14t-33.5 -14t-13.5 -34q0 -19 14 -33zM351 458h39l104 -389l169 627h38l-187 -696h-40l-104 387l-103 -387h-40l-187 696h38l169 -627z" />
    <glyph glyph-name="Wgrave.alt1" unicode="&#x2022;&#x1e80;" 
d="M309 912l-35 -45l173 -126l19 25zM351 458h39l104 -389l169 627h38l-187 -696h-40l-104 387l-103 -387h-40l-187 696h38l169 -627z" />
    <glyph glyph-name="K.alt2" unicode="&#x2022;&#x2022;K" 
d="M671 696l-291 -290l290 -406h-560v696h561zM147 225l435 434h-435v-434zM147 172v-135h453l-246 342z" />
    <glyph glyph-name="uni0136.alt2" unicode="&#x2022;&#x2022;&#x136;" 
d="M670 0h-560v696h561l-291 -290zM147 225l435 434h-435v-434zM147 37h453l-246 342l-207 -207v-135zM341 -223l27 47q-25 1 -43 19.5t-18 43.5q0 26 18.5 44.5t44.5 18.5t44.5 -18.5t18.5 -44.5q0 -15 -14 -41l-40 -69h-38z" />
    <glyph glyph-name="period.alt1" unicode="&#x2022;&#x2e;" 
d="M305.5 139.5q26.5 26.5 64.5 26.5t64.5 -26.5t26.5 -63.5t-26.5 -64t-64.5 -27q-37 0 -64 27t-27 64t26.5 63.5zM332 38q16 -16 38 -16q23 0 38.5 16t15.5 38t-16 37.5t-38 15.5t-38 -15.5t-16 -37.5t16 -38z" />
    <glyph glyph-name="ellipsis.alt1" unicode="&#x2022;&#x2026;" 
d="M86.5 11.5q-26.5 26.5 -26.5 64.5q0 37 26.5 63.5t64.5 26.5t64.5 -26.5t26.5 -63.5q0 -38 -26.5 -64.5t-64.5 -26.5t-64.5 26.5zM305.5 11.5q-26.5 26.5 -26.5 64.5q0 37 26.5 63.5t64.5 26.5t64.5 -26.5t26.5 -63.5q0 -38 -26.5 -64.5t-64.5 -26.5t-64.5 26.5z
M524.5 11.5q-26.5 26.5 -26.5 64.5q0 37 26.5 63.5t64.5 26.5t64.5 -26.5t26.5 -63.5q0 -38 -26.5 -64.5t-64.5 -26.5t-64.5 26.5zM189.5 38q15.5 16 15.5 38t-16 37.5t-38 15.5t-38 -15.5t-16 -37.5t16 -38t38 -16q23 0 38.5 16zM408.5 38q15.5 16 15.5 38t-16 37.5
t-38 15.5t-38 -15.5t-16 -37.5t16 -38t38 -16q23 0 38.5 16zM627.5 38q15.5 16 15.5 38t-16 37.5t-38 15.5t-38 -15.5t-16 -37.5t16 -38t38 -16q23 0 38.5 16z" />
    <glyph glyph-name="exclam.alt1" unicode="&#x2022;&#x21;" 
d="M352 240v456h36v-456h-36zM305.5 139.5q26.5 26.5 64.5 26.5t64.5 -26.5t26.5 -63.5t-26.5 -64t-64.5 -27q-37 0 -64 27t-27 64t26.5 63.5zM332 38q16 -16 38 -16q23 0 38.5 16t15.5 38t-16 37.5t-38 15.5t-38 -15.5t-16 -37.5t16 -38z" />
    <glyph glyph-name="exclamdown.alt1" unicode="&#x2022;&#xa1;" 
d="M306 684.5q-27 -26.5 -27 -64.5q0 -37 26.5 -63.5t64.5 -26.5t64.5 26.5t26.5 63.5q0 38 -26.5 64.5t-64.5 26.5q-37 0 -64 -26.5zM408.5 658.5q15.5 -15.5 15.5 -38.5q0 -22 -16 -38t-38 -16t-38 16t-16 38q0 23 16 38.5t38 15.5q23 0 38.5 -15.5zM352 456v-456h36v456
h-36z" />
    <glyph glyph-name="question.alt1" unicode="&#x2022;&#x3f;" 
d="M352 275h18q54 0 99.5 26.5t72 72t26.5 99.5t-26.5 99.5t-72 72t-99.5 26.5t-99.5 -26.5t-72 -72t-26.5 -99.5h-37q0 64 31.5 118t85.5 85.5t118 31.5t118 -31.5t85.5 -85.5t31.5 -118q0 -60 -29 -112t-78.5 -84.5t-109.5 -37.5v-34h-36v70zM306 12q-27 27 -27 64
t26.5 63.5t64.5 26.5t64.5 -26.5t26.5 -63.5t-26.5 -64t-64.5 -27q-37 0 -64 27z" />
    <glyph glyph-name="questiondown.alt1" unicode="&#x2022;&#xbf;" 
d="M434.5 681.5q26.5 -26.5 26.5 -63.5q0 -38 -26.5 -64.5t-64.5 -26.5t-64.5 26.5t-26.5 64.5q0 37 26.5 63.5t64.5 26.5t64.5 -26.5zM370 418q-54 0 -99.5 -26.5t-72 -72t-26.5 -99.5t26.5 -99.5t72 -72t99.5 -26.5t99.5 26.5t72 72t26.5 99.5h37q0 -64 -31.5 -118
t-85.5 -85.5t-118 -31.5t-118 31.5t-85.5 85.5t-31.5 118q0 60 29 112.5t78.5 85t109.5 36.5v35h36v-71h-18z" />
    <glyph glyph-name="periodcentered.alt1" unicode="&#x2022;&#xb7;" 
d="M305.5 406.5q26.5 26.5 64.5 26.5t64.5 -26.5t26.5 -63.5t-26.5 -64t-64.5 -27q-37 0 -64 27t-27 64t26.5 63.5zM332 305q16 -16 38 -16q23 0 38.5 16t15.5 38t-16 37.5t-38 15.5t-38 -15.5t-16 -37.5t16 -38z" />
    <glyph glyph-name="plus.alt1" unicode="&#x2022;&#x2b;" 
d="M143 427h141v142h172v-142h141v-171h-141v-142h-172v142h-141v171z" />
    <glyph glyph-name="multiply.alt1" unicode="&#x2022;&#xd7;" 
d="M149 436l121 121l100 -100l100 100l122 -121l-100 -100l100 -100l-122 -122l-100 100l-100 -100l-121 122l100 100z" />
    <glyph glyph-name="greater.alt1" unicode="&#x2022;&#x3e;" 
d="M346 344l-167 166l122 122l288 -288l-288 -287l-122 121z" />
    <glyph glyph-name="less.alt1" unicode="&#x2022;&#x3c;" 
d="M419 632l122 -122l-167 -166l167 -166l-122 -121l-288 287z" />
    <glyph glyph-name="arrowright.alt1" unicode="&#x2022;&#x2192;" 
d="M54 434h303l-118 118l122 122l325 -326l-325 -326l-122 122l119 118h-304v172z" />
    <glyph glyph-name="arrowleft.alt1" unicode="&#x2022;&#x2190;" 
d="M54 348l325 326l122 -122l-118 -118h303v-172h-303l118 -118l-122 -122z" />
    <glyph glyph-name="uni2116.alt1" unicode="&#x2022;&#x2116;" 
d="M675 433.5q-17 -28.5 -45.5 -45.5t-61.5 -17t-61.5 17t-45.5 45.5t-17 61.5v85q0 33 17 61.5t45.5 45.5t61.5 17t61.5 -17t45.5 -45.5t17 -61.5v-85q0 -33 -17 -61.5zM49 0v696h39l270 -486v486h37v-696h-346zM506.5 641.5q-25.5 -25.5 -25.5 -61.5v-85q0 -36 25.5 -61.5
t61.5 -25.5t61.5 25.5t25.5 61.5v85q0 36 -25.5 61.5t-61.5 25.5t-61.5 -25.5zM85 627v-590h273v101zM689 334v-37h-242v37h242z" />
    <glyph glyph-name=".notdef" 
d="M22 696h697v-696h-697v696zM655 659h-596v-596zM85 37h596v596z" />
    <glyph glyph-name="NULL" 
 />
    <glyph glyph-name="nonmarkingreturn" unicode="&#xd;" 
 />
    <glyph glyph-name="space" unicode=" " 
 />
    <glyph glyph-name="A" unicode="A" 
d="M698 0h-656l328 711zM100 37h540l-270 586z" />
    <glyph glyph-name="Aacute" unicode="&#xc1;" 
d="M698 0h-656l328 711zM100 37h540l-270 586zM437 912l35 -45l-173 -126l-19 25z" />
    <glyph glyph-name="Abreve" unicode="&#x102;" 
d="M698 0h-656l328 711zM100 37h540l-270 586zM249 892q16 -36 49 -57t72 -21t72 21t49 57l33 -16q-20 -45 -62 -72t-92 -27t-92 27t-62 72z" />
    <glyph glyph-name="uni1EAE" unicode="&#x1eae;" 
d="M437 1114l35 -45l-173 -126l-19 25zM524 876q-20 -45 -62 -72t-92 -27t-92 27t-62 72l33 16q16 -36 49 -57t72 -21t71.5 21t49.5 56zM698 0h-656l328 711zM100 37h540l-270 586z" />
    <glyph glyph-name="uni1EB6" unicode="&#x1eb6;" 
d="M524 876q-20 -45 -62 -72t-92 -27t-92 27t-62 72l33 16q16 -36 49 -57t72 -21t71.5 21t49.5 56zM698 0h-656l328 711zM100 37h540l-270 586zM312.5 -193.5q-23.5 23.5 -23.5 57.5t23.5 58t57.5 24t58 -24t24 -58t-24 -57.5t-58 -23.5t-57.5 23.5zM337 -169.5
q14 -13.5 33 -13.5q20 0 33.5 13.5t13.5 33.5t-13.5 34t-33.5 14t-33.5 -14t-13.5 -34t14 -33.5z" />
    <glyph glyph-name="uni1EB0" unicode="&#x1eb0;" 
d="M303 1114l-35 -45l173 -126l19 25zM524 876q-20 -45 -62 -72t-92 -27t-92 27t-62 72l33 16q16 -36 49 -57t72 -21t71.5 21t49.5 56zM698 0h-656l328 711zM100 37h540l-270 586z" />
    <glyph glyph-name="uni1EB2" unicode="&#x1eb2;" 
d="M389 1074.5q-13 11.5 -37 11.5h-20v34h20q39 0 62 -20.5t23 -52.5q0 -31 -21 -52.5t-52 -22.5v-25h-32v59h26q19 0 31.5 11.5t12.5 28.5t-13 28.5zM524 876q-20 -45 -62 -72t-92 -27t-92 27t-62 72l33 16q16 -36 49 -57t72 -21t71.5 21t49.5 56zM698 0h-656l328 711z
M100 37h540l-270 586z" />
    <glyph glyph-name="uni1EB4" unicode="&#x1eb4;" 
d="M541 1035q-44 -53 -103 -53q-42 0 -83 28q-29 21 -57 21q-40 0 -74 -42l-29 24q45 54 103 54q38 0 78 -26q32 -22 63 -22q41 0 73 40zM524 876q-20 -45 -62 -72t-92 -27t-92 27t-62 72l33 16q16 -36 49 -57t72 -21t71.5 21t49.5 56zM698 0h-656l328 711zM100 37h540
l-270 586z" />
    <glyph glyph-name="Acircumflex" unicode="&#xc2;" 
d="M698 0h-656l328 711zM100 37h540l-270 586zM222 774l148 148l148 -148l-26 -26l-122 122l-122 -122z" />
    <glyph glyph-name="uni1EA4" unicode="&#x1ea4;" 
d="M437 1114l35 -45l-173 -126l-19 25zM222 774l148 148l148 -148l-26 -26l-122 122l-122 -122zM698 0h-656l328 711zM100 37h540l-270 586z" />
    <glyph glyph-name="uni1EAC" unicode="&#x1eac;" 
d="M222 774l148 148l148 -148l-26 -26l-122 122l-122 -122zM698 0h-656l328 711zM100 37h540l-270 586zM312.5 -193.5q-23.5 23.5 -23.5 57.5t23.5 58t57.5 24t58 -24t24 -58t-24 -57.5t-58 -23.5t-57.5 23.5zM337 -169.5q14 -13.5 33 -13.5q20 0 33.5 13.5t13.5 33.5
t-13.5 34t-33.5 14t-33.5 -14t-13.5 -34t14 -33.5z" />
    <glyph glyph-name="uni1EA6" unicode="&#x1ea6;" 
d="M303 1114l-35 -45l173 -126l19 25zM222 774l148 148l148 -148l-26 -26l-122 122l-122 -122zM698 0h-656l328 711zM100 37h540l-270 586z" />
    <glyph glyph-name="uni1EA8" unicode="&#x1ea8;" 
d="M389 1074.5q-13 11.5 -37 11.5h-20v34h20q39 0 62 -20.5t23 -52.5q0 -31 -21 -52.5t-52 -22.5v-25h-32v59h26q19 0 31.5 11.5t12.5 28.5t-13 28.5zM222 774l148 148l148 -148l-26 -26l-122 122l-122 -122zM698 0h-656l328 711zM100 37h540l-270 586z" />
    <glyph glyph-name="uni1EAA" unicode="&#x1eaa;" 
d="M541 1035q-44 -53 -103 -53q-42 0 -83 28q-29 21 -57 21q-40 0 -74 -42l-29 24q45 54 103 54q38 0 78 -26q32 -22 63 -22q41 0 73 40zM222 774l148 148l148 -148l-26 -26l-122 122l-122 -122zM698 0h-656l328 711zM100 37h540l-270 586z" />
    <glyph glyph-name="uni0200" unicode="&#x200;" 
d="M220 916l-45 -35l126 -147l24 19zM440 916l-45 -35l125 -147l25 19zM698 0h-656l328 711zM100 37h540l-270 586z" />
    <glyph glyph-name="Adieresis" unicode="&#xc4;" 
d="M698 0h-656l328 711zM100 37h540l-270 586zM316 907q24 -24 24 -58t-24 -57.5t-58 -23.5t-57.5 23.5t-23.5 57.5t23.5 58t57.5 24t58 -24zM422.5 791.5q-23.5 23.5 -23.5 57.5t23.5 58t57.5 24t58 -24t24 -58t-24 -57.5t-58 -23.5t-57.5 23.5zM291.5 816q13.5 14 13.5 33
q0 20 -13.5 34t-33.5 14t-33.5 -14t-13.5 -34q0 -19 14 -33t33 -14q20 0 33.5 14zM446.5 883q-13.5 -14 -13.5 -34q0 -19 14 -33t33 -14q20 0 33.5 14t13.5 33q0 20 -13.5 34t-33.5 14t-33.5 -14z" />
    <glyph glyph-name="uni1EA0" unicode="&#x1ea0;" 
d="M698 0h-656l328 711zM100 37h540l-270 586zM312.5 -193.5q-23.5 23.5 -23.5 57.5t23.5 58t57.5 24t58 -24t24 -58t-24 -57.5t-58 -23.5t-57.5 23.5zM337 -169.5q14 -13.5 33 -13.5q20 0 33.5 13.5t13.5 33.5t-13.5 34t-33.5 14t-33.5 -14t-13.5 -34t14 -33.5z" />
    <glyph glyph-name="Agrave" unicode="&#xc0;" 
d="M698 0h-656l328 711zM100 37h540l-270 586zM303 912l-35 -45l173 -126l19 25z" />
    <glyph glyph-name="uni1EA2" unicode="&#x1ea2;" 
d="M389 877.5q-13 11.5 -37 11.5h-20v34h20q39 0 62 -20.5t23 -52.5q0 -31 -21 -52.5t-52 -22.5v-25h-32v59h26q19 0 31.5 11.5t12.5 28.5t-13 28.5zM698 0h-656l328 711zM100 37h540l-270 586z" />
    <glyph glyph-name="uni0202" unicode="&#x202;" 
d="M524 793q-20 45 -62 72t-92 27t-92 -27t-62 -72l33 -16q17 35 49.5 56.5t71.5 21.5t71.5 -21.5t49.5 -56.5zM698 0h-656l328 711zM100 37h540l-270 586z" />
    <glyph glyph-name="Amacron" unicode="&#x100;" 
d="M698 0h-656l328 711zM100 37h540l-270 586zM222 766v37h296v-37h-296z" />
    <glyph glyph-name="Aogonek" unicode="&#x104;" 
d="M630.5 -154.5q26.5 -25.5 67.5 -25.5v-37q-55 0 -93 36t-38 88q0 56 45 93h-570l328 711l328 -711q-39 0 -66.5 -27t-27.5 -65q0 -37 26.5 -62.5zM100 37h540l-270 586z" />
    <glyph glyph-name="Aring" unicode="&#xc5;" 
d="M698 0h-656l328 711zM100 37h540l-270 586zM294.5 769.5q-31.5 31.5 -31.5 76.5q0 44 31.5 75.5t75.5 31.5t75.5 -31.5t31.5 -75.5q0 -45 -31.5 -76.5t-75.5 -31.5t-75.5 31.5zM320.5 895.5q-20.5 -20.5 -20.5 -49.5t20.5 -50t49.5 -21t49.5 21t20.5 50t-20.5 49.5
t-49.5 20.5t-49.5 -20.5z" />
    <glyph glyph-name="Aringacute" unicode="&#x1fa;" 
d="M294.5 769.5q-31.5 31.5 -31.5 76.5q0 44 31.5 75.5t75.5 31.5t75.5 -31.5t31.5 -75.5q0 -45 -31.5 -76.5t-75.5 -31.5t-75.5 31.5zM320.5 796q20.5 -21 49.5 -21t49.5 21t20.5 50t-20.5 49.5t-49.5 20.5t-49.5 -20.5t-20.5 -49.5t20.5 -50zM437 1147l35 -45l-173 -126
l-19 25zM698 0h-656l328 711zM100 37h540l-270 586z" />
    <glyph glyph-name="Atilde" unicode="&#xc3;" 
d="M698 0h-656l328 711zM100 37h540l-270 586zM541 833q-44 -53 -103 -53q-42 0 -83 28q-29 21 -57 21q-40 0 -74 -42l-29 24q45 54 103 54q38 0 78 -26q32 -22 63 -22q41 0 73 40z" />
    <glyph glyph-name="AE" unicode="&#xc6;" 
d="M16 0l298 696h393v-37h-297v-282h240v-37h-240v-303h297v-37h-334v230h-221l-96 -230h-40zM373 266v393h-36l-169 -393h205z" />
    <glyph glyph-name="AEacute" unicode="&#x1fc;" 
d="M16 0l298 696h393v-37h-297v-282h240v-37h-240v-303h297v-37h-334v230h-221l-96 -230h-40zM373 266v393h-36l-169 -393h205zM563 912l35 -45l-173 -126l-19 25z" />
    <glyph glyph-name="B" unicode="B" 
d="M419 696q66 0 105 -20q47 -24 72.5 -66t25.5 -94q0 -49 -26 -90.5t-71 -65.5q54 -19 91 -66t37 -106q0 -52 -26.5 -95.5t-70.5 -68.5q-22 -12 -49 -18t-72 -6h-308v696h292z" />
    <glyph glyph-name="C" unicode="C" 
d="M657 263q1 -131 -75 -204.5t-209 -73.5q-79 0 -145.5 36t-105.5 102t-39 152v146q0 85 37.5 151t103 102.5t146.5 36.5q133 0 208.5 -72.5t76.5 -204.5h-180q-1 51 -27.5 79t-77.5 28q-46 0 -76 -29t-30 -82v-163q0 -53 31.5 -82.5t77.5 -29.5q105 0 105 108h179z" />
    <glyph glyph-name="Cacute" unicode="&#x106;" 
d="M657 263q1 -131 -75 -204.5t-209 -73.5q-79 0 -145.5 36t-105.5 102t-39 152v146q0 85 37.5 151t103 102.5t146.5 36.5q133 0 208.5 -72.5t76.5 -204.5h-180q-1 51 -27.5 79t-77.5 28q-46 0 -76 -29t-30 -82v-163q0 -53 31.5 -82.5t77.5 -29.5q105 0 105 108h179z
M440 912l35 -45l-173 -126l-19 25z" />
    <glyph glyph-name="Ccaron" unicode="&#x10c;" 
d="M657 263q1 -131 -75 -204.5t-209 -73.5q-79 0 -145.5 36t-105.5 102t-39 152v146q0 85 37.5 151t103 102.5t146.5 36.5q133 0 208.5 -72.5t76.5 -204.5h-180q-1 51 -27.5 79t-77.5 28q-46 0 -76 -29t-30 -82v-163q0 -53 31.5 -82.5t77.5 -29.5q105 0 105 108h179z
M225 896l148 -148l148 148l-26 26l-122 -122l-122 122z" />
    <glyph glyph-name="Ccedilla" unicode="&#xc7;" 
d="M597.5 74.5q-60.5 -71.5 -169.5 -85.5l-80 -162l-33 17l71 141h-13q-79 0 -145.5 36t-105.5 102t-39 152v146q0 85 37.5 151t103 102.5t146.5 36.5q133 0 208.5 -72.5t76.5 -204.5h-180q-1 51 -27.5 79t-77.5 28q-46 0 -76 -29t-30 -82v-163q0 -53 31.5 -82.5t77.5 -29.5
q105 0 105 108h179q1 -117 -59.5 -188.5z" />
    <glyph glyph-name="Ccircumflex" unicode="&#x108;" 
d="M657 263q1 -131 -75 -204.5t-209 -73.5q-79 0 -145.5 36t-105.5 102t-39 152v146q0 85 37.5 151t103 102.5t146.5 36.5q133 0 208.5 -72.5t76.5 -204.5h-180q-1 51 -27.5 79t-77.5 28q-46 0 -76 -29t-30 -82v-163q0 -53 31.5 -82.5t77.5 -29.5q105 0 105 108h179z
M225 774l148 148l148 -148l-26 -26l-122 122l-122 -122z" />
    <glyph glyph-name="Cdotaccent" unicode="&#x10a;" 
d="M657 263q1 -131 -75 -204.5t-209 -73.5q-79 0 -145.5 36t-105.5 102t-39 152v146q0 85 37.5 151t103 102.5t146.5 36.5q133 0 208.5 -72.5t76.5 -204.5h-180q-1 51 -27.5 79t-77.5 28q-46 0 -76 -29t-30 -82v-163q0 -53 31.5 -82.5t77.5 -29.5q105 0 105 108h179z
M315.5 791.5q-23.5 23.5 -23.5 57.5t23.5 58t57.5 24t58 -24t24 -58t-24 -57.5t-58 -23.5t-57.5 23.5zM339.5 816q13.5 -14 33.5 -14q19 0 33 14t14 33q0 20 -13.5 34t-33.5 14t-33.5 -14t-13.5 -34q0 -19 13.5 -33z" />
    <glyph glyph-name="D" unicode="D" 
d="M120 0v696h259q76 0 140.5 -38t102.5 -102.5t38 -140.5v-134q0 -76 -38 -140.5t-102.5 -102.5t-140.5 -38h-259z" />
    <glyph glyph-name="uni01C4" unicode="&#x1c4;" horiz-adv-x="1480" 
d="M1116 800l122 122l26 -26l-148 -148l-148 148l26 26zM379 696q76 0 140.5 -38t102.5 -102.5t38 -140.5v-134q0 -76 -38 -140.5t-102.5 -102.5t-140.5 -38h-259v696h259zM1369 0h-517v37l469 622h-458v37h506v-696zM1332 612l-434 -575h434v575z" />
    <glyph glyph-name="Eth" unicode="&#xd0;" 
d="M519.5 658q64.5 -38 102.5 -102.5t38 -140.5v-134q0 -76 -38 -140.5t-102.5 -102.5t-140.5 -38h-259v330h-100v36h100v330h259q76 0 140.5 -38z" />
    <glyph glyph-name="Dcaron" unicode="&#x10e;" 
d="M120 0v696h259q76 0 140.5 -38t102.5 -102.5t38 -140.5v-134q0 -76 -38 -140.5t-102.5 -102.5t-140.5 -38h-259zM225 896l148 -148l148 148l-26 26l-122 -122l-122 122z" />
    <glyph glyph-name="Dcroat" unicode="&#x110;" 
d="M120 0v696h259q76 0 140.5 -38t102.5 -102.5t38 -140.5v-134q0 -76 -38 -140.5t-102.5 -102.5t-140.5 -38h-259z" />
    <glyph glyph-name="uni01C5" unicode="&#x1c5;" horiz-adv-x="1480" 
d="M1116 800l122 122l26 -26l-148 -148l-148 148l26 26zM379 696q76 0 140.5 -38t102.5 -102.5t38 -140.5v-134q0 -76 -38 -140.5t-102.5 -102.5t-140.5 -38h-259v696h259zM1368 659l-470 -622h471v-37h-517v37l469 622h-458v37h506z" />
    <glyph glyph-name="E" unicode="E" 
d="M120 696h507v-176h-325v-88h270v-167h-270v-89h325v-176h-507v696z" />
    <glyph glyph-name="Eacute" unicode="&#xc9;" 
d="M120 696h507v-176h-325v-88h270v-167h-270v-89h325v-176h-507v696zM437 912l35 -45l-173 -126l-19 25z" />
    <glyph glyph-name="Ebreve" unicode="&#x114;" 
d="M120 696h507v-176h-325v-88h270v-167h-270v-89h325v-176h-507v696zM524 876q-20 -45 -62 -72t-92 -27t-92 27t-62 72l33 16q16 -36 49 -57t72 -21t71.5 21t49.5 56z" />
    <glyph glyph-name="Ecaron" unicode="&#x11a;" 
d="M120 696h507v-176h-325v-88h270v-167h-270v-89h325v-176h-507v696zM222 896l148 -148l148 148l-26 26l-122 -122l-122 122z" />
    <glyph glyph-name="Ecircumflex" unicode="&#xca;" 
d="M120 696h507v-176h-325v-88h270v-167h-270v-89h325v-176h-507v696zM222 774l148 148l148 -148l-26 -26l-122 122l-122 -122z" />
    <glyph glyph-name="uni1EBE" unicode="&#x1ebe;" 
d="M472 1069l-173 -126l-19 25l157 146zM518 774l-26 -26l-122 122l-122 -122l-26 26l148 148zM572 265h-270v-89h325v-176h-507v696h507v-176h-325v-88h270v-167z" />
    <glyph glyph-name="uni1EC6" unicode="&#x1ec6;" 
d="M222 774l148 148l148 -148l-26 -26l-122 122l-122 -122zM120 696h507v-176h-325v-88h270v-167h-270v-89h325v-176h-507v696zM311.5 -193.5q-23.5 23.5 -23.5 57.5t23.5 58t57.5 24t58 -24t24 -58t-24 -57.5t-58 -23.5t-57.5 23.5zM336 -169.5q14 -13.5 33 -13.5
q20 0 33.5 13.5t13.5 33.5t-13.5 34t-33.5 14t-33.5 -14t-13.5 -34t14 -33.5z" />
    <glyph glyph-name="uni1EC0" unicode="&#x1ec0;" 
d="M441 943l-173 126l35 45l157 -146zM370 870l-122 -122l-26 26l148 148l148 -148l-26 -26zM572 265h-270v-89h325v-176h-507v696h507v-176h-325v-88h270v-167z" />
    <glyph glyph-name="uni1EC2" unicode="&#x1ec2;" 
d="M358 1006q19 1 31.5 12t12.5 28t-13 28.5t-37 11.5h-20v34h20q39 0 62 -20.5t23 -52.5q0 -31 -21.5 -52.5t-51.5 -22.5v-25h-32v59h26zM370 870l-122 -122l-26 26l148 148l148 -148l-26 -26zM627 0h-507v696h507v-176h-325v-88h270v-167h-270v-89h325v-176z" />
    <glyph glyph-name="uni1EC4" unicode="&#x1ec4;" 
d="M438 982q-42 0 -83 28q-28 20 -57 20q-41 0 -74 -41l-29 24q45 54 103 54q38 0 78 -26q32 -22 62 -22q42 0 74 40l29 -24q-44 -53 -103 -53zM518 774l-26 -26l-122 122l-122 -122l-26 26l148 148zM627 520h-325v-88h270v-167h-270v-89h325v-176h-507v696h507v-176z" />
    <glyph glyph-name="uni0204" unicode="&#x204;" 
d="M220 916l-45 -35l125 -147l25 19zM440 916l-45 -35l125 -147l24 19zM120 696h507v-176h-325v-88h270v-167h-270v-89h325v-176h-507v696z" />
    <glyph glyph-name="Edieresis" unicode="&#xcb;" 
d="M120 696h507v-176h-325v-88h270v-167h-270v-89h325v-176h-507v696zM316 907q24 -24 24 -58t-24 -57.5t-58 -23.5t-57.5 23.5t-23.5 57.5t23.5 58t57.5 24t58 -24zM422.5 791.5q-23.5 23.5 -23.5 57.5t23.5 58t57.5 24t58 -24t24 -58t-24 -57.5t-58 -23.5t-57.5 23.5z
M291.5 816q13.5 14 13.5 33q0 20 -13.5 34t-33.5 14t-33.5 -14t-13.5 -34q0 -19 14 -33t33 -14q20 0 33.5 14zM446.5 883q-13.5 -14 -13.5 -34q0 -19 14 -33t33 -14q20 0 33.5 14t13.5 33q0 20 -13.5 34t-33.5 14t-33.5 -14z" />
    <glyph glyph-name="Edotaccent" unicode="&#x116;" 
d="M120 696h507v-176h-325v-88h270v-167h-270v-89h325v-176h-507v696zM312.5 791.5q-23.5 23.5 -23.5 57.5t23.5 58t57.5 24t58 -24t24 -58t-24 -57.5t-58 -23.5t-57.5 23.5zM336.5 816q13.5 -14 33.5 -14q19 0 33 14t14 33q0 20 -13.5 34t-33.5 14t-33.5 -14t-13.5 -34
q0 -19 13.5 -33z" />
    <glyph glyph-name="uni1EB8" unicode="&#x1eb8;" 
d="M120 696h507v-176h-325v-88h270v-167h-270v-89h325v-176h-507v696zM311.5 -193.5q-23.5 23.5 -23.5 57.5t23.5 58t57.5 24t58 -24t24 -58t-24 -57.5t-58 -23.5t-57.5 23.5zM336 -169.5q14 -13.5 33 -13.5q20 0 33.5 13.5t13.5 33.5t-13.5 34t-33.5 14t-33.5 -14
t-13.5 -34t14 -33.5z" />
    <glyph glyph-name="Egrave" unicode="&#xc8;" 
d="M120 696h507v-176h-325v-88h270v-167h-270v-89h325v-176h-507v696zM303 912l-35 -45l173 -126l19 25z" />
    <glyph glyph-name="uni1EBA" unicode="&#x1eba;" 
d="M388.5 872.5q-13.5 11.5 -36.5 11.5h-20v34h20q39 0 62 -20.5t23 -52.5q0 -31 -21.5 -52.5t-51.5 -22.5v-25h-32v59h26q19 0 31.5 11.5t12.5 28.5t-13.5 28.5zM120 696h507v-176h-325v-88h270v-167h-270v-89h325v-176h-507v696z" />
    <glyph glyph-name="uni0206" unicode="&#x206;" 
d="M120 696h507v-176h-325v-88h270v-167h-270v-89h325v-176h-507v696zM249 777q17 35 49.5 56.5t71.5 21.5t71.5 -21.5t49.5 -56.5l33 16q-20 45 -62 72t-92 27t-92 -27t-62 -72z" />
    <glyph glyph-name="Emacron" unicode="&#x112;" 
d="M120 696h507v-176h-325v-88h270v-167h-270v-89h325v-176h-507v696zM518 827v-37h-296v37h296z" />
    <glyph glyph-name="Eogonek" unicode="&#x118;" 
d="M302 520v-88h270v-167h-270v-89h325v-176q-39 0 -66.5 -27t-27.5 -65q0 -37 26.5 -62.5t67.5 -25.5v-37q-55 0 -93 36t-38 88q0 56 45 93h-421v696h507v-176h-325z" />
    <glyph glyph-name="uni1EBC" unicode="&#x1ebc;" 
d="M120 696h507v-176h-325v-88h270v-167h-270v-89h325v-176h-507v696zM541 833q-44 -53 -103 -53q-42 0 -83 28q-29 21 -57 21q-40 0 -74 -42l-29 24q45 54 103 54q38 0 78 -26q32 -22 63 -22q41 0 73 40z" />
    <glyph glyph-name="F" unicode="F" 
d="M646 696v-37h-479v-223h384v-176h-384v-260h-37v696h516z" />
    <glyph glyph-name="G" unicode="G" 
d="M240.5 640.5q-57.5 -33.5 -91.5 -91t-34 -125.5v-132q0 -71 20 -117q28 -65 85 -106t128 -46v325h305v-66q0 -64 -19 -114q-31 -83 -104 -133t-165 -50q-87 0 -158.5 47.5t-104.5 126.5q-24 56 -24 133v132q0 78 38.5 144t104.5 104.5t144 38.5q65 0 119 -21.5t92 -62.5
q31 -34 50.5 -76t19.5 -85h-36q-1 37 -18.5 73t-44.5 65q-67 70 -182 70q-67 0 -124.5 -33.5zM616 312h-232v-289q72 5 129.5 45.5t84.5 107.5q18 47 18 106v30z" />
    <glyph glyph-name="Gbreve" unicode="&#x11e;" 
d="M240.5 640.5q-57.5 -33.5 -91.5 -91t-34 -125.5v-132q0 -71 20 -117q28 -65 85 -106t128 -46v325h305v-66q0 -64 -19 -114q-31 -83 -104 -133t-165 -50q-87 0 -158.5 47.5t-104.5 126.5q-24 56 -24 133v132q0 78 38.5 144t104.5 104.5t144 38.5q65 0 119 -21.5t92 -62.5
q31 -34 50.5 -76t19.5 -85h-36q-1 37 -18.5 73t-44.5 65q-67 70 -182 70q-67 0 -124.5 -33.5zM616 312h-232v-289q72 5 129.5 45.5t84.5 107.5q18 47 18 106v30zM521 876q-20 -45 -62 -72t-92 -27t-92 27t-62 72l33 16q16 -36 49 -57t72 -21t71.5 21t49.5 56z" />
    <glyph glyph-name="Gcaron" unicode="&#x1e6;" 
d="M240.5 640.5q-57.5 -33.5 -91.5 -91t-34 -125.5v-132q0 -71 20 -117q28 -65 85 -106t128 -46v325h305v-66q0 -64 -19 -114q-31 -83 -104 -133t-165 -50q-87 0 -158.5 47.5t-104.5 126.5q-24 56 -24 133v132q0 78 38.5 144t104.5 104.5t144 38.5q65 0 119 -21.5t92 -62.5
q31 -34 50.5 -76t19.5 -85h-36q-1 37 -18.5 73t-44.5 65q-67 70 -182 70q-67 0 -124.5 -33.5zM616 312h-232v-289q72 5 129.5 45.5t84.5 107.5q18 47 18 106v30zM219 896l148 -148l148 148l-26 26l-122 -122l-122 122z" />
    <glyph glyph-name="Gcircumflex" unicode="&#x11c;" 
d="M240.5 640.5q-57.5 -33.5 -91.5 -91t-34 -125.5v-132q0 -71 20 -117q28 -65 85 -106t128 -46v325h305v-66q0 -64 -19 -114q-31 -83 -104 -133t-165 -50q-87 0 -158.5 47.5t-104.5 126.5q-24 56 -24 133v132q0 78 38.5 144t104.5 104.5t144 38.5q65 0 119 -21.5t92 -62.5
q31 -34 50.5 -76t19.5 -85h-36q-1 37 -18.5 73t-44.5 65q-67 70 -182 70q-67 0 -124.5 -33.5zM616 312h-232v-289q72 5 129.5 45.5t84.5 107.5q18 47 18 106v30zM219 774l148 148l148 -148l-26 -26l-122 122l-122 -122z" />
    <glyph glyph-name="uni0122" unicode="&#x122;" 
d="M240.5 640.5q-57.5 -33.5 -91.5 -91t-34 -125.5v-132q0 -71 20 -117q28 -65 85 -106t128 -46v325h305v-66q0 -64 -19 -114q-31 -83 -104 -133t-165 -50q-87 0 -158.5 47.5t-104.5 126.5q-24 56 -24 133v132q0 78 38.5 144t104.5 104.5t144 38.5q65 0 119 -21.5t92 -62.5
q31 -34 50.5 -76t19.5 -85h-36q-1 37 -18.5 73t-44.5 65q-67 70 -182 70q-67 0 -124.5 -33.5zM616 312h-232v-289q72 5 129.5 45.5t84.5 107.5q18 47 18 106v30zM338 -223l27 47q-25 1 -43 19.5t-18 43.5q0 26 18.5 44.5t44.5 18.5t44.5 -18.5t18.5 -44.5q0 -15 -14 -41
l-40 -69h-38z" />
    <glyph glyph-name="Gdotaccent" unicode="&#x120;" 
d="M240.5 640.5q-57.5 -33.5 -91.5 -91t-34 -125.5v-132q0 -71 20 -117q28 -65 85 -106t128 -46v325h305v-66q0 -64 -19 -114q-31 -83 -104 -133t-165 -50q-87 0 -158.5 47.5t-104.5 126.5q-24 56 -24 133v132q0 78 38.5 144t104.5 104.5t144 38.5q65 0 119 -21.5t92 -62.5
q31 -34 50.5 -76t19.5 -85h-36q-1 37 -18.5 73t-44.5 65q-67 70 -182 70q-67 0 -124.5 -33.5zM616 312h-232v-289q72 5 129.5 45.5t84.5 107.5q18 47 18 106v30zM309.5 791.5q-23.5 23.5 -23.5 57.5t23.5 58t57.5 24t58 -24t24 -58t-24 -57.5t-58 -23.5t-57.5 23.5z
M333.5 816q13.5 -14 33.5 -14q19 0 33 14t14 33q0 20 -13.5 34t-33.5 14t-33.5 -14t-13.5 -34q0 -19 13.5 -33z" />
    <glyph glyph-name="H" unicode="H" 
d="M102 0v696h37v-197q103 0 195 -39.5t161 -110t106 -161.5v508h37v-696h-37q0 125 -62 231.5t-168.5 168.5t-231.5 62v-462h-37z" />
    <glyph glyph-name="Hbar" unicode="&#x126;" 
d="M638 696v-696h-37q0 125 -62 231.5t-168.5 168.5t-231.5 62v-462h-37v696h37v-114h462v114h37zM334 459.5q92 -39.5 161 -110t106 -161.5v357h-462v-46q103 0 195 -39.5z" />
    <glyph glyph-name="Hcircumflex" unicode="&#x124;" 
d="M102 0v696h37v-197q103 0 195 -39.5t161 -110t106 -161.5v508h37v-696h-37q0 125 -62 231.5t-168.5 168.5t-231.5 62v-462h-37zM222 774l148 148l148 -148l-26 -26l-122 122l-122 -122z" />
    <glyph glyph-name="I" unicode="I" 
d="M145 520v176h450v-176h-207v-344h207v-176h-450v176h207v344h-207z" />
    <glyph glyph-name="Iacute" unicode="&#xcd;" 
d="M145 520v176h450v-176h-207v-344h207v-176h-450v176h207v344h-207zM438 912l35 -45l-173 -126l-19 25z" />
    <glyph glyph-name="Ibreve" unicode="&#x12c;" 
d="M145 520v176h450v-176h-207v-344h207v-176h-450v176h207v344h-207zM525 876q-20 -45 -62 -72t-92 -27t-92 27t-62 72l33 16q16 -36 49 -57t72 -21t71.5 21t49.5 56z" />
    <glyph glyph-name="Icircumflex" unicode="&#xce;" 
d="M145 520v176h450v-176h-207v-344h207v-176h-450v176h207v344h-207zM222 774l148 148l148 -148l-26 -26l-122 122l-122 -122z" />
    <glyph glyph-name="uni0208" unicode="&#x208;" 
d="M220 916l-45 -35l125 -147l25 19zM440 916l-45 -35l125 -147l25 19zM145 520v176h450v-176h-207v-344h207v-176h-450v176h207v344h-207z" />
    <glyph glyph-name="Idieresis" unicode="&#xcf;" 
d="M145 520v176h450v-176h-207v-344h207v-176h-450v176h207v344h-207zM316 907q24 -24 24 -58t-24 -57.5t-58 -23.5t-57.5 23.5t-23.5 57.5t23.5 58t57.5 24t58 -24zM422.5 791.5q-23.5 23.5 -23.5 57.5t23.5 58t57.5 24t58 -24t24 -58t-24 -57.5t-58 -23.5t-57.5 23.5z
M291.5 816q13.5 14 13.5 33q0 20 -13.5 34t-33.5 14t-33.5 -14t-13.5 -34q0 -19 14 -33t33 -14q20 0 33.5 14zM446.5 883q-13.5 -14 -13.5 -34q0 -19 14 -33t33 -14q20 0 33.5 14t13.5 33q0 20 -13.5 34t-33.5 14t-33.5 -14z" />
    <glyph glyph-name="Idotaccent" unicode="&#x130;" 
d="M145 520v176h450v-176h-207v-344h207v-176h-450v176h207v344h-207zM313.5 791.5q-23.5 23.5 -23.5 57.5t23.5 58t57.5 24t58 -24t24 -58t-24 -57.5t-58 -23.5t-57.5 23.5zM337.5 816q13.5 -14 33.5 -14q19 0 33 14t14 33q0 20 -13.5 34t-33.5 14t-33.5 -14t-13.5 -34
q0 -19 13.5 -33z" />
    <glyph glyph-name="uni1ECA" unicode="&#x1eca;" 
d="M145 520v176h450v-176h-207v-344h207v-176h-450v176h207v344h-207zM312.5 -193.5q-23.5 23.5 -23.5 57.5t23.5 58t57.5 24t58 -24t24 -58t-24 -57.5t-58 -23.5t-57.5 23.5zM337 -169.5q14 -13.5 33 -13.5q20 0 33.5 13.5t13.5 33.5t-13.5 34t-33.5 14t-33.5 -14
t-13.5 -34t14 -33.5z" />
    <glyph glyph-name="Igrave" unicode="&#xcc;" 
d="M145 520v176h450v-176h-207v-344h207v-176h-450v176h207v344h-207zM304 912l-35 -45l173 -126l19 25z" />
    <glyph glyph-name="uni1EC8" unicode="&#x1ec8;" 
d="M389 872.5q-13 11.5 -37 11.5h-20v34h20q39 0 62 -20.5t23 -52.5q0 -31 -21 -52.5t-52 -22.5v-25h-32v59h26q19 0 31.5 11.5t12.5 28.5t-13 28.5zM145 520v176h450v-176h-207v-344h207v-176h-450v176h207v344h-207z" />
    <glyph glyph-name="uni020A" unicode="&#x20a;" 
d="M524 793q-20 45 -62 72t-92 27t-92 -27t-62 -72l33 -16q17 35 49.5 56.5t71.5 21.5t71.5 -21.5t49.5 -56.5zM145 520v176h450v-176h-207v-344h207v-176h-450v176h207v344h-207z" />
    <glyph glyph-name="Imacron" unicode="&#x12a;" 
d="M145 520v176h450v-176h-207v-344h207v-176h-450v176h207v344h-207zM519 827v-37h-296v37h296z" />
    <glyph glyph-name="Iogonek" unicode="&#x12e;" 
d="M388 520v-344h207v-176q-39 0 -66.5 -27t-27.5 -65q0 -37 26.5 -62.5t67.5 -25.5v-37q-55 0 -93 36t-38 88q0 56 45 93h-364v176h207v344h-207v176h450v-176h-207z" />
    <glyph glyph-name="Itilde" unicode="&#x128;" 
d="M145 520v176h450v-176h-207v-344h207v-176h-450v176h207v344h-207zM542 833q-44 -53 -103 -53q-42 0 -83 28q-29 21 -57 21q-40 0 -74 -42l-29 24q45 54 103 54q38 0 78 -26q32 -22 63 -22q41 0 73 40z" />
    <glyph glyph-name="J" unicode="J" 
d="M460 520h-196v176h378v-413q0 -93 -37 -160.5t-101.5 -102.5t-143.5 -35q-76 0 -140.5 38t-102.5 102.5t-38 140.5h182q0 -46 26.5 -77t71.5 -31q48 0 74.5 30.5t26.5 89.5v242z" />
    <glyph glyph-name="Jcircumflex" unicode="&#x134;" 
d="M460 520h-196v176h378v-413q0 -93 -37 -160.5t-101.5 -102.5t-143.5 -35q-76 0 -140.5 38t-102.5 102.5t-38 140.5h182q0 -46 26.5 -77t71.5 -31q48 0 74.5 30.5t26.5 89.5v242zM308 774l148 148l148 -148l-26 -26l-122 122l-122 -122z" />
    <glyph glyph-name="K" unicode="K" 
d="M380 406l290 -406h-560v696h560zM354 380l-207 -207v-136h452z" />
    <glyph glyph-name="uni0136" unicode="&#x136;" 
d="M380 406l290 -406h-560v696h560zM354 380l-207 -207v-136h452zM342 -223l27 47q-25 1 -43 19.5t-18 43.5q0 26 18.5 44.5t44.5 18.5t44.5 -18.5t18.5 -44.5q0 -15 -14 -41l-40 -69h-38z" />
    <glyph glyph-name="L" unicode="L" 
d="M674 177v-177h-530v696h37v-519h493z" />
    <glyph glyph-name="uni01C7" unicode="&#x1c7;" horiz-adv-x="1480" 
d="M674 177v-177h-530v696h37v-519h493zM1200 520h-196v176h378v-413q0 -93 -37 -160.5t-101.5 -102.5t-143.5 -35q-76 0 -140.5 38t-102.5 102.5t-38 140.5h182q0 -46 26.5 -77t71.5 -31q48 0 74.5 30.5t26.5 89.5v242z" />
    <glyph glyph-name="Lacute" unicode="&#x139;" 
d="M674 177v-177h-530v696h37v-519h493zM234 912l35 -45l-173 -126l-19 25z" />
    <glyph glyph-name="Lcaron" unicode="&#x13d;" 
d="M674 177v-177h-530v696h37v-519h493zM566 696l37 -7l-48 -211l-38 7z" />
    <glyph glyph-name="uni013B" unicode="&#x13b;" 
d="M674 177v-177h-530v696h37v-519h493zM387 -223l27 47q-25 1 -43 19.5t-18 43.5q0 26 18.5 44.5t44.5 18.5t44.5 -18.5t18.5 -44.5q0 -15 -14 -41l-40 -69h-38z" />
    <glyph glyph-name="Ldot" unicode="&#x13f;" 
d="M674 177v-177h-530v696h37v-519h493zM485.5 456.5q26.5 26.5 64.5 26.5t64.5 -26.5t26.5 -63.5t-26.5 -64t-64.5 -27q-37 0 -64 27t-27 64t26.5 63.5z" />
    <glyph glyph-name="uni01C8" unicode="&#x1c8;" horiz-adv-x="1480" 
d="M674 177v-177h-530v696h37v-519h493zM1379 276q0 -82 -37.5 -148.5t-102 -104.5t-141.5 -38q-71 0 -132 32.5t-100 89.5t-46 126h37q7 -59 41 -107.5t86.5 -76t113.5 -27.5q67 0 123 33t89 91t33 130v383h-312v37h348v-420z" />
    <glyph glyph-name="Lslash" unicode="&#x141;" 
d="M674 177v-177h-530v322l-102 -62l-19 31l121 73v332h37v-309l162 98l19 -31l-181 -110v-167h493z" />
    <glyph glyph-name="M" unicode="M" 
d="M89 697h40l243 -430l242 430h37v-696h-562v696zM126 37h488v585l-225 -396h-35l-228 402v-591z" />
    <glyph glyph-name="N" unicode="N" 
d="M99 1v696h39l486 -473v473h37v-696h-562z" />
    <glyph glyph-name="uni01CA" unicode="&#x1ca;" horiz-adv-x="1480" 
d="M99 1v696h39l486 -473v473h37v-696h-562zM1200 520h-196v176h378v-413q0 -93 -37 -160.5t-101.5 -102.5t-143.5 -35q-76 0 -140.5 38t-102.5 102.5t-38 140.5h182q0 -46 26.5 -77t71.5 -31q48 0 74.5 30.5t26.5 89.5v242z" />
    <glyph glyph-name="Nacute" unicode="&#x143;" 
d="M99 1v696h39l486 -473v473h37v-696h-562zM449 912l35 -45l-173 -126l-19 25z" />
    <glyph glyph-name="Ncaron" unicode="&#x147;" 
d="M99 1v696h39l486 -473v473h37v-696h-562zM234 896l148 -148l148 148l-26 26l-122 -122l-122 122z" />
    <glyph glyph-name="uni0145" unicode="&#x145;" 
d="M99 1v696h39l486 -473v473h37v-696h-562zM353 -223l27 47q-25 1 -43 19.5t-18 43.5q0 26 18.5 44.5t44.5 18.5t44.5 -18.5t18.5 -44.5q0 -15 -14 -41l-40 -69h-38z" />
    <glyph glyph-name="Eng" unicode="&#x14a;" 
d="M661 697v-702q0 -57 -34 -91.5t-87 -34.5l1 35q39 0 61 24t22 67v6h-525v696h39l486 -473v473h37z" />
    <glyph glyph-name="uni01CB" unicode="&#x1cb;" horiz-adv-x="1480" 
d="M99 1v696h39l486 -473v473h37v-696h-562zM1379 276q0 -82 -37.5 -148.5t-102 -104.5t-141.5 -38q-71 0 -132 32.5t-100 89.5t-46 126h37q7 -59 41 -107.5t86.5 -76t113.5 -27.5q67 0 123 33t89 91t33 130v383h-312v37h348v-420z" />
    <glyph glyph-name="Ntilde" unicode="&#xd1;" 
d="M99 1v696h39l486 -473v473h37v-696h-562zM553 833q-44 -53 -103 -53q-42 0 -83 28q-29 21 -57 21q-40 0 -74 -42l-29 24q45 54 103 54q38 0 78 -26q32 -22 63 -22q41 0 73 40z" />
    <glyph glyph-name="O" unicode="O" 
d="M119 570q39 67 105.5 106t145.5 39t145.5 -39t105.5 -106t39 -145v-154q0 -78 -39 -145t-105.5 -106t-145.5 -39t-145.5 39t-105.5 106t-39 145v154q0 78 39 145zM292 189q30 -34 78 -34q47 0 77 34t30 82v155q0 49 -30 82t-77 33q-48 0 -78 -33t-30 -82v-155
q0 -48 30 -82z" />
    <glyph glyph-name="Oacute" unicode="&#xd3;" 
d="M119 570q39 67 105.5 106t145.5 39t145.5 -39t105.5 -106t39 -145v-154q0 -78 -39 -145t-105.5 -106t-145.5 -39t-145.5 39t-105.5 106t-39 145v154q0 78 39 145zM292 189q30 -34 78 -34q47 0 77 34t30 82v155q0 49 -30 82t-77 33q-48 0 -78 -33t-30 -82v-155
q0 -48 30 -82zM437 912l35 -45l-173 -126l-19 25z" />
    <glyph glyph-name="Obreve" unicode="&#x14e;" 
d="M524 876q-20 -45 -62 -72t-92 -27t-92 27t-62 72l33 16q16 -36 49 -57t72 -21t72 21t49 57zM660 271q0 -78 -39 -145t-105.5 -106t-145.5 -39t-145.5 39t-105.5 106t-39 145v154q0 78 39 145t105.5 106t145.5 39t145.5 -39t105.5 -106t39 -145v-154zM292 508
q-30 -33 -30 -82v-155q0 -48 30 -82t78 -34q47 0 77 34t30 82v155q0 49 -30 82t-77 33q-48 0 -78 -33z" />
    <glyph glyph-name="Ocircumflex" unicode="&#xd4;" 
d="M119 570q39 67 105.5 106t145.5 39t145.5 -39t105.5 -106t39 -145v-154q0 -78 -39 -145t-105.5 -106t-145.5 -39t-145.5 39t-105.5 106t-39 145v154q0 78 39 145zM292 189q30 -34 78 -34q47 0 77 34t30 82v155q0 49 -30 82t-77 33q-48 0 -78 -33t-30 -82v-155
q0 -48 30 -82zM222 774l148 148l148 -148l-26 -26l-122 122l-122 -122z" />
    <glyph glyph-name="uni1ED0" unicode="&#x1ed0;" 
d="M119 570q39 67 105.5 106t145.5 39t145.5 -39t105.5 -106t39 -145v-154q0 -78 -39 -145t-105.5 -106t-145.5 -39t-145.5 39t-105.5 106t-39 145v154q0 78 39 145zM292 189q30 -34 78 -34q47 0 77 34t30 82v155q0 49 -30 82t-77 33q-48 0 -78 -33t-30 -82v-155
q0 -48 30 -82zM222 774l148 148l148 -148l-26 -26l-122 122l-122 -122zM437 1146l35 -45l-173 -126l-19 25z" />
    <glyph glyph-name="uni1ED8" unicode="&#x1ed8;" 
d="M222 774l148 148l148 -148l-26 -26l-122 122l-122 -122zM119 570q39 67 105.5 106t145.5 39t145.5 -39t105.5 -106t39 -145v-154q0 -78 -39 -145t-105.5 -106t-145.5 -39t-145.5 39t-105.5 106t-39 145v154q0 78 39 145zM292 189q30 -34 78 -34q47 0 77 34t30 82v155
q0 49 -30 82t-77 33q-48 0 -78 -33t-30 -82v-155q0 -48 30 -82zM312.5 -193.5q-23.5 23.5 -23.5 57.5t23.5 58t57.5 24t58 -24t24 -58t-24 -57.5t-58 -23.5t-57.5 23.5zM337 -169.5q14 -13.5 33 -13.5q20 0 33.5 13.5t13.5 33.5t-13.5 34t-33.5 14t-33.5 -14t-13.5 -34
t14 -33.5z" />
    <glyph glyph-name="uni1ED2" unicode="&#x1ed2;" 
d="M119 570q39 67 105.5 106t145.5 39t145.5 -39t105.5 -106t39 -145v-154q0 -78 -39 -145t-105.5 -106t-145.5 -39t-145.5 39t-105.5 106t-39 145v154q0 78 39 145zM292 189q30 -34 78 -34q47 0 77 34t30 82v155q0 49 -30 82t-77 33q-48 0 -78 -33t-30 -82v-155
q0 -48 30 -82zM222 774l148 148l148 -148l-26 -26l-122 122l-122 -122zM303 1146l-35 -45l173 -126l19 25z" />
    <glyph glyph-name="uni1ED4" unicode="&#x1ed4;" 
d="M389 1074.5q-13 11.5 -37 11.5h-20v34h20q39 0 62 -20.5t23 -52.5q0 -31 -21 -52.5t-52 -22.5v-25h-32v59h26q19 0 31.5 11.5t12.5 28.5t-13 28.5zM222 774l148 148l148 -148l-26 -26l-122 122l-122 -122zM119 570q39 67 105.5 106t145.5 39t145.5 -39t105.5 -106
t39 -145v-154q0 -78 -39 -145t-105.5 -106t-145.5 -39t-145.5 39t-105.5 106t-39 145v154q0 78 39 145zM292 189q30 -34 78 -34q47 0 77 34t30 82v155q0 49 -30 82t-77 33q-48 0 -78 -33t-30 -82v-155q0 -48 30 -82z" />
    <glyph glyph-name="uni1ED6" unicode="&#x1ed6;" 
d="M119 570q39 67 105.5 106t145.5 39t145.5 -39t105.5 -106t39 -145v-154q0 -78 -39 -145t-105.5 -106t-145.5 -39t-145.5 39t-105.5 106t-39 145v154q0 78 39 145zM292 189q30 -34 78 -34q47 0 77 34t30 82v155q0 49 -30 82t-77 33q-48 0 -78 -33t-30 -82v-155
q0 -48 30 -82zM222 774l148 148l148 -148l-26 -26l-122 122l-122 -122zM541 1067q-44 -53 -103 -53q-42 0 -83 28q-29 21 -57 21q-40 0 -74 -42l-29 24q45 54 103 54q38 0 78 -26q32 -22 63 -22q41 0 73 40z" />
    <glyph glyph-name="uni020C" unicode="&#x20c;" 
d="M119 570q39 67 105.5 106t145.5 39t145.5 -39t105.5 -106t39 -145v-154q0 -78 -39 -145t-105.5 -106t-145.5 -39t-145.5 39t-105.5 106t-39 145v154q0 78 39 145zM292 189q30 -34 78 -34q47 0 77 34t30 82v155q0 49 -30 82t-77 33q-48 0 -78 -33t-30 -82v-155
q0 -48 30 -82zM300 734l25 19l-105 163l-45 -35zM520 734l25 19l-105 163l-45 -35z" />
    <glyph glyph-name="Odieresis" unicode="&#xd6;" 
d="M119 570q39 67 105.5 106t145.5 39t145.5 -39t105.5 -106t39 -145v-154q0 -78 -39 -145t-105.5 -106t-145.5 -39t-145.5 39t-105.5 106t-39 145v154q0 78 39 145zM292 189q30 -34 78 -34q47 0 77 34t30 82v155q0 49 -30 82t-77 33q-48 0 -78 -33t-30 -82v-155
q0 -48 30 -82zM316 907q24 -24 24 -58t-24 -57.5t-58 -23.5t-57.5 23.5t-23.5 57.5t23.5 58t57.5 24t58 -24zM422.5 791.5q-23.5 23.5 -23.5 57.5t23.5 58t57.5 24t58 -24t24 -58t-24 -57.5t-58 -23.5t-57.5 23.5zM291.5 816q13.5 14 13.5 33q0 20 -13.5 34t-33.5 14
t-33.5 -14t-13.5 -34q0 -19 14 -33t33 -14q20 0 33.5 14zM446.5 883q-13.5 -14 -13.5 -34q0 -19 14 -33t33 -14q20 0 33.5 14t13.5 33q0 20 -13.5 34t-33.5 14t-33.5 -14z" />
    <glyph glyph-name="uni022A" unicode="&#x22a;" 
d="M119 570q39 67 105.5 106t145.5 39t145.5 -39t105.5 -106t39 -145v-154q0 -78 -39 -145t-105.5 -106t-145.5 -39t-145.5 39t-105.5 106t-39 145v154q0 78 39 145zM292 189q30 -34 78 -34q47 0 77 34t30 82v155q0 49 -30 82t-77 33q-48 0 -78 -33t-30 -82v-155
q0 -48 30 -82zM201.5 791.5q-23.5 23.5 -23.5 57.5t23.5 58t57.5 24t58 -24t24 -58t-24 -57.5t-58 -23.5t-57.5 23.5zM423.5 791.5q-23.5 23.5 -23.5 57.5t23.5 58t57.5 24t58 -24t24 -58t-24 -57.5t-58 -23.5t-57.5 23.5zM225.5 816q13.5 -14 33.5 -14q19 0 33 14t14 33
q0 20 -13.5 34t-33.5 14t-33.5 -14t-13.5 -34q0 -19 13.5 -33zM447.5 816q13.5 -14 33.5 -14q19 0 33 14t14 33q0 20 -13.5 34t-33.5 14t-33.5 -14t-13.5 -34q0 -19 13.5 -33zM518 1061v-37h-296v37h296z" />
    <glyph glyph-name="uni0230" unicode="&#x230;" 
d="M119 570q39 67 105.5 106t145.5 39t145.5 -39t105.5 -106t39 -145v-154q0 -78 -39 -145t-105.5 -106t-145.5 -39t-145.5 39t-105.5 106t-39 145v154q0 78 39 145zM292 189q30 -34 78 -34q47 0 77 34t30 82v155q0 49 -30 82t-77 33q-48 0 -78 -33t-30 -82v-155
q0 -48 30 -82zM312.5 791.5q-23.5 23.5 -23.5 57.5t23.5 58t57.5 24t58 -24t24 -58t-24 -57.5t-58 -23.5t-57.5 23.5zM336.5 816q13.5 -14 33.5 -14q19 0 33 14t14 33q0 20 -13.5 34t-33.5 14t-33.5 -14t-13.5 -34q0 -19 13.5 -33zM518 1061v-37h-296v37h296z" />
    <glyph glyph-name="uni1ECC" unicode="&#x1ecc;" 
d="M119 570q39 67 105.5 106t145.5 39t145.5 -39t105.5 -106t39 -145v-154q0 -78 -39 -145t-105.5 -106t-145.5 -39t-145.5 39t-105.5 106t-39 145v154q0 78 39 145zM292 189q30 -34 78 -34q47 0 77 34t30 82v155q0 49 -30 82t-77 33q-48 0 -78 -33t-30 -82v-155
q0 -48 30 -82zM312.5 -193.5q-23.5 23.5 -23.5 57.5t23.5 58t57.5 24t58 -24t24 -58t-24 -57.5t-58 -23.5t-57.5 23.5zM337 -169.5q14 -13.5 33 -13.5q20 0 33.5 13.5t13.5 33.5t-13.5 34t-33.5 14t-33.5 -14t-13.5 -34t14 -33.5z" />
    <glyph glyph-name="Ograve" unicode="&#xd2;" 
d="M119 570q39 67 105.5 106t145.5 39t145.5 -39t105.5 -106t39 -145v-154q0 -78 -39 -145t-105.5 -106t-145.5 -39t-145.5 39t-105.5 106t-39 145v154q0 78 39 145zM292 189q30 -34 78 -34q47 0 77 34t30 82v155q0 49 -30 82t-77 33q-48 0 -78 -33t-30 -82v-155
q0 -48 30 -82zM303 912l-35 -45l173 -126l19 25z" />
    <glyph glyph-name="uni1ECE" unicode="&#x1ece;" 
d="M389 872.5q-13 11.5 -37 11.5h-20v34h20q39 0 62 -20.5t23 -52.5q0 -31 -21 -52.5t-52 -22.5v-25h-32v59h26q19 0 31.5 11.5t12.5 28.5t-13 28.5zM119 570q39 67 105.5 106t145.5 39t145.5 -39t105.5 -106t39 -145v-154q0 -78 -39 -145t-105.5 -106t-145.5 -39t-145.5 39
t-105.5 106t-39 145v154q0 78 39 145zM292 189q30 -34 78 -34q47 0 77 34t30 82v155q0 49 -30 82t-77 33q-48 0 -78 -33t-30 -82v-155q0 -48 30 -82z" />
    <glyph glyph-name="Ohorn" unicode="&#x1a0;" 
d="M639 686q-27 -36 -73 -48q44 -40 69 -95.5t25 -117.5v-154q0 -78 -39 -145t-105.5 -106t-145.5 -39t-145.5 39t-105.5 106t-39 145v154q0 78 39 145t105.5 106t145.5 39q45 0 87.5 -13.5t77.5 -38.5q43 5 68.5 35t25.5 77v86h37v-86q0 -53 -27 -89zM477 426q0 49 -30 82
t-77 33q-48 0 -78 -33t-30 -82v-155q0 -48 30 -82t78 -34q47 0 77 34t30 82v155z" />
    <glyph glyph-name="uni1EDA" unicode="&#x1eda;" 
d="M299 741l-19 25l157 146l35 -45zM639 686q-27 -36 -73 -48q44 -40 69 -95.5t25 -117.5v-154q0 -78 -39 -145t-105.5 -106t-145.5 -39t-145.5 39t-105.5 106t-39 145v154q0 78 39 145t105.5 106t145.5 39q45 0 87.5 -13.5t77.5 -38.5q43 5 68.5 35t25.5 77v86h37v-86
q0 -53 -27 -89zM477 426q0 49 -30 82t-77 33q-48 0 -78 -33t-30 -82v-155q0 -48 30 -82t78 -34q47 0 77 34t30 82v155z" />
    <glyph glyph-name="uni1EE2" unicode="&#x1ee2;" 
d="M639 686q-27 -36 -73 -48q44 -40 69 -95.5t25 -117.5v-154q0 -78 -39 -145t-105.5 -106t-145.5 -39t-145.5 39t-105.5 106t-39 145v154q0 78 39 145t105.5 106t145.5 39q45 0 87.5 -13.5t77.5 -38.5q43 5 68.5 35t25.5 77v86h37v-86q0 -53 -27 -89zM477 426q0 49 -30 82
t-77 33q-48 0 -78 -33t-30 -82v-155q0 -48 30 -82t78 -34q47 0 77 34t30 82v155zM428 -78q24 -24 24 -58t-24 -57.5t-58 -23.5t-57.5 23.5t-23.5 57.5t23.5 58t57.5 24t58 -24zM403.5 -169.5q13.5 13.5 13.5 33.5t-13.5 34t-33.5 14t-33.5 -14t-13.5 -34t14 -33.5t33 -13.5
q20 0 33.5 13.5z" />
    <glyph glyph-name="uni1EDC" unicode="&#x1edc;" 
d="M441 741l-173 126l35 45l157 -146zM639 686q-27 -36 -73 -48q44 -40 69 -95.5t25 -117.5v-154q0 -78 -39 -145t-105.5 -106t-145.5 -39t-145.5 39t-105.5 106t-39 145v154q0 78 39 145t105.5 106t145.5 39q45 0 87.5 -13.5t77.5 -38.5q43 5 68.5 35t25.5 77v86h37v-86
q0 -53 -27 -89zM477 426q0 49 -30 82t-77 33q-48 0 -78 -33t-30 -82v-155q0 -48 30 -82t78 -34q47 0 77 34t30 82v155z" />
    <glyph glyph-name="uni1EDE" unicode="&#x1ede;" 
d="M364 745h-32v59h26q19 0 31.5 11.5t12.5 28.5t-13 28.5t-37 11.5h-20v34h20q39 0 62 -20.5t23 -52.5q0 -31 -21 -52.5t-52 -22.5v-25zM639 686q-27 -36 -73 -48q44 -40 69 -95.5t25 -117.5v-154q0 -78 -39 -145t-105.5 -106t-145.5 -39t-145.5 39t-105.5 106t-39 145v154
q0 78 39 145t105.5 106t145.5 39q45 0 87.5 -13.5t77.5 -38.5q43 5 68.5 35t25.5 77v86h37v-86q0 -53 -27 -89zM477 426q0 49 -30 82t-77 33q-48 0 -78 -33t-30 -82v-155q0 -48 30 -82t78 -34q47 0 77 34t30 82v155z" />
    <glyph glyph-name="uni1EE0" unicode="&#x1ee0;" 
d="M298 829q-40 0 -74 -42l-29 24q45 54 103 54q38 0 78 -26q32 -22 63 -22q41 0 73 40l29 -24q-44 -53 -103 -53q-42 0 -83 28q-29 21 -57 21zM639 686q-27 -36 -73 -48q44 -40 69 -95.5t25 -117.5v-154q0 -78 -39 -145t-105.5 -106t-145.5 -39t-145.5 39t-105.5 106
t-39 145v154q0 78 39 145t105.5 106t145.5 39q45 0 87.5 -13.5t77.5 -38.5q43 5 68.5 35t25.5 77v86h37v-86q0 -53 -27 -89zM477 426q0 49 -30 82t-77 33q-48 0 -78 -33t-30 -82v-155q0 -48 30 -82t78 -34q47 0 77 34t30 82v155z" />
    <glyph glyph-name="Ohungarumlaut" unicode="&#x150;" 
d="M119 570q39 67 105.5 106t145.5 39t145.5 -39t105.5 -106t39 -145v-154q0 -78 -39 -145t-105.5 -106t-145.5 -39t-145.5 39t-105.5 106t-39 145v154q0 78 39 145zM292 189q30 -34 78 -34q47 0 77 34t30 82v155q0 49 -30 82t-77 33q-48 0 -78 -33t-30 -82v-155
q0 -48 30 -82zM300 916l45 -35l-125 -147l-25 19zM520 916l45 -35l-126 -147l-24 19z" />
    <glyph glyph-name="uni020E" unicode="&#x20e;" 
d="M524 793q-20 45 -62 72t-92 27t-92 -27t-62 -72l33 -16q17 35 49.5 56.5t71.5 21.5t71.5 -21.5t49.5 -56.5zM119 570q39 67 105.5 106t145.5 39t145.5 -39t105.5 -106t39 -145v-154q0 -78 -39 -145t-105.5 -106t-145.5 -39t-145.5 39t-105.5 106t-39 145v154q0 78 39 145
zM292 189q30 -34 78 -34q47 0 77 34t30 82v155q0 49 -30 82t-77 33q-48 0 -78 -33t-30 -82v-155q0 -48 30 -82z" />
    <glyph glyph-name="Omacron" unicode="&#x14c;" 
d="M518 803v-37h-296v37h296zM621 126q-39 -67 -105.5 -106t-145.5 -39t-145.5 39t-105.5 106t-39 145v154q0 78 39 145t105.5 106t145.5 39t145.5 -39t105.5 -106t39 -145v-154q0 -78 -39 -145zM262 271q0 -48 30 -82t78 -34q47 0 77 34t30 82v155q0 49 -30 82t-77 33
q-48 0 -78 -33t-30 -82v-155z" />
    <glyph glyph-name="uni01EA" unicode="&#x1ea;" 
d="M515.5 676q66.5 -39 105.5 -106t39 -145v-154q0 -88 -49 -161t-128 -106q-36 -32 -36 -79q0 -44 32.5 -74.5t81.5 -30.5v-37q-42 0 -76.5 19t-54.5 51.5t-20 70.5q0 35 16 62q-30 -5 -56 -5q-79 0 -145.5 39t-105.5 106t-39 145v154q0 78 39 145t105.5 106t145.5 39
t145.5 -39zM292 189q30 -34 78 -34q47 0 77 34t30 82v155q0 49 -30 82t-77 33q-48 0 -78 -33t-30 -82v-155q0 -48 30 -82z" />
    <glyph glyph-name="Oslash" unicode="&#xd8;" 
d="M638 535q22 -52 22 -110v-154q0 -78 -39 -145t-105.5 -106t-145.5 -39q-99 0 -180 63l-63 -96l-30 20l66 100q-39 41 -61 93t-22 110v154q0 78 39 145t105.5 106t145.5 39q50 0 96 -16t83 -46l64 96l30 -21l-66 -100q39 -41 61 -93zM269 228l182 275q-30 38 -81 38
q-48 0 -78 -33t-30 -82v-155q0 -23 7 -43zM477 426q0 23 -7 41l-181 -274q31 -38 81 -38q47 0 77 34t30 82v155z" />
    <glyph glyph-name="Oslashacute" unicode="&#x1fe;" 
d="M299 741l-19 25l157 146l35 -45zM638 535q22 -52 22 -110v-154q0 -78 -39 -145t-105.5 -106t-145.5 -39q-99 0 -180 63l-63 -96l-30 20l66 100q-39 41 -61 93t-22 110v154q0 78 39 145t105.5 106t145.5 39q50 0 96 -16t83 -46l64 96l30 -21l-66 -100q39 -41 61 -93z
M269 228l182 275q-30 38 -81 38q-48 0 -78 -33t-30 -82v-155q0 -23 7 -43zM477 426q0 23 -7 41l-181 -274q31 -38 81 -38q47 0 77 34t30 82v155z" />
    <glyph glyph-name="Otilde" unicode="&#xd5;" 
d="M119 570q39 67 105.5 106t145.5 39t145.5 -39t105.5 -106t39 -145v-154q0 -78 -39 -145t-105.5 -106t-145.5 -39t-145.5 39t-105.5 106t-39 145v154q0 78 39 145zM292 189q30 -34 78 -34q47 0 77 34t30 82v155q0 49 -30 82t-77 33q-48 0 -78 -33t-30 -82v-155
q0 -48 30 -82zM541 833q-44 -53 -103 -53q-42 0 -83 28q-29 21 -57 21q-40 0 -74 -42l-29 24q45 54 103 54q38 0 78 -26q32 -22 63 -22q41 0 73 40z" />
    <glyph glyph-name="uni022C" unicode="&#x22c;" 
d="M119 570q39 67 105.5 106t145.5 39t145.5 -39t105.5 -106t39 -145v-154q0 -78 -39 -145t-105.5 -106t-145.5 -39t-145.5 39t-105.5 106t-39 145v154q0 78 39 145zM292 189q30 -34 78 -34q47 0 77 34t30 82v155q0 49 -30 82t-77 33q-48 0 -78 -33t-30 -82v-155
q0 -48 30 -82zM541 833q-44 -53 -103 -53q-42 0 -83 28q-29 21 -57 21q-40 0 -74 -42l-29 24q45 54 103 54q38 0 78 -26q32 -22 63 -22q41 0 73 40zM518 1061v-37h-296v37h296z" />
    <glyph glyph-name="OE" unicode="&#x152;" 
d="M511 520v-88h140v-167h-140v-89h195v-176h-377q-85 0 -154.5 38.5t-109 104.5t-39.5 146v118q0 80 39.5 146.5t109 104.5t154.5 38h377v-176h-195zM329 513q-53 0 -87 -29.5t-34 -76.5v-118q0 -46 33.5 -76t87.5 -30v330z" />
    <glyph glyph-name="P" unicode="P" 
d="M139 0v696h291q73 0 126 -27q61 -31 97 -88.5t36 -126.5t-35.5 -127t-96.5 -89q-52 -27 -127 -27h-109v-211h-182z" />
    <glyph glyph-name="Thorn" unicode="&#xde;" 
d="M548.5 566q59.5 -30 94.5 -85t35 -127q0 -69 -35.5 -127t-96.5 -89q-53 -27 -127 -27h-243v-111h-37v707h37v-111h243q70 0 129.5 -30zM176 559v-411h243q64 0 105 20q53 25 85 75t32 111q0 60 -32 110t-86 75q-41 20 -104 20h-243z" />
    <glyph glyph-name="Q" unicode="Q" 
d="M513.5 676q66.5 -39 105.5 -105.5t39 -145.5v-153q0 -60 -25 -118l97 -95l-123 -128l-93 91q-69 -40 -146 -40q-79 0 -145.5 39t-105.5 105.5t-39 145.5v153q0 79 39 145.5t105.5 105.5t145.5 39t145.5 -39zM260 272q0 -44 31.5 -76t75.5 -32t75.5 32t31.5 76v153
q0 44 -31.5 75t-75.5 31t-75.5 -31t-31.5 -75v-153z" />
    <glyph glyph-name="R" unicode="R" 
d="M658 0h-535v696h271q87 0 142 -31q54 -30 84 -82t30 -115q0 -78 -48 -139.5t-121 -81.5zM186 659l272 -380q67 14 111 67t44 122q0 55 -27 100t-76 69q-44 22 -115 22h-209zM160 635v-359h257zM160 37h428l-146 203l-31 -1h-251v-202z" />
    <glyph glyph-name="Racute" unicode="&#x154;" 
d="M658 0h-535v696h271q87 0 142 -31q54 -30 84 -82t30 -115q0 -78 -48 -139.5t-121 -81.5zM186 659l272 -380q67 14 111 67t44 122q0 55 -27 100t-76 69q-44 22 -115 22h-209zM160 635v-359h257zM160 37h428l-146 203l-31 -1h-251v-202zM438 912l35 -45l-173 -126l-19 25z
" />
    <glyph glyph-name="Rcaron" unicode="&#x158;" 
d="M658 0h-535v696h271q87 0 142 -31q54 -30 84 -82t30 -115q0 -78 -48 -139.5t-121 -81.5zM186 659l272 -380q67 14 111 67t44 122q0 55 -27 100t-76 69q-44 22 -115 22h-209zM160 635v-359h257zM160 37h428l-146 203l-31 -1h-251v-202zM223 896l148 -148l148 148l-26 26
l-122 -122l-122 122z" />
    <glyph glyph-name="uni0156" unicode="&#x156;" 
d="M658 0h-535v696h271q87 0 142 -31q54 -30 84 -82t30 -115q0 -78 -48 -139.5t-121 -81.5zM186 659l272 -380q67 14 111 67t44 122q0 55 -27 100t-76 69q-44 22 -115 22h-209zM160 635v-359h257zM160 37h428l-146 203l-31 -1h-251v-202zM342 -223l27 47q-25 1 -43 19.5
t-18 43.5q0 26 18.5 44.5t44.5 18.5t44.5 -18.5t18.5 -44.5q0 -15 -14 -41l-40 -69h-38z" />
    <glyph glyph-name="uni0210" unicode="&#x210;" 
d="M221 916l-45 -35l125 -147l25 19zM441 916l-45 -35l125 -147l25 19zM658 0h-535v696h271q87 0 142 -31q54 -30 84 -82t30 -115q0 -78 -48 -139.5t-121 -81.5zM186 659l272 -380q67 14 111 67t44 122q0 55 -27 100t-76 69q-44 22 -115 22h-209zM160 635v-359h257zM160 37
h428l-146 203l-31 -1h-251v-202z" />
    <glyph glyph-name="uni0212" unicode="&#x212;" 
d="M525 793q-20 45 -62 72t-92 27t-92 -27t-62 -72l33 -16q17 35 49.5 56.5t71.5 21.5t71.5 -21.5t49.5 -56.5zM658 0h-535v696h271q87 0 142 -31q54 -30 84 -82t30 -115q0 -78 -48 -139.5t-121 -81.5zM186 659l272 -380q67 14 111 67t44 122q0 55 -27 100t-76 69
q-44 22 -115 22h-209zM160 635v-359h257zM160 37h428l-146 203l-31 -1h-251v-202z" />
    <glyph glyph-name="S" unicode="S" 
d="M151.5 50.5q-78.5 68.5 -77.5 205.5h163q-1 -57 34 -87t98 -30q52 0 82 17t30 52q0 29 -30.5 42t-60.5 18.5t-37 6.5q-77 15 -133 36.5t-94 65.5t-38 116t38 122.5t101.5 75.5t138.5 25q91 0 157.5 -34t104.5 -103q19 -33 23 -63.5t4 -59.5h-163q0 54 -29 79.5t-90 25.5
q-49 0 -76 -17t-27 -46q0 -32 36 -47t91 -27q90 -18 140.5 -34.5t87.5 -58.5t37 -118q0 -72 -40 -124t-105.5 -79.5t-141.5 -27.5q-145 0 -223.5 68.5z" />
    <glyph glyph-name="Sacute" unicode="&#x15a;" 
d="M151.5 50.5q-78.5 68.5 -77.5 205.5h163q-1 -57 34 -87t98 -30q52 0 82 17t30 52q0 29 -30.5 42t-60.5 18.5t-37 6.5q-77 15 -133 36.5t-94 65.5t-38 116t38 122.5t101.5 75.5t138.5 25q91 0 157.5 -34t104.5 -103q19 -33 23 -63.5t4 -59.5h-163q0 54 -29 79.5t-90 25.5
q-49 0 -76 -17t-27 -46q0 -32 36 -47t91 -27q90 -18 140.5 -34.5t87.5 -58.5t37 -118q0 -72 -40 -124t-105.5 -79.5t-141.5 -27.5q-145 0 -223.5 68.5zM442 912l35 -45l-173 -126l-19 25z" />
    <glyph glyph-name="Scaron" unicode="&#x160;" 
d="M151.5 50.5q-78.5 68.5 -77.5 205.5h163q-1 -57 34 -87t98 -30q52 0 82 17t30 52q0 29 -30.5 42t-60.5 18.5t-37 6.5q-77 15 -133 36.5t-94 65.5t-38 116t38 122.5t101.5 75.5t138.5 25q91 0 157.5 -34t104.5 -103q19 -33 23 -63.5t4 -59.5h-163q0 54 -29 79.5t-90 25.5
q-49 0 -76 -17t-27 -46q0 -32 36 -47t91 -27q90 -18 140.5 -34.5t87.5 -58.5t37 -118q0 -72 -40 -124t-105.5 -79.5t-141.5 -27.5q-145 0 -223.5 68.5zM227 896l148 -148l148 148l-26 26l-122 -122l-122 122z" />
    <glyph glyph-name="Scedilla" unicode="&#x15e;" 
d="M658 456q0 83 -37.5 141.5t-102.5 88.5t-149 30q-75 0 -138.5 -25t-101.5 -75.5t-38 -122.5t38 -116t94.5 -65.5t132.5 -35.5q9 -2 46 -9t59.5 -22t22.5 -37q0 -35 -29.5 -52t-82.5 -17q-63 0 -98 30t-34 87h-163q-1 -132 72 -200.5t209 -73.5l-69 -138l33 -17l77 156
q72 4 132.5 32t97 79t36.5 119q0 76 -37 118t-87.5 58.5t-140.5 34.5q-55 12 -91 27t-36 47q0 29 27 46t76 17q61 0 90 -25.5t29 -79.5h163z" />
    <glyph glyph-name="Scircumflex" unicode="&#x15c;" 
d="M151.5 50.5q-78.5 68.5 -77.5 205.5h163q-1 -57 34 -87t98 -30q52 0 82 17t30 52q0 29 -30.5 42t-60.5 18.5t-37 6.5q-77 15 -133 36.5t-94 65.5t-38 116t38 122.5t101.5 75.5t138.5 25q91 0 157.5 -34t104.5 -103q19 -33 23 -63.5t4 -59.5h-163q0 54 -29 79.5t-90 25.5
q-49 0 -76 -17t-27 -46q0 -32 36 -47t91 -27q90 -18 140.5 -34.5t87.5 -58.5t37 -118q0 -72 -40 -124t-105.5 -79.5t-141.5 -27.5q-145 0 -223.5 68.5zM227 774l148 148l148 -148l-26 -26l-122 122l-122 -122z" />
    <glyph glyph-name="uni0218" unicode="&#x218;" 
d="M154.5 50.5q-78.5 68.5 -77.5 205.5h163q-1 -57 34 -87t98 -30q52 0 82 17t30 52q0 29 -30.5 42t-60.5 18.5t-37 6.5q-77 15 -133 36.5t-94 65.5t-38 116t38 122.5t101.5 75.5t138.5 25q91 0 157.5 -34t104.5 -103q19 -33 23 -63.5t4 -59.5h-163q0 54 -29 79.5t-90 25.5
q-49 0 -76 -17t-27 -46q0 -32 36 -47t91 -27q90 -18 140.5 -34.5t87.5 -58.5t37 -118q0 -72 -40 -124t-105.5 -79.5t-141.5 -27.5q-145 0 -223.5 68.5zM349 -223l27 47q-25 1 -43 19.5t-18 43.5q0 26 18.5 44.5t44.5 18.5t44.5 -18.5t18.5 -44.5q0 -15 -14 -41l-40 -69h-38z
" />
    <glyph glyph-name="uni1E9E" unicode="&#x1e9e;" 
d="M435 448q59 -4 107.5 -34t77 -79t28.5 -107q1 -64 -29 -115.5t-87 -82t-134 -30.5h-81v37h81q67 0 115 25t73 68.5t26 97.5q0 51 -26 93t-70.5 66.5t-97.5 24.5h-31v37l174 211l-395 -1l-1 -659h-37l1 696h480v-36z" />
    <glyph glyph-name="uni018F" unicode="&#x18f;" horiz-adv-x="702" 
d="M457 409v21q0 54 -29 84t-79 30q-46 0 -73.5 -25t-28.5 -60h-180q1 64 36 122t99.5 94t148.5 36q81 0 147 -36.5t103.5 -102.5t37.5 -151v-146q0 -85 -39.5 -151.5t-106 -102.5t-144.5 -36q-133 1 -209 74t-75 204v146h392zM242 262q0 -53 27.5 -82.5t79.5 -29.5
q107 0 108 112h-215z" />
    <glyph glyph-name="T" unicode="T" 
d="M352 0v520h-263v176h562v-176h-263v-520h-36z" />
    <glyph glyph-name="Tbar" unicode="&#x166;" 
d="M651 696v-176h-263v-207h203v-37h-203v-276h-36v276h-203v37h203v207h-263v176h562z" />
    <glyph glyph-name="Tcaron" unicode="&#x164;" 
d="M352 0v520h-263v176h562v-176h-263v-520h-36zM222 896l148 -148l148 148l-26 26l-122 -122l-122 122z" />
    <glyph glyph-name="uni0162" unicode="&#x162;" 
d="M352 0v520h-263v176h562v-176h-263v-520h-36zM393 -8l33 -16l-75 -149l-33 17z" />
    <glyph glyph-name="U" unicode="U" 
d="M229.5 23q-64.5 38 -102.5 102.5t-38 140.5v430h562v-430q0 -76 -38 -140.5t-102.5 -102.5t-140.5 -38t-140.5 38z" />
    <glyph glyph-name="Uacute" unicode="&#xda;" 
d="M229.5 23q-64.5 38 -102.5 102.5t-38 140.5v430h562v-430q0 -76 -38 -140.5t-102.5 -102.5t-140.5 -38t-140.5 38zM437 912l35 -45l-173 -126l-19 25z" />
    <glyph glyph-name="Ubreve" unicode="&#x16c;" 
d="M229.5 23q-64.5 38 -102.5 102.5t-38 140.5v430h562v-430q0 -76 -38 -140.5t-102.5 -102.5t-140.5 -38t-140.5 38zM524 876q-20 -45 -62 -72t-92 -27t-92 27t-62 72l33 16q16 -36 49 -57t72 -21t71.5 21t49.5 56z" />
    <glyph glyph-name="Ucircumflex" unicode="&#xdb;" 
d="M229.5 23q-64.5 38 -102.5 102.5t-38 140.5v430h562v-430q0 -76 -38 -140.5t-102.5 -102.5t-140.5 -38t-140.5 38zM222 774l148 148l148 -148l-26 -26l-122 122l-122 -122z" />
    <glyph glyph-name="uni0214" unicode="&#x214;" 
d="M220 916l-45 -35l125 -147l25 19zM440 916l-45 -35l125 -147l25 19zM229.5 23q-64.5 38 -102.5 102.5t-38 140.5v430h562v-430q0 -76 -38 -140.5t-102.5 -102.5t-140.5 -38t-140.5 38z" />
    <glyph glyph-name="Udieresis" unicode="&#xdc;" 
d="M229.5 23q-64.5 38 -102.5 102.5t-38 140.5v430h562v-430q0 -76 -38 -140.5t-102.5 -102.5t-140.5 -38t-140.5 38zM316 907q24 -24 24 -58t-24 -57.5t-58 -23.5t-57.5 23.5t-23.5 57.5t23.5 58t57.5 24t58 -24zM422.5 791.5q-23.5 23.5 -23.5 57.5t23.5 58t57.5 24
t58 -24t24 -58t-24 -57.5t-58 -23.5t-57.5 23.5zM291.5 816q13.5 14 13.5 33q0 20 -13.5 34t-33.5 14t-33.5 -14t-13.5 -34q0 -19 14 -33t33 -14q20 0 33.5 14zM446.5 883q-13.5 -14 -13.5 -34q0 -19 14 -33t33 -14q20 0 33.5 14t13.5 33q0 20 -13.5 34t-33.5 14t-33.5 -14z
" />
    <glyph glyph-name="uni1EE4" unicode="&#x1ee4;" 
d="M229.5 23q-64.5 38 -102.5 102.5t-38 140.5v430h562v-430q0 -76 -38 -140.5t-102.5 -102.5t-140.5 -38t-140.5 38zM312.5 -193.5q-23.5 23.5 -23.5 57.5t23.5 58t57.5 24t58 -24t24 -58t-24 -57.5t-58 -23.5t-57.5 23.5zM337 -169.5q14 -13.5 33 -13.5q20 0 33.5 13.5
t13.5 33.5t-13.5 34t-33.5 14t-33.5 -14t-13.5 -34t14 -33.5z" />
    <glyph glyph-name="Ugrave" unicode="&#xd9;" 
d="M229.5 23q-64.5 38 -102.5 102.5t-38 140.5v430h562v-430q0 -76 -38 -140.5t-102.5 -102.5t-140.5 -38t-140.5 38zM303 912l-35 -45l173 -126l19 25z" />
    <glyph glyph-name="uni1EE6" unicode="&#x1ee6;" 
d="M389 872.5q-13 11.5 -37 11.5h-20v34h20q39 0 62 -20.5t23 -52.5q0 -31 -21 -52.5t-52 -22.5v-25h-32v59h26q19 0 31.5 11.5t12.5 28.5t-13 28.5zM229.5 23q-64.5 38 -102.5 102.5t-38 140.5v430h562v-430q0 -76 -38 -140.5t-102.5 -102.5t-140.5 -38t-140.5 38z" />
    <glyph glyph-name="Uhorn" unicode="&#x1af;" 
d="M712 701.5q-23 -30.5 -61 -39.5v-396q0 -76 -38 -140.5t-102.5 -102.5t-140.5 -38t-140.5 38t-102.5 102.5t-38 140.5v430h534q33 0 53.5 21.5t20.5 57.5v86h37v-86q1 -43 -22 -73.5z" />
    <glyph glyph-name="uni1EE8" unicode="&#x1ee8;" 
d="M280 766l157 146l35 -45l-173 -126zM623 696q33 0 53.5 21.5t20.5 57.5v86h37v-86q0 -43 -23 -73.5t-60 -39.5v-396q0 -76 -38 -140.5t-102.5 -102.5t-140.5 -38t-140.5 38t-102.5 102.5t-38 140.5v430h534z" />
    <glyph glyph-name="uni1EF0" unicode="&#x1ef0;" 
d="M697 861h37v-86q0 -43 -23 -73.5t-60 -39.5v-396q0 -76 -38 -140.5t-102.5 -102.5t-140.5 -38t-140.5 38t-102.5 102.5t-38 140.5v430h534q33 0 53.5 21.5t20.5 57.5v86zM312.5 -78q23.5 24 57.5 24t58 -24t24 -58t-24 -57.5t-58 -23.5t-57.5 23.5t-23.5 57.5t23.5 58z
M336.5 -102q-13.5 -14 -13.5 -34t14 -33.5t33 -13.5q20 0 33.5 13.5t13.5 33.5t-13.5 34t-33.5 14t-33.5 -14z" />
    <glyph glyph-name="uni1EEA" unicode="&#x1eea;" 
d="M303 912l157 -146l-19 -25l-173 126zM623 696q33 0 53.5 21.5t20.5 57.5v86h37v-86q0 -43 -23 -73.5t-60 -39.5v-396q0 -76 -38 -140.5t-102.5 -102.5t-140.5 -38t-140.5 38t-102.5 102.5t-38 140.5v430h534z" />
    <glyph glyph-name="uni1EEC" unicode="&#x1eec;" 
d="M352 918q39 0 62 -20.5t23 -52.5q0 -31 -21 -52.5t-52 -22.5v-25h-32v59h26q19 1 31.5 12t12.5 28t-13 28.5t-37 11.5h-20v34h20zM676.5 717.5q20.5 21.5 20.5 57.5v86h37v-86q0 -43 -23 -73.5t-60 -39.5v-396q0 -76 -38 -140.5t-102.5 -102.5t-140.5 -38t-140.5 38
t-102.5 102.5t-38 140.5v430h534q33 0 53.5 21.5z" />
    <glyph glyph-name="uni1EEE" unicode="&#x1eee;" 
d="M298 865q38 0 78 -26q32 -22 62 -22q42 0 74 40l29 -24q-44 -53 -102 -53q-43 0 -84 28q-28 20 -57 20q-41 0 -74 -41l-29 24q45 54 103 54zM734 775q0 -43 -23 -73.5t-60 -39.5v-396q0 -76 -38 -140.5t-102.5 -102.5t-140.5 -38t-140.5 38t-102.5 102.5t-38 140.5v430
h534q33 0 53.5 21.5t20.5 57.5v86h37v-86z" />
    <glyph glyph-name="Uhungarumlaut" unicode="&#x170;" 
d="M229.5 23q-64.5 38 -102.5 102.5t-38 140.5v430h562v-430q0 -76 -38 -140.5t-102.5 -102.5t-140.5 -38t-140.5 38zM300 916l45 -35l-125 -147l-25 19zM520 916l45 -35l-126 -147l-24 19z" />
    <glyph glyph-name="uni0216" unicode="&#x216;" 
d="M524 793q-20 45 -62 72t-92 27t-92 -27t-62 -72l33 -16q17 35 49.5 56.5t71.5 21.5t71.5 -21.5t49.5 -56.5zM229.5 23q-64.5 38 -102.5 102.5t-38 140.5v430h562v-430q0 -76 -38 -140.5t-102.5 -102.5t-140.5 -38t-140.5 38z" />
    <glyph glyph-name="Umacron" unicode="&#x16a;" 
d="M229.5 23q-64.5 38 -102.5 102.5t-38 140.5v430h562v-430q0 -76 -38 -140.5t-102.5 -102.5t-140.5 -38t-140.5 38zM518 827v-37h-296v37h296z" />
    <glyph glyph-name="Uogonek" unicode="&#x172;" 
d="M651 696v-430q0 -80 -41.5 -147t-110.5 -103q-52 -33 -52 -91q0 -44 32.5 -74.5t81.5 -30.5v-37q-42 0 -76.5 19t-54.5 51.5t-20 70.5q0 37 19 67q-28 -6 -59 -6q-76 0 -140.5 38t-102.5 102.5t-38 140.5v430h562z" />
    <glyph glyph-name="Uring" unicode="&#x16e;" 
d="M229.5 23q-64.5 38 -102.5 102.5t-38 140.5v430h562v-430q0 -76 -38 -140.5t-102.5 -102.5t-140.5 -38t-140.5 38zM294.5 769.5q-31.5 31.5 -31.5 76.5q0 44 31.5 75.5t75.5 31.5t75.5 -31.5t31.5 -75.5q0 -45 -31.5 -76.5t-75.5 -31.5t-75.5 31.5zM320.5 796
q20.5 -21 49.5 -21t49.5 21t20.5 50t-20.5 49.5t-49.5 20.5t-49.5 -20.5t-20.5 -49.5t20.5 -50z" />
    <glyph glyph-name="Utilde" unicode="&#x168;" 
d="M229.5 23q-64.5 38 -102.5 102.5t-38 140.5v430h562v-430q0 -76 -38 -140.5t-102.5 -102.5t-140.5 -38t-140.5 38zM541 833q-44 -53 -103 -53q-42 0 -83 28q-29 21 -57 21q-40 0 -74 -42l-29 24q45 54 103 54q38 0 78 -26q32 -22 63 -22q41 0 73 40z" />
    <glyph glyph-name="V" unicode="V" 
d="M42 697h656l-328 -711zM370 74l271 586h-541z" />
    <glyph glyph-name="W" unicode="W" 
d="M351 458l-64 238h413l-187 -696h-39l-104 387l-104 -387h-39l-187 696h38l168 -627zM652 659h-317l54 -201l105 -389z" />
    <glyph glyph-name="Wacute" unicode="&#x1e82;" 
d="M351 458l-64 238h413l-187 -696h-39l-104 387l-104 -387h-39l-187 696h38l168 -627zM652 659h-317l54 -201l105 -389zM437 912l35 -45l-173 -126l-19 25z" />
    <glyph glyph-name="Wcircumflex" unicode="&#x174;" 
d="M351 458l-64 238h413l-187 -696h-39l-104 387l-104 -387h-39l-187 696h38l168 -627zM652 659h-317l54 -201l105 -389zM222 774l148 148l148 -148l-26 -26l-122 122l-122 -122z" />
    <glyph glyph-name="Wdieresis" unicode="&#x1e84;" 
d="M351 458l-64 238h413l-187 -696h-39l-104 387l-104 -387h-39l-187 696h38l168 -627zM652 659h-317l54 -201l105 -389zM201.5 791.5q-23.5 23.5 -23.5 57.5t23.5 58t57.5 24t58 -24t24 -58t-24 -57.5t-58 -23.5t-57.5 23.5zM423.5 791.5q-23.5 23.5 -23.5 57.5t23.5 58
t57.5 24t58 -24t24 -58t-24 -57.5t-58 -23.5t-57.5 23.5zM225.5 816q13.5 -14 33.5 -14q19 0 33 14t14 33q0 20 -13.5 34t-33.5 14t-33.5 -14t-13.5 -34q0 -19 13.5 -33zM447.5 816q13.5 -14 33.5 -14q19 0 33 14t14 33q0 20 -13.5 34t-33.5 14t-33.5 -14t-13.5 -34
q0 -19 13.5 -33z" />
    <glyph glyph-name="Wgrave" unicode="&#x1e80;" 
d="M351 458l-64 238h413l-187 -696h-39l-104 387l-104 -387h-39l-187 696h38l168 -627zM652 659h-317l54 -201l105 -389zM303 912l-35 -45l173 -126l19 25z" />
    <glyph glyph-name="X" unicode="X" 
d="M75 0l273 348l-273 348h591l-273 -348l273 -348h-591zM370 378l221 281h-441zM591 37l-221 281l-220 -281h441z" />
    <glyph glyph-name="Y" unicode="Y" 
d="M73 696h594l-278 -411v-285h-37v285z" />
    <glyph glyph-name="Yacute" unicode="&#xdd;" 
d="M73 696h594l-278 -411v-285h-37v285zM437 912l35 -45l-173 -126l-19 25z" />
    <glyph glyph-name="Ycircumflex" unicode="&#x176;" 
d="M73 696h594l-278 -411v-285h-37v285zM222 774l148 148l148 -148l-26 -26l-122 122l-122 -122z" />
    <glyph glyph-name="Ydieresis" unicode="&#x178;" 
d="M73 696h594l-278 -411v-285h-37v285zM201.5 791.5q-23.5 23.5 -23.5 57.5t23.5 58t57.5 24t58 -24t24 -58t-24 -57.5t-58 -23.5t-57.5 23.5zM423.5 791.5q-23.5 23.5 -23.5 57.5t23.5 58t57.5 24t58 -24t24 -58t-24 -57.5t-58 -23.5t-57.5 23.5zM225.5 816
q13.5 -14 33.5 -14q19 0 33 14t14 33q0 20 -13.5 34t-33.5 14t-33.5 -14t-13.5 -34q0 -19 13.5 -33zM447.5 816q13.5 -14 33.5 -14q19 0 33 14t14 33q0 20 -13.5 34t-33.5 14t-33.5 -14t-13.5 -34q0 -19 13.5 -33z" />
    <glyph glyph-name="uni1EF4" unicode="&#x1ef4;" 
d="M73 696h594l-278 -411v-285h-37v285zM312.5 -193.5q-23.5 23.5 -23.5 57.5t23.5 58t57.5 24t58 -24t24 -58t-24 -57.5t-58 -23.5t-57.5 23.5zM337 -169.5q14 -13.5 33 -13.5q20 0 33.5 13.5t13.5 33.5t-13.5 34t-33.5 14t-33.5 -14t-13.5 -34t14 -33.5z" />
    <glyph glyph-name="Ygrave" unicode="&#x1ef2;" 
d="M73 696h594l-278 -411v-285h-37v285zM303 912l-35 -45l173 -126l19 25z" />
    <glyph glyph-name="uni1EF6" unicode="&#x1ef6;" 
d="M389 872.5q-13 11.5 -37 11.5h-20v34h20q39 0 62 -20.5t23 -52.5q0 -31 -21 -52.5t-52 -22.5v-25h-32v59h26q19 0 31.5 11.5t12.5 28.5t-13 28.5zM73 696h594l-278 -411v-285h-37v285z" />
    <glyph glyph-name="uni0232" unicode="&#x232;" 
d="M73 696h594l-278 -411v-285h-37v285zM518 827v-37h-296v37h296z" />
    <glyph glyph-name="uni1EF8" unicode="&#x1ef8;" 
d="M73 696h594l-278 -411v-285h-37v285zM541 833q-44 -53 -103 -53q-42 0 -83 28q-29 21 -57 21q-40 0 -74 -42l-29 24q45 54 103 54q38 0 78 -26q32 -22 63 -22q41 0 73 40z" />
    <glyph glyph-name="Z" unicode="Z" 
d="M581 659h-458v37h506v-696h-517v37zM592 37v575l-434 -575h434z" />
    <glyph glyph-name="Zacute" unicode="&#x179;" 
d="M581 659h-458v37h506v-696h-517v37zM592 37v575l-434 -575h434zM438 912l35 -45l-173 -126l-19 25z" />
    <glyph glyph-name="Zcaron" unicode="&#x17d;" 
d="M581 659h-458v37h506v-696h-517v37zM592 37v575l-434 -575h434zM223 896l148 -148l148 148l-26 26l-122 -122l-122 122z" />
    <glyph glyph-name="Zdotaccent" unicode="&#x17b;" 
d="M581 659h-458v37h506v-696h-517v37zM592 37v575l-434 -575h434zM313.5 791.5q-23.5 23.5 -23.5 57.5t23.5 58t57.5 24t58 -24t24 -58t-24 -57.5t-58 -23.5t-57.5 23.5zM337.5 816q13.5 -14 33.5 -14q19 0 33 14t14 33q0 20 -13.5 34t-33.5 14t-33.5 -14t-13.5 -34
q0 -19 13.5 -33z" />
    <glyph glyph-name="uni021A" unicode="&#x21a;" 
d="M352 0v520h-263v176h562v-176h-263v-520h-36zM325.5 -68.5q18.5 18.5 44.5 18.5t44.5 -18.5t18.5 -44.5q0 -15 -14 -41l-41 -69h-37l27 47q-25 1 -43 19t-18 44t18.5 44.5z" />
    <glyph glyph-name="a" unicode="a" 
d="M351 696h39l286 -696h-40l-94 230h-343l-95 -230h-39zM214 266h313l-157 382z" />
    <glyph glyph-name="aacute" unicode="&#xe1;" 
d="M351 696h39l286 -696h-40l-94 230h-343l-95 -230h-39zM214 266h313l-157 382zM437 912l35 -45l-173 -126l-19 25z" />
    <glyph glyph-name="abreve" unicode="&#x103;" 
d="M351 696h39l286 -696h-40l-94 230h-343l-95 -230h-39zM214 266h313l-157 382zM249 892q16 -36 49 -57t72 -21t72 21t49 57l33 -16q-20 -45 -62 -72t-92 -27t-92 27t-62 72z" />
    <glyph glyph-name="uni1EAF" unicode="&#x1eaf;" 
d="M472 1069l-173 -126l-19 25l157 146zM524 876q-20 -45 -62 -72t-92 -27t-92 27t-62 72l33 16q16 -36 49 -57t72 -21t72 21t49 57zM542 230h-343l-95 -230h-39l286 696h39l286 -696h-40zM214 266h313l-157 382z" />
    <glyph glyph-name="uni1EB7" unicode="&#x1eb7;" 
d="M524 876q-20 -45 -62 -72t-92 -27t-92 27t-62 72l33 16q16 -36 49 -57t72 -21t71.5 21t49.5 56zM351 696h39l286 -696h-40l-94 230h-343l-95 -230h-39zM214 266h313l-157 382zM312.5 -193.5q-23.5 23.5 -23.5 57.5t23.5 58t57.5 24t58 -24t24 -58t-24 -57.5t-58 -23.5
t-57.5 23.5zM337 -169.5q14 -13.5 33 -13.5q20 0 33.5 13.5t13.5 33.5t-13.5 34t-33.5 14t-33.5 -14t-13.5 -34t14 -33.5z" />
    <glyph glyph-name="uni1EB1" unicode="&#x1eb1;" 
d="M441 943l-173 126l35 45l157 -146zM524 876q-20 -45 -62 -72t-92 -27t-92 27t-62 72l33 16q16 -36 49 -57t72 -21t72 21t49 57zM542 230h-343l-95 -230h-39l286 696h39l286 -696h-40zM527 266l-157 382l-156 -382h313z" />
    <glyph glyph-name="uni1EB3" unicode="&#x1eb3;" 
d="M389 1074.5q-13 11.5 -37 11.5h-20v34h20q39 0 62 -20.5t23 -52.5q0 -31 -21 -52.5t-52 -22.5v-25h-32v59h26q19 1 31.5 12t12.5 28t-13 28.5zM462 804q-42 -27 -92 -27t-92 27t-62 72l33 16q16 -36 49 -57t72 -21t72 21t49 57l33 -16q-20 -45 -62 -72zM676 0h-40
l-94 230h-343l-95 -230h-39l286 696h39zM370 648l-156 -382h313z" />
    <glyph glyph-name="uni1EB5" unicode="&#x1eb5;" 
d="M438 1019q42 0 74 40l29 -24q-44 -53 -102 -53q-43 0 -84 28q-28 20 -57 20q-41 0 -74 -41l-29 24q45 54 103 54q38 0 78 -26q32 -22 62 -22zM524 876q-20 -45 -62 -72t-92 -27t-92 27t-62 72l33 16q16 -36 49 -57t72 -21t72 21t49 57zM676 0h-40l-94 230h-343l-95 -230
h-39l286 696h39zM370 648l-156 -382h313z" />
    <glyph glyph-name="acircumflex" unicode="&#xe2;" 
d="M351 696h39l286 -696h-40l-94 230h-343l-95 -230h-39zM214 266h313l-157 382zM222 774l148 148l148 -148l-26 -26l-122 122l-122 -122z" />
    <glyph glyph-name="uni1EA5" unicode="&#x1ea5;" 
d="M472 1069l-173 -126l-19 25l157 146zM492 748l-122 122l-122 -122l-26 26l148 148l148 -148zM542 230h-343l-95 -230h-39l286 696h39l286 -696h-40zM214 266h313l-157 382z" />
    <glyph glyph-name="uni1EAD" unicode="&#x1ead;" 
d="M222 774l148 148l148 -148l-26 -26l-122 122l-122 -122zM351 696h39l286 -696h-40l-94 230h-343l-95 -230h-39zM214 266h313l-157 382zM312.5 -193.5q-23.5 23.5 -23.5 57.5t23.5 58t57.5 24t58 -24t24 -58t-24 -57.5t-58 -23.5t-57.5 23.5zM337 -169.5
q14 -13.5 33 -13.5q20 0 33.5 13.5t13.5 33.5t-13.5 34t-33.5 14t-33.5 -14t-13.5 -34t14 -33.5z" />
    <glyph glyph-name="uni1EA7" unicode="&#x1ea7;" 
d="M441 943l-173 126l35 45l157 -146zM492 748l-122 122l-122 -122l-26 26l148 148l148 -148zM542 230h-343l-95 -230h-39l286 696h39l286 -696h-40zM214 266h313l-157 382z" />
    <glyph glyph-name="uni1EA9" unicode="&#x1ea9;" 
d="M414 1099.5q23 -20.5 23 -52.5q0 -31 -21 -52.5t-52 -22.5v-25h-32v59h26q19 1 31.5 12t12.5 28t-13 28.5t-37 11.5h-20v34h20q39 0 62 -20.5zM518 774l-26 -26l-122 122l-122 -122l-26 26l148 148zM676 0h-40l-94 230h-343l-95 -230h-39l286 696h39zM370 648l-156 -382
h313z" />
    <glyph glyph-name="uni1EAB" unicode="&#x1eab;" 
d="M438 1019q42 0 74 40l29 -24q-44 -53 -102 -53q-43 0 -84 28q-28 20 -57 20q-41 0 -74 -41l-29 24q45 54 103 54q38 0 78 -26q32 -22 62 -22zM492 748l-122 122l-122 -122l-26 26l148 148l148 -148zM676 0h-40l-94 230h-343l-95 -230h-39l286 696h39zM370 648l-156 -382
h313z" />
    <glyph glyph-name="uni0201" unicode="&#x201;" 
d="M220 916l-45 -35l125 -147l25 19zM440 916l-45 -35l125 -147l25 19zM351 696h39l286 -696h-40l-94 230h-343l-95 -230h-39zM214 266h313l-157 382z" />
    <glyph glyph-name="adieresis" unicode="&#xe4;" 
d="M351 696h39l286 -696h-40l-94 230h-343l-95 -230h-39zM214 266h313l-157 382zM316 907q24 -24 24 -58t-24 -57.5t-58 -23.5t-57.5 23.5t-23.5 57.5t23.5 58t57.5 24t58 -24zM422.5 791.5q-23.5 23.5 -23.5 57.5t23.5 58t57.5 24t58 -24t24 -58t-24 -57.5t-58 -23.5
t-57.5 23.5zM291.5 816q13.5 14 13.5 33q0 20 -13.5 34t-33.5 14t-33.5 -14t-13.5 -34q0 -19 14 -33t33 -14q20 0 33.5 14zM446.5 883q-13.5 -14 -13.5 -34q0 -19 14 -33t33 -14q20 0 33.5 14t13.5 33q0 20 -13.5 34t-33.5 14t-33.5 -14z" />
    <glyph glyph-name="uni1EA1" unicode="&#x1ea1;" 
d="M351 696h39l286 -696h-40l-94 230h-343l-95 -230h-39zM214 266h313l-157 382zM312.5 -193.5q-23.5 23.5 -23.5 57.5t23.5 58t57.5 24t58 -24t24 -58t-24 -57.5t-58 -23.5t-57.5 23.5zM337 -169.5q14 -13.5 33 -13.5q20 0 33.5 13.5t13.5 33.5t-13.5 34t-33.5 14
t-33.5 -14t-13.5 -34t14 -33.5z" />
    <glyph glyph-name="agrave" unicode="&#xe0;" 
d="M351 696h39l286 -696h-40l-94 230h-343l-95 -230h-39zM214 266h313l-157 382zM303 912l-35 -45l173 -126l19 25z" />
    <glyph glyph-name="uni1EA3" unicode="&#x1ea3;" 
d="M351 696h39l286 -696h-40l-94 230h-343l-95 -230h-39zM214 266h313l-157 382zM352 918q39 0 62 -20.5t23 -52.5q0 -31 -21 -52.5t-52 -22.5v-25h-32v59h26q19 1 31.5 12t12.5 28t-13 28.5t-37 11.5h-20v34h20z" />
    <glyph glyph-name="uni0203" unicode="&#x203;" 
d="M524 793q-20 45 -62 72t-92 27t-92 -27t-62 -72l33 -16q17 35 49.5 56.5t71.5 21.5t71.5 -21.5t49.5 -56.5zM351 696h39l286 -696h-40l-94 230h-343l-95 -230h-39zM214 266h313l-157 382z" />
    <glyph glyph-name="amacron" unicode="&#x101;" 
d="M351 696h39l286 -696h-40l-94 230h-343l-95 -230h-39zM214 266h313l-157 382zM222 766v37h296v-37h-296z" />
    <glyph glyph-name="aogonek" unicode="&#x105;" 
d="M608.5 -154.5q26.5 -25.5 67.5 -25.5v-37q-55 0 -93 36t-38 88q0 40 22.5 70t59.5 44l-85 209h-343l-95 -230h-39l286 696h39l286 -696q-39 0 -66.5 -27t-27.5 -65q0 -37 26.5 -62.5zM527 266l-157 382l-156 -382h313z" />
    <glyph glyph-name="aring" unicode="&#xe5;" 
d="M351 696h39l286 -696h-40l-94 230h-343l-95 -230h-39zM214 266h313l-157 382zM294.5 769.5q-31.5 31.5 -31.5 76.5q0 44 31.5 75.5t75.5 31.5t75.5 -31.5t31.5 -75.5q0 -45 -31.5 -76.5t-75.5 -31.5t-75.5 31.5zM320.5 895.5q-20.5 -20.5 -20.5 -49.5t20.5 -50t49.5 -21
t49.5 21t20.5 50t-20.5 49.5t-49.5 20.5t-49.5 -20.5z" />
    <glyph glyph-name="aringacute" unicode="&#x1fb;" 
d="M294.5 769.5q-31.5 31.5 -31.5 76.5q0 44 31.5 75.5t75.5 31.5t75.5 -31.5t31.5 -75.5q0 -45 -31.5 -76.5t-75.5 -31.5t-75.5 31.5zM320.5 796q20.5 -21 49.5 -21t49.5 21t20.5 50t-20.5 49.5t-49.5 20.5t-49.5 -20.5t-20.5 -49.5t20.5 -50zM437 1147l35 -45l-173 -126
l-19 25zM351 696h39l286 -696h-40l-94 230h-343l-95 -230h-39zM214 266h313l-157 382z" />
    <glyph glyph-name="atilde" unicode="&#xe3;" 
d="M351 696h39l286 -696h-40l-94 230h-343l-95 -230h-39zM214 266h313l-157 382zM541 833q-44 -53 -103 -53q-42 0 -83 28q-29 21 -57 21q-40 0 -74 -42l-29 24q45 54 103 54q38 0 78 -26q32 -22 63 -22q41 0 73 40z" />
    <glyph glyph-name="ae" unicode="&#xe6;" 
d="M401 340v-303h297v-37h-334v230h-221l-96 -230h-40l298 696h393v-37h-297v-282h240v-37h-240zM159 266h205v393h-36z" />
    <glyph glyph-name="aeacute" unicode="&#x1fd;" 
d="M16 0l298 696h393v-37h-297v-282h240v-37h-240v-303h297v-37h-334v230h-221l-96 -230h-40zM373 266v393h-36l-169 -393h205zM563 912l35 -45l-173 -126l-19 25z" />
    <glyph glyph-name="b" unicode="b" 
d="M582.5 610q25.5 -42 25.5 -94q0 -49 -25.5 -90.5t-70.5 -65.5q53 -18 88 -66t35 -106q0 -52 -26 -96t-69 -68q-22 -12 -49 -18t-72 -6h-292v696h278q66 0 105 -20q47 -24 72.5 -66zM551 441q21 34 21 75q0 46 -24 80.5t-61 50.5q-28 12 -94 12h-230v-286h248q52 0 83 16
q36 18 57 52zM577 107.5q22 36.5 22 79.5q0 45 -23 81.5t-62 54.5q-30 14 -81 14h-270v-301h257q38 0 60 4t38 12q37 19 59 55.5z" />
    <glyph glyph-name="c" unicode="c" 
d="M164.5 144q33.5 -56 90 -89t122.5 -33q68 0 123 27t86.5 75t32.5 108h36q0 -69 -36.5 -125.5t-100 -89t-141.5 -32.5q-76 0 -141 38t-103 102.5t-38 140.5v164q0 76 37.5 140.5t102 102.5t140.5 38q77 0 140.5 -32.5t100.5 -89t37 -125.5h-36q-1 60 -33 108t-86.5 75
t-122.5 27q-66 0 -122 -33t-89 -89t-33 -122v-164q0 -66 33.5 -122z" />
    <glyph glyph-name="cacute" unicode="&#x107;" 
d="M164.5 144q33.5 -56 90 -89t122.5 -33q68 0 123 27t86.5 75t32.5 108h36q0 -69 -36.5 -125.5t-100 -89t-141.5 -32.5q-76 0 -141 38t-103 102.5t-38 140.5v164q0 76 37.5 140.5t102 102.5t140.5 38q77 0 140.5 -32.5t100.5 -89t37 -125.5h-36q-1 60 -33 108t-86.5 75
t-122.5 27q-66 0 -122 -33t-89 -89t-33 -122v-164q0 -66 33.5 -122zM440 912l35 -45l-173 -126l-19 25z" />
    <glyph glyph-name="ccaron" unicode="&#x10d;" 
d="M164.5 144q33.5 -56 90 -89t122.5 -33q68 0 123 27t86.5 75t32.5 108h36q0 -69 -36.5 -125.5t-100 -89t-141.5 -32.5q-76 0 -141 38t-103 102.5t-38 140.5v164q0 76 37.5 140.5t102 102.5t140.5 38q77 0 140.5 -32.5t100.5 -89t37 -125.5h-36q-1 60 -33 108t-86.5 75
t-122.5 27q-66 0 -122 -33t-89 -89t-33 -122v-164q0 -66 33.5 -122zM225 896l148 -148l148 148l-26 26l-122 -122l-122 122z" />
    <glyph glyph-name="ccedilla" unicode="&#xe7;" 
d="M626 119q-29 -52 -81 -86t-117 -44l-80 -162l-33 17l71 141h-9q-76 0 -141 38t-103 102.5t-38 140.5v164q0 76 37.5 140.5t102 102.5t140.5 38q77 0 140.5 -32.5t100.5 -89t37 -125.5h-36q-1 60 -33 108t-86.5 75t-122.5 27q-66 0 -122 -33t-89 -89t-33 -122v-164
q0 -66 33.5 -122t90 -89t122.5 -33q68 0 123 27t86.5 75t32.5 108h36q0 -61 -29 -113z" />
    <glyph glyph-name="ccircumflex" unicode="&#x109;" 
d="M164.5 144q33.5 -56 90 -89t122.5 -33q68 0 123 27t86.5 75t32.5 108h36q0 -69 -36.5 -125.5t-100 -89t-141.5 -32.5q-76 0 -141 38t-103 102.5t-38 140.5v164q0 76 37.5 140.5t102 102.5t140.5 38q77 0 140.5 -32.5t100.5 -89t37 -125.5h-36q-1 60 -33 108t-86.5 75
t-122.5 27q-66 0 -122 -33t-89 -89t-33 -122v-164q0 -66 33.5 -122zM225 774l148 148l148 -148l-26 -26l-122 122l-122 -122z" />
    <glyph glyph-name="cdotaccent" unicode="&#x10b;" 
d="M164.5 144q33.5 -56 90 -89t122.5 -33q68 0 123 27t86.5 75t32.5 108h36q0 -69 -36.5 -125.5t-100 -89t-141.5 -32.5q-76 0 -141 38t-103 102.5t-38 140.5v164q0 76 37.5 140.5t102 102.5t140.5 38q77 0 140.5 -32.5t100.5 -89t37 -125.5h-36q-1 60 -33 108t-86.5 75
t-122.5 27q-66 0 -122 -33t-89 -89t-33 -122v-164q0 -66 33.5 -122zM315.5 791.5q-23.5 23.5 -23.5 57.5t23.5 58t57.5 24t58 -24t24 -58t-24 -57.5t-58 -23.5t-57.5 23.5zM339.5 816q13.5 -14 33.5 -14q19 0 33 14t14 33q0 20 -13.5 34t-33.5 14t-33.5 -14t-13.5 -34
q0 -19 13.5 -33z" />
    <glyph glyph-name="d" unicode="d" 
d="M503.5 658q64.5 -38 102.5 -102.5t38 -140.5v-134q0 -76 -38 -140.5t-102.5 -102.5t-140.5 -38h-257v696h257q76 0 140.5 -38zM607 415q0 66 -33 122t-89.5 89t-122.5 33h-219v-622h219q66 0 122.5 33t89.5 89t33 122v134z" />
    <glyph glyph-name="eth" unicode="&#xf0;" 
d="M503.5 658q64.5 -38 102.5 -102.5t38 -140.5v-134q0 -76 -38 -140.5t-102.5 -102.5t-140.5 -38h-257v330h-86v36h86v330h257q76 0 140.5 -38zM607 415q0 66 -33 122t-89.5 89t-122.5 33h-219v-293h220v-36h-220v-293h219q66 0 122.5 33t89.5 89t33 122v134z" />
    <glyph glyph-name="dcaron" unicode="&#x10f;" 
d="M518 896l-148 -148l-148 148l26 26l122 -122l122 122zM121 696h257q76 0 140.5 -38t102.5 -102.5t38 -140.5v-134q0 -76 -38 -140.5t-102.5 -102.5t-140.5 -38h-257v696zM622 415q0 66 -33 122t-89 89t-122 33h-220v-622h220q66 0 122 33t89 89t33 122v134z" />
    <glyph glyph-name="dcroat" unicode="&#x111;" 
d="M503.5 658q64.5 -38 102.5 -102.5t38 -140.5v-134q0 -76 -38 -140.5t-102.5 -102.5t-140.5 -38h-257v330h-86v36h86v330h257q76 0 140.5 -38zM607 415q0 66 -33 122t-89.5 89t-122.5 33h-219v-293h220v-36h-220v-293h219q66 0 122.5 33t89.5 89t33 122v134z" />
    <glyph glyph-name="uni01C6" unicode="&#x1c6;" horiz-adv-x="1480" 
d="M503.5 658q64.5 -38 102.5 -102.5t38 -140.5v-134q0 -76 -38 -140.5t-102.5 -102.5t-140.5 -38h-257v696h257q76 0 140.5 -38zM607 415q0 66 -33 122t-89.5 89t-122.5 33h-219v-622h219q66 0 122.5 33t89.5 89t33 122v134zM1369 696l-1 -37l-470 -622h471v-37h-517v37
l469 622h-458v37h506zM962 896l148 -148l148 148l-26 26l-122 -122l-122 122z" />
    <glyph glyph-name="e" unicode="e" 
d="M130 696h490v-37h-453v-282h394v-37h-394v-303h453v-37h-490v696z" />
    <glyph glyph-name="eacute" unicode="&#xe9;" 
d="M130 696h490v-37h-453v-282h394v-37h-394v-303h453v-37h-490v696zM441 912l35 -45l-173 -126l-19 25z" />
    <glyph glyph-name="ebreve" unicode="&#x115;" 
d="M130 696h490v-37h-453v-282h394v-37h-394v-303h453v-37h-490v696zM528 876q-20 -45 -62 -72t-92 -27t-92 27t-62 72l33 16q16 -36 49 -57t72 -21t71.5 21t49.5 56z" />
    <glyph glyph-name="ecaron" unicode="&#x11b;" 
d="M226 896l148 -148l148 148l-26 26l-122 -122l-122 122zM167 659v-282h394v-37h-394v-303h453v-37h-490v696h490v-37h-453z" />
    <glyph glyph-name="ecircumflex" unicode="&#xea;" 
d="M130 696h490v-37h-453v-282h394v-37h-394v-303h453v-37h-490v696zM222 774l148 148l148 -148l-26 -26l-122 122l-122 -122z" />
    <glyph glyph-name="uni1EBF" unicode="&#x1ebf;" 
d="M476 1069l-173 -126l-19 25l157 146zM522 774l-26 -26l-122 122l-122 -122l-26 26l148 148zM561 340h-394v-303h453v-37h-490v696h490v-37h-453v-282h394v-37z" />
    <glyph glyph-name="uni1EC7" unicode="&#x1ec7;" 
d="M130 696h490v-37h-453v-282h394v-37h-394v-303h453v-37h-490v696z" />
    <glyph glyph-name="uni1EC1" unicode="&#x1ec1;" 
d="M445 943l-173 126l35 45l157 -146zM374 870l-122 -122l-26 26l148 148l148 -148l-26 -26zM561 340h-394v-303h453v-37h-490v696h490v-37h-453v-282h394v-37z" />
    <glyph glyph-name="uni1EC3" unicode="&#x1ec3;" 
d="M362 1006q19 1 31.5 12t12.5 28t-13 28.5t-37 11.5h-20v34h20q39 0 62 -20.5t23 -52.5q0 -31 -21 -52.5t-52 -22.5v-25h-32v59h26zM374 870l-122 -122l-26 26l148 148l148 -148l-26 -26zM620 0h-490v696h490v-37h-453v-282h394v-37h-394v-303h453v-37z" />
    <glyph glyph-name="uni1EC5" unicode="&#x1ec5;" 
d="M443 982q-43 0 -84 28q-28 20 -57 20q-41 0 -74 -41l-29 24q45 54 103 54q38 0 78 -26q32 -22 62 -22q42 0 74 40l29 -24q-44 -53 -102 -53zM374 870l-122 -122l-26 26l148 148l148 -148l-26 -26zM620 659h-453v-282h394v-37h-394v-303h453v-37h-490v696h490v-37z" />
    <glyph glyph-name="uni0205" unicode="&#x205;" 
d="M224 916l-45 -35l125 -147l25 19zM444 916l-45 -35l125 -147l25 19zM167 659v-282h394v-37h-394v-303h453v-37h-490v696h490v-37h-453z" />
    <glyph glyph-name="edieresis" unicode="&#xeb;" 
d="M130 696h490v-37h-453v-282h394v-37h-394v-303h453v-37h-490v696zM316 907q24 -24 24 -58t-24 -57.5t-58 -23.5t-57.5 23.5t-23.5 57.5t23.5 58t57.5 24t58 -24zM422.5 791.5q-23.5 23.5 -23.5 57.5t23.5 58t57.5 24t58 -24t24 -58t-24 -57.5t-58 -23.5t-57.5 23.5z
M291.5 816q13.5 14 13.5 33q0 20 -13.5 34t-33.5 14t-33.5 -14t-13.5 -34q0 -19 14 -33t33 -14q20 0 33.5 14zM446.5 883q-13.5 -14 -13.5 -34q0 -19 14 -33t33 -14q20 0 33.5 14t13.5 33q0 20 -13.5 34t-33.5 14t-33.5 -14z" />
    <glyph glyph-name="edotaccent" unicode="&#x117;" 
d="M316.5 791.5q-23.5 23.5 -23.5 57.5t23.5 58t57.5 24t58 -24t24 -58t-24 -57.5t-58 -23.5t-57.5 23.5zM341 816q14 -14 33 -14q20 0 33.5 14t13.5 33q0 20 -13.5 34t-33.5 14t-33.5 -14t-13.5 -34q0 -19 14 -33zM167 659v-282h394v-37h-394v-303h453v-37h-490v696h490
v-37h-453z" />
    <glyph glyph-name="uni1EB9" unicode="&#x1eb9;" 
d="M167 659v-282h394v-37h-394v-303h453v-37h-490v696h490v-37h-453zM316.5 -193.5q-23.5 23.5 -23.5 57.5t23.5 58t57.5 24t58 -24t24 -58t-24 -57.5t-58 -23.5t-57.5 23.5zM341 -169.5q14 -13.5 33 -13.5q20 0 33.5 13.5t13.5 33.5t-13.5 34t-33.5 14t-33.5 -14t-13.5 -34
t14 -33.5z" />
    <glyph glyph-name="egrave" unicode="&#xe8;" 
d="M130 696h490v-37h-453v-282h394v-37h-394v-303h453v-37h-490v696zM307 912l-35 -45l173 -126l19 25z" />
    <glyph glyph-name="uni1EBB" unicode="&#x1ebb;" 
d="M393 872.5q-13 11.5 -37 11.5h-20v34h20q39 0 62 -20.5t23 -52.5q0 -31 -21 -52.5t-52 -22.5v-25h-32v59h26q19 0 31.5 11.5t12.5 28.5t-13 28.5zM167 659v-282h394v-37h-394v-303h453v-37h-490v696h490v-37h-453z" />
    <glyph glyph-name="uni0207" unicode="&#x207;" 
d="M528 793q-20 45 -62 72t-92 27t-92 -27t-62 -72l33 -16q17 35 49.5 56.5t71.5 21.5t71.5 -21.5t49.5 -56.5zM167 659v-282h394v-37h-394v-303h453v-37h-490v696h490v-37h-453z" />
    <glyph glyph-name="emacron" unicode="&#x113;" 
d="M520 813v-37h-296v37h296zM167 659v-282h394v-37h-394v-303h453v-37h-490v696h490v-37h-453z" />
    <glyph glyph-name="eogonek" unicode="&#x119;" 
d="M167 659v-282h394v-37h-394v-303h453v-37q-39 0 -66.5 -27t-27.5 -65q0 -37 26.5 -62.5t67.5 -25.5v-37q-55 0 -93 36t-38 88q0 56 45 93h-404v696h490v-37h-453z" />
    <glyph glyph-name="uni1EBD" unicode="&#x1ebd;" 
d="M545 833q-44 -53 -103 -53q-42 0 -83 28q-29 21 -57 21q-40 0 -74 -42l-29 24q45 54 103 54q38 0 78 -26q32 -22 63 -22q41 0 73 40zM167 659v-282h394v-37h-394v-303h453v-37h-490v696h490v-37h-453z" />
    <glyph glyph-name="uni0259" unicode="&#x259;" 
d="M129 589.5q37 56.5 100.5 89t141.5 32.5q76 0 140 -38t102 -102.5t38 -140.5v-164q0 -76 -38.5 -140.5t-103 -102.5t-140.5 -38q-78 0 -141.5 32.5t-100 89t-36.5 125.5v128h523v70q0 66 -33 122t-89 89t-122 33q-67 0 -122 -27t-87 -75t-33 -108h-36q0 69 37 125.5z
M126 323v-91q1 -60 33 -108t86.5 -75t122.5 -27q66 0 122.5 33t90 89t33.5 122v57h-488z" />
    <glyph glyph-name="f" unicode="f" 
d="M139 696h519v-37h-482v-292h390v-37h-390v-330h-37v696z" />
    <glyph glyph-name="g" unicode="g" 
d="M615 143q-27 -69 -98 -113.5t-152 -44.5q-78 0 -144 39t-104.5 107.5t-38.5 150.5v140q0 80 38.5 146t104 104.5t144.5 38.5q65 0 119 -21.5t92 -62.5q31 -34 50.5 -76t19.5 -85h-36q-1 37 -18.5 73t-44.5 65q-67 70 -182 70q-69 0 -126.5 -33.5t-90.5 -91t-33 -127.5
v-140q0 -73 33.5 -132.5t91 -93.5t125.5 -34q69 0 126.5 33.5t90.5 91t33 125.5v35h-250v37h287v-344h-37v143z" />
    <glyph glyph-name="gbreve" unicode="&#x11f;" 
d="M462 804q-42 -27 -92 -27t-92 27t-62 72l33 16q16 -36 49 -57t72 -21t72 21t49 57l33 -16q-20 -45 -62 -72zM506 679q64 -32 101.5 -88t37.5 -125h-36q-1 60 -33.5 107t-87.5 74t-123 27q-69 0 -126.5 -33.5t-90.5 -91t-33 -127.5v-140q0 -73 33.5 -132.5t91 -93.5
t125.5 -34q69 0 126.5 33.5t90.5 91t33 125.5v35h-250v37h287v-344h-37v143q-27 -69 -98 -113.5t-152 -44.5q-78 0 -144 39t-104.5 107.5t-38.5 150.5v140q0 80 38.5 146t104 104.5t144.5 38.5q77 0 141 -32z" />
    <glyph glyph-name="gcaron" unicode="&#x1e7;" 
d="M219 896l148 -148l148 148l-26 26l-122 -122l-122 122zM615 272v35h-250v37h287v-344h-37v143q-27 -69 -98 -113.5t-152 -44.5q-78 0 -144 39t-104.5 107.5t-38.5 150.5v140q0 80 38.5 146t104 104.5t144.5 38.5q65 0 119 -21.5t92 -62.5q31 -34 50.5 -76t19.5 -85h-36
q-1 37 -18.5 73t-44.5 65q-67 70 -182 70q-69 0 -126.5 -33.5t-90.5 -91t-33 -127.5v-140q0 -73 33.5 -132.5t91 -93.5t125.5 -34q83 0 149.5 49t90.5 126q10 34 10 75z" />
    <glyph glyph-name="gcircumflex" unicode="&#x11d;" 
d="M219 774l148 148l148 -148l-26 -26l-122 122l-122 -122zM615 272v35h-250v37h287v-344h-37v143q-27 -69 -98 -113.5t-152 -44.5q-78 0 -144 39t-104.5 107.5t-38.5 150.5v140q0 80 38.5 146t104 104.5t144.5 38.5q65 0 119 -21.5t92 -62.5q31 -34 50.5 -76t19.5 -85h-36
q-1 37 -18.5 73t-44.5 65q-67 70 -182 70q-69 0 -126.5 -33.5t-90.5 -91t-33 -127.5v-140q0 -73 33.5 -132.5t91 -93.5t125.5 -34q83 0 149.5 49t90.5 126q10 34 10 75z" />
    <glyph glyph-name="uni0123" unicode="&#x123;" 
d="M615 272v35h-250v37h287v-344h-37v143q-27 -69 -98 -113.5t-152 -44.5q-78 0 -144 39t-104.5 107.5t-38.5 150.5v140q0 80 38.5 146t104 104.5t144.5 38.5q65 0 119 -21.5t92 -62.5q31 -34 50.5 -76t19.5 -85h-36q-1 37 -18.5 73t-44.5 65q-67 70 -182 70
q-69 0 -126.5 -33.5t-90.5 -91t-33 -127.5v-140q0 -73 33.5 -132.5t91 -93.5t125.5 -34q83 0 149.5 49t90.5 126q10 34 10 75zM338 -223l27 47q-25 1 -43 19.5t-18 43.5q0 26 18.5 44.5t44.5 18.5t44.5 -18.5t18.5 -44.5q0 -15 -14 -41l-40 -69h-38z" />
    <glyph glyph-name="gdotaccent" unicode="&#x121;" 
d="M309.5 791.5q-23.5 23.5 -23.5 57.5t23.5 58t57.5 24t58 -24t24 -58t-24 -57.5t-58 -23.5t-57.5 23.5zM334 816q14 -14 33 -14q20 0 33.5 14t13.5 33q0 20 -13.5 34t-33.5 14t-33.5 -14t-13.5 -34q0 -19 14 -33zM615 272v35h-250v37h287v-344h-37v143q-27 -69 -98 -113.5
t-152 -44.5q-78 0 -144 39t-104.5 107.5t-38.5 150.5v140q0 80 38.5 146t104 104.5t144.5 38.5q65 0 119 -21.5t92 -62.5q31 -34 50.5 -76t19.5 -85h-36q-1 37 -18.5 73t-44.5 65q-67 70 -182 70q-69 0 -126.5 -33.5t-90.5 -91t-33 -127.5v-140q0 -73 33.5 -132.5t91 -93.5
t125.5 -34q83 0 149.5 49t90.5 126q10 34 10 75z" />
    <glyph glyph-name="h" unicode="h" 
d="M102 0v696h37v-329h462v329h37v-696h-37v330h-462v-330h-37z" />
    <glyph glyph-name="hbar" unicode="&#x127;" 
d="M638 696v-696h-37v330h-462v-330h-37v696h37v-165h462v165h37zM601 367v127h-462v-127h462z" />
    <glyph glyph-name="hcircumflex" unicode="&#x125;" 
d="M222 774l148 148l148 -148l-26 -26l-122 122l-122 -122zM638 696v-696h-37v330h-462v-330h-37v696h37v-329h462v329h37z" />
    <glyph glyph-name="i" unicode="i" 
d="M596 696v-37h-208v-622h208v-37h-451v37h207v622h-207v37h451z" />
    <glyph glyph-name="dotlessi" unicode="&#x131;" 
d="M352 37v622h-207v37h450v-37h-207v-622h207v-37h-450v37h207z" />
    <glyph glyph-name="iacute" unicode="&#xed;" 
d="M352 37v622h-207v37h450v-37h-207v-622h207v-37h-450v37h207zM437 912l35 -45l-173 -126l-19 25z" />
    <glyph glyph-name="ibreve" unicode="&#x12d;" 
d="M352 37v622h-207v37h450v-37h-207v-622h207v-37h-450v37h207zM524 876q-20 -45 -62 -72t-92 -27t-92 27t-62 72l33 16q16 -36 49 -57t72 -21t71.5 21t49.5 56z" />
    <glyph glyph-name="icircumflex" unicode="&#xee;" 
d="M352 37v622h-207v37h450v-37h-207v-622h207v-37h-450v37h207zM222 774l148 148l148 -148l-26 -26l-122 122l-122 -122z" />
    <glyph glyph-name="uni0209" unicode="&#x209;" 
d="M220 916l-45 -35l125 -147l25 19zM440 916l-45 -35l125 -147l25 19zM352 37v622h-207v37h450v-37h-207v-622h207v-37h-450v37h207z" />
    <glyph glyph-name="idieresis" unicode="&#xef;" 
d="M352 37v622h-207v37h450v-37h-207v-622h207v-37h-450v37h207zM201.5 791.5q-23.5 23.5 -23.5 57.5t23.5 58t57.5 24t58 -24t24 -58t-24 -57.5t-58 -23.5t-57.5 23.5zM423.5 791.5q-23.5 23.5 -23.5 57.5t23.5 58t57.5 24t58 -24t24 -58t-24 -57.5t-58 -23.5t-57.5 23.5z
M225.5 816q13.5 -14 33.5 -14q19 0 33 14t14 33q0 20 -13.5 34t-33.5 14t-33.5 -14t-13.5 -34q0 -19 13.5 -33zM447.5 816q13.5 -14 33.5 -14q19 0 33 14t14 33q0 20 -13.5 34t-33.5 14t-33.5 -14t-13.5 -34q0 -19 13.5 -33z" />
    <glyph glyph-name="i.loclTRK" 
d="M352 37v622h-207v37h450v-37h-207v-622h207v-37h-450v37h207zM312.5 798.5q-23.5 23.5 -23.5 57.5t23.5 58t57.5 24t58 -24t24 -58t-24 -57.5t-58 -23.5t-57.5 23.5zM336.5 823q13.5 -14 33.5 -14q19 0 33 14t14 33q0 20 -13.5 34t-33.5 14t-33.5 -14t-13.5 -34
q0 -19 13.5 -33z" />
    <glyph glyph-name="uni1ECB" unicode="&#x1ecb;" 
d="M352 37v622h-207v37h450v-37h-207v-622h207v-37h-450v37h207zM312.5 -193.5q-23.5 23.5 -23.5 57.5t23.5 58t57.5 24t58 -24t24 -58t-24 -57.5t-58 -23.5t-57.5 23.5zM337 -169.5q14 -13.5 33 -13.5q20 0 33.5 13.5t13.5 33.5t-13.5 34t-33.5 14t-33.5 -14t-13.5 -34
t14 -33.5z" />
    <glyph glyph-name="igrave" unicode="&#xec;" 
d="M352 37v622h-207v37h450v-37h-207v-622h207v-37h-450v37h207zM303 912l-35 -45l173 -126l19 25z" />
    <glyph glyph-name="uni1EC9" unicode="&#x1ec9;" 
d="M389 872.5q-13 11.5 -37 11.5h-20v34h20q39 0 62 -20.5t23 -52.5q0 -31 -21 -52.5t-52 -22.5v-25h-32v59h26q19 0 31.5 11.5t12.5 28.5t-13 28.5zM352 37v622h-207v37h450v-37h-207v-622h207v-37h-450v37h207z" />
    <glyph glyph-name="uni020B" unicode="&#x20b;" 
d="M596 696v-37h-208v-622h208v-37h-451v37h207v622h-207v37h451zM249 777q17 35 49.5 56.5t71.5 21.5t71.5 -21.5t49.5 -56.5l33 16q-20 45 -62 72t-92 27t-92 -27t-62 -72z" />
    <glyph glyph-name="imacron" unicode="&#x12b;" 
d="M352 37v622h-207v37h450v-37h-207v-622h207v-37h-450v37h207zM518 827v-37h-296v37h296z" />
    <glyph glyph-name="iogonek" unicode="&#x12f;" 
d="M528.5 -154.5q26.5 -25.5 67.5 -25.5v-37q-55 0 -93 36t-38 88q0 56 45 93h-365v37h207v622h-207v37h450v-37h-207v-622h207v-36l1 -1q-39 0 -66.5 -27t-27.5 -65q0 -37 26.5 -62.5z" />
    <glyph glyph-name="itilde" unicode="&#x129;" 
d="M352 37v622h-207v37h450v-37h-207v-622h207v-37h-450v37h207zM541 833q-44 -53 -103 -53q-42 0 -83 28q-29 21 -57 21q-40 0 -74 -42l-29 24q45 54 103 54q38 0 78 -26q32 -22 63 -22q41 0 73 40z" />
    <glyph glyph-name="j" unicode="j" 
d="M226 17.5q-61 32.5 -100 89.5t-46 126h37q7 -59 41 -107.5t86.5 -76t113.5 -27.5q67 0 123 33t89 91t33 130v383h-312v37h348v-420q0 -82 -37.5 -148.5t-102 -104.5t-141.5 -38q-71 0 -132 32.5z" />
    <glyph glyph-name="uni0237" unicode="&#x237;" 
d="M639 276q0 -82 -37.5 -148.5t-102 -104.5t-141.5 -38q-71 0 -132 32.5t-100 89.5t-46 126h37q7 -59 41 -107.5t86.5 -76t113.5 -27.5q67 0 123 33t89 91t33 130v383h-312v37h348v-420z" />
    <glyph glyph-name="jcircumflex" unicode="&#x135;" 
d="M307 770l148 148l148 -148l-26 -26l-122 122l-122 -122zM639 276q0 -82 -37.5 -148.5t-102 -104.5t-141.5 -38q-71 0 -132 32.5t-100 89.5t-46 126h37q7 -59 41 -107.5t86.5 -76t113.5 -27.5q67 0 123 33t89 91t33 130v383h-312v37h348v-420z" />
    <glyph glyph-name="k" unicode="k" 
d="M147 696v-471l472 471h52l-291 -290l290 -406h-44l-272 380l-207 -207v-173h-37v696h37z" />
    <glyph glyph-name="uni0137" unicode="&#x137;" 
d="M380 406l290 -406h-44l-272 380l-207 -207v-173h-37v696h37v-471l472 471h52zM339 -223l27 47q-25 1 -43 19.5t-18 43.5q0 26 18.5 44.5t44.5 18.5t44.5 -18.5t18.5 -44.5q0 -15 -14 -41l-40 -69h-38z" />
    <glyph glyph-name="kgreenlandic" unicode="&#x138;" 
d="M380 406l290 -406h-44l-272 380l-207 -207v-173h-37v696h37v-471l472 471h52z" />
    <glyph glyph-name="l" unicode="l" 
d="M155 0v696h37v-659h485v-37h-522z" />
    <glyph glyph-name="lacute" unicode="&#x13a;" 
d="M155 0v696h37v-659h485v-37h-522zM241 912l35 -45l-173 -126l-19 25z" />
    <glyph glyph-name="lcaron" unicode="&#x13e;" 
d="M429 703l37 -7l-49 -211l-37 7zM155 0v696h37v-659h485v-37h-522z" />
    <glyph glyph-name="uni013C" unicode="&#x13c;" 
d="M155 0v696h37v-659h485v-37h-522zM393 -223l27 47q-25 1 -43 19.5t-18 43.5q0 26 18.5 44.5t44.5 18.5t44.5 -18.5t18.5 -44.5q0 -15 -14 -41l-40 -69h-38z" />
    <glyph glyph-name="ldot" unicode="&#x140;" 
d="M155 0v696h37v-659h485v-37h-522zM485.5 436.5q26.5 26.5 64.5 26.5t64.5 -26.5t26.5 -63.5t-26.5 -64t-64.5 -27q-37 0 -64 27t-27 64t26.5 63.5z" />
    <glyph glyph-name="uni01C9" unicode="&#x1c9;" horiz-adv-x="1480" 
d="M155 0v696h37v-659h485v-37h-522zM1379 276q0 -82 -37.5 -148.5t-102 -104.5t-141.5 -38q-71 0 -132 32.5t-100 89.5t-46 126h37q7 -59 41 -107.5t86.5 -76t113.5 -27.5q67 0 123 33t89 91t33 130v383h-312v37h348v-420z" />
    <glyph glyph-name="lslash" unicode="&#x142;" 
d="M677 37v-37h-522v309l-113 -69l-19 31l132 80v345h37v-323l151 92l19 -31l-170 -103v-294h485z" />
    <glyph glyph-name="m" unicode="m" 
d="M126 0h-37v696h40l243 -429l242 429h37v-696h-37v622l-225 -397h-35l-228 402v-627z" />
    <glyph glyph-name="n" unicode="n" 
d="M98 0v696h39l486 -472v472h37v-696h-37v172l-488 476v-648h-37z" />
    <glyph glyph-name="nacute" unicode="&#x144;" 
d="M98 0v696h39l486 -472v472h37v-696h-37v172l-488 476v-648h-37zM450 912l35 -45l-173 -126l-19 25z" />
    <glyph glyph-name="ncaron" unicode="&#x148;" 
d="M98 0v696h39l486 -472v472h37v-696h-37v172l-488 476v-648h-37zM235 896l148 -148l148 148l-26 26l-122 -122l-122 122z" />
    <glyph glyph-name="uni0146" unicode="&#x146;" 
d="M98 0v696h39l486 -472v472h37v-696h-37v172l-488 476v-648h-37zM354 -223l27 47q-25 1 -43 19.5t-18 43.5q0 26 18.5 44.5t44.5 18.5t44.5 -18.5t18.5 -44.5q0 -15 -14 -41l-40 -69h-38z" />
    <glyph glyph-name="eng" unicode="&#x14b;" 
d="M660 696v-701q0 -57 -34 -91.5t-87 -34.5l1 35q39 0 61 24t22 67v177l-488 476v-648h-37v696h39l486 -472v472h37z" />
    <glyph glyph-name="uni01CC" unicode="&#x1cc;" horiz-adv-x="1480" 
d="M98 0v696h39l486 -472v472h37v-696h-37v172l-488 476v-648h-37zM1379 276q0 -82 -37.5 -148.5t-102 -104.5t-141.5 -38q-71 0 -132 32.5t-100 89.5t-46 126h37q7 -59 41 -107.5t86.5 -76t113.5 -27.5q67 0 123 33t89 91t33 130v383h-312v37h348v-420z" />
    <glyph glyph-name="ntilde" unicode="&#xf1;" 
d="M98 0v696h39l486 -472v472h37v-696h-37v172l-488 476v-648h-37zM554 833q-44 -53 -103 -53q-42 0 -83 28q-29 21 -57 21q-40 0 -74 -42l-29 24q45 54 103 54q38 0 78 -26q32 -22 63 -22q41 0 73 40z" />
    <glyph glyph-name="o" unicode="o" 
d="M514 672.5q66 -38.5 104.5 -104.5t38.5 -144v-152q0 -78 -38.5 -144t-104.5 -104.5t-144 -38.5t-144 38.5t-104.5 104.5t-38.5 144v152q0 78 38.5 144t104.5 104.5t144 38.5t144 -38.5zM153.5 146.5q33.5 -57.5 91 -91t125.5 -33.5t125.5 33.5t91 91t33.5 125.5v152
q0 68 -33.5 125.5t-91 91t-125.5 33.5t-125.5 -33.5t-91 -91t-33.5 -125.5v-152q0 -68 33.5 -125.5z" />
    <glyph glyph-name="oacute" unicode="&#xf3;" 
d="M514 672.5q66 -38.5 104.5 -104.5t38.5 -144v-152q0 -78 -38.5 -144t-104.5 -104.5t-144 -38.5t-144 38.5t-104.5 104.5t-38.5 144v152q0 78 38.5 144t104.5 104.5t144 38.5t144 -38.5zM153.5 146.5q33.5 -57.5 91 -91t125.5 -33.5t125.5 33.5t91 91t33.5 125.5v152
q0 68 -33.5 125.5t-91 91t-125.5 33.5t-125.5 -33.5t-91 -91t-33.5 -125.5v-152q0 -68 33.5 -125.5zM437 912l35 -45l-173 -126l-19 25z" />
    <glyph glyph-name="obreve" unicode="&#x14f;" 
d="M514 672.5q66 -38.5 104.5 -104.5t38.5 -144v-152q0 -78 -38.5 -144t-104.5 -104.5t-144 -38.5t-144 38.5t-104.5 104.5t-38.5 144v152q0 78 38.5 144t104.5 104.5t144 38.5t144 -38.5zM153.5 146.5q33.5 -57.5 91 -91t125.5 -33.5t125.5 33.5t91 91t33.5 125.5v152
q0 68 -33.5 125.5t-91 91t-125.5 33.5t-125.5 -33.5t-91 -91t-33.5 -125.5v-152q0 -68 33.5 -125.5zM524 876q-20 -45 -62 -72t-92 -27t-92 27t-62 72l33 16q16 -36 49 -57t72 -21t71.5 21t49.5 56z" />
    <glyph glyph-name="ocircumflex" unicode="&#xf4;" 
d="M514 672.5q66 -38.5 104.5 -104.5t38.5 -144v-152q0 -78 -38.5 -144t-104.5 -104.5t-144 -38.5t-144 38.5t-104.5 104.5t-38.5 144v152q0 78 38.5 144t104.5 104.5t144 38.5t144 -38.5zM153.5 146.5q33.5 -57.5 91 -91t125.5 -33.5t125.5 33.5t91 91t33.5 125.5v152
q0 68 -33.5 125.5t-91 91t-125.5 33.5t-125.5 -33.5t-91 -91t-33.5 -125.5v-152q0 -68 33.5 -125.5zM222 774l148 148l148 -148l-26 -26l-122 122l-122 -122z" />
    <glyph glyph-name="uni1ED1" unicode="&#x1ed1;" 
d="M437 1114l-157 -146l19 -25l173 126zM370 922l-148 -148l26 -26l122 122l122 -122l26 26zM618.5 568q-38.5 66 -104.5 104.5t-144 38.5t-144 -38.5t-104.5 -104.5t-38.5 -144v-152q0 -78 38.5 -144t104.5 -104.5t144 -38.5t144 38.5t104.5 104.5t38.5 144v152
q0 78 -38.5 144zM620 272q0 -68 -33.5 -125.5t-91 -91t-125.5 -33.5t-125.5 33.5t-91 91t-33.5 125.5v152q0 68 33.5 125.5t91 91t125.5 33.5t125.5 -33.5t91 -91t33.5 -125.5v-152z" />
    <glyph glyph-name="uni1ED9" unicode="&#x1ed9;" 
d="M222 774l148 148l148 -148l-26 -26l-122 122l-122 -122zM514 672.5q66 -38.5 104.5 -104.5t38.5 -144v-152q0 -78 -38.5 -144t-104.5 -104.5t-144 -38.5t-144 38.5t-104.5 104.5t-38.5 144v152q0 78 38.5 144t104.5 104.5t144 38.5t144 -38.5zM153.5 146.5
q33.5 -57.5 91 -91t125.5 -33.5t125.5 33.5t91 91t33.5 125.5v152q0 68 -33.5 125.5t-91 91t-125.5 33.5t-125.5 -33.5t-91 -91t-33.5 -125.5v-152q0 -68 33.5 -125.5zM312.5 -193.5q-23.5 23.5 -23.5 57.5t23.5 58t57.5 24t58 -24t24 -58t-24 -57.5t-58 -23.5t-57.5 23.5z
M337 -169.5q14 -13.5 33 -13.5q20 0 33.5 13.5t13.5 33.5t-13.5 34t-33.5 14t-33.5 -14t-13.5 -34t14 -33.5z" />
    <glyph glyph-name="uni1ED3" unicode="&#x1ed3;" 
d="M460 968l-157 146l-35 -45l173 -126zM370 922l-148 -148l26 -26l122 122l122 -122l26 26zM618.5 568q-38.5 66 -104.5 104.5t-144 38.5t-144 -38.5t-104.5 -104.5t-38.5 -144v-152q0 -78 38.5 -144t104.5 -104.5t144 -38.5t144 38.5t104.5 104.5t38.5 144v152
q0 78 -38.5 144zM620 272q0 -68 -33.5 -125.5t-91 -91t-125.5 -33.5t-125.5 33.5t-91 91t-33.5 125.5v152q0 68 33.5 125.5t91 91t125.5 33.5t125.5 -33.5t91 -91t33.5 -125.5v-152z" />
    <glyph glyph-name="uni1ED5" unicode="&#x1ed5;" 
d="M389.5 1018q-12.5 -11 -31.5 -12h-26v-59h32v25q31 1 52 22.5t21 52.5q0 32 -23 52.5t-62 20.5h-20v-34h20q24 0 37 -11.5t13 -28.5t-12.5 -28zM492 748l26 26l-148 148l-148 -148l26 -26l122 122zM514 23.5q66 38.5 104.5 104.5t38.5 144v152q0 78 -38.5 144
t-104.5 104.5t-144 38.5t-144 -38.5t-104.5 -104.5t-38.5 -144v-152q0 -78 38.5 -144t104.5 -104.5t144 -38.5t144 38.5zM495.5 640.5q57.5 -33.5 91 -91t33.5 -125.5v-152q0 -68 -33.5 -125.5t-91 -91t-125.5 -33.5t-125.5 33.5t-91 91t-33.5 125.5v152q0 68 33.5 125.5
t91 91t125.5 33.5t125.5 -33.5z" />
    <glyph glyph-name="uni1ED7" unicode="&#x1ed7;" 
d="M438 1019q-30 0 -62 22q-40 26 -78 26q-58 0 -103 -54l29 -24q33 41 74 41q29 0 57 -20q41 -28 84 -28q58 0 102 53l-29 24q-32 -40 -74 -40zM518 774l-148 148l-148 -148l26 -26l122 122l122 -122zM514 23.5q66 38.5 104.5 104.5t38.5 144v152q0 78 -38.5 144
t-104.5 104.5t-144 38.5t-144 -38.5t-104.5 -104.5t-38.5 -144v-152q0 -78 38.5 -144t104.5 -104.5t144 -38.5t144 38.5zM495.5 640.5q57.5 -33.5 91 -91t33.5 -125.5v-152q0 -68 -33.5 -125.5t-91 -91t-125.5 -33.5t-125.5 33.5t-91 91t-33.5 125.5v152q0 68 33.5 125.5
t91 91t125.5 33.5t125.5 -33.5z" />
    <glyph glyph-name="uni020D" unicode="&#x20d;" 
d="M220 916l-45 -35l125 -147l25 19zM440 916l-45 -35l125 -147l25 19zM514 672.5q66 -38.5 104.5 -104.5t38.5 -144v-152q0 -78 -38.5 -144t-104.5 -104.5t-144 -38.5t-144 38.5t-104.5 104.5t-38.5 144v152q0 78 38.5 144t104.5 104.5t144 38.5t144 -38.5zM153.5 146.5
q33.5 -57.5 91 -91t125.5 -33.5t125.5 33.5t91 91t33.5 125.5v152q0 68 -33.5 125.5t-91 91t-125.5 33.5t-125.5 -33.5t-91 -91t-33.5 -125.5v-152q0 -68 33.5 -125.5z" />
    <glyph glyph-name="odieresis" unicode="&#xf6;" 
d="M514 672.5q66 -38.5 104.5 -104.5t38.5 -144v-152q0 -78 -38.5 -144t-104.5 -104.5t-144 -38.5t-144 38.5t-104.5 104.5t-38.5 144v152q0 78 38.5 144t104.5 104.5t144 38.5t144 -38.5zM153.5 146.5q33.5 -57.5 91 -91t125.5 -33.5t125.5 33.5t91 91t33.5 125.5v152
q0 68 -33.5 125.5t-91 91t-125.5 33.5t-125.5 -33.5t-91 -91t-33.5 -125.5v-152q0 -68 33.5 -125.5zM316 907q24 -24 24 -58t-24 -57.5t-58 -23.5t-57.5 23.5t-23.5 57.5t23.5 58t57.5 24t58 -24zM422.5 791.5q-23.5 23.5 -23.5 57.5t23.5 58t57.5 24t58 -24t24 -58
t-24 -57.5t-58 -23.5t-57.5 23.5zM291.5 816q13.5 14 13.5 33q0 20 -13.5 34t-33.5 14t-33.5 -14t-13.5 -34q0 -19 14 -33t33 -14q20 0 33.5 14zM446.5 883q-13.5 -14 -13.5 -34q0 -19 14 -33t33 -14q20 0 33.5 14t13.5 33q0 20 -13.5 34t-33.5 14t-33.5 -14z" />
    <glyph glyph-name="uni022B" unicode="&#x22b;" 
d="M201.5 791.5q-23.5 23.5 -23.5 57.5t23.5 58t57.5 24t58 -24t24 -58t-24 -57.5t-58 -23.5t-57.5 23.5zM423.5 791.5q-23.5 23.5 -23.5 57.5t23.5 58t57.5 24t58 -24t24 -58t-24 -57.5t-58 -23.5t-57.5 23.5zM225.5 816q13.5 -14 33.5 -14q19 0 33 14t14 33q0 20 -13.5 34
t-33.5 14t-33.5 -14t-13.5 -34q0 -19 13.5 -33zM447.5 816q13.5 -14 33.5 -14q19 0 33 14t14 33q0 20 -13.5 34t-33.5 14t-33.5 -14t-13.5 -34q0 -19 13.5 -33zM518 1061v-37h-296v37h296zM514 672.5q66 -38.5 104.5 -104.5t38.5 -144v-152q0 -78 -38.5 -144t-104.5 -104.5
t-144 -38.5t-144 38.5t-104.5 104.5t-38.5 144v152q0 78 38.5 144t104.5 104.5t144 38.5t144 -38.5zM153.5 146.5q33.5 -57.5 91 -91t125.5 -33.5t125.5 33.5t91 91t33.5 125.5v152q0 68 -33.5 125.5t-91 91t-125.5 33.5t-125.5 -33.5t-91 -91t-33.5 -125.5v-152
q0 -68 33.5 -125.5z" />
    <glyph glyph-name="uni0231" unicode="&#x231;" 
d="M312.5 791.5q-23.5 23.5 -23.5 57.5t23.5 58t57.5 24t58 -24t24 -58t-24 -57.5t-58 -23.5t-57.5 23.5zM336.5 816q13.5 -14 33.5 -14q19 0 33 14t14 33q0 20 -13.5 34t-33.5 14t-33.5 -14t-13.5 -34q0 -19 13.5 -33zM518 1061v-37h-296v37h296zM514 672.5
q66 -38.5 104.5 -104.5t38.5 -144v-152q0 -78 -38.5 -144t-104.5 -104.5t-144 -38.5t-144 38.5t-104.5 104.5t-38.5 144v152q0 78 38.5 144t104.5 104.5t144 38.5t144 -38.5zM153.5 146.5q33.5 -57.5 91 -91t125.5 -33.5t125.5 33.5t91 91t33.5 125.5v152q0 68 -33.5 125.5
t-91 91t-125.5 33.5t-125.5 -33.5t-91 -91t-33.5 -125.5v-152q0 -68 33.5 -125.5z" />
    <glyph glyph-name="uni1ECD" unicode="&#x1ecd;" 
d="M514 672.5q66 -38.5 104.5 -104.5t38.5 -144v-152q0 -78 -38.5 -144t-104.5 -104.5t-144 -38.5t-144 38.5t-104.5 104.5t-38.5 144v152q0 78 38.5 144t104.5 104.5t144 38.5t144 -38.5zM153.5 146.5q33.5 -57.5 91 -91t125.5 -33.5t125.5 33.5t91 91t33.5 125.5v152
q0 68 -33.5 125.5t-91 91t-125.5 33.5t-125.5 -33.5t-91 -91t-33.5 -125.5v-152q0 -68 33.5 -125.5zM312.5 -193.5q-23.5 23.5 -23.5 57.5t23.5 58t57.5 24t58 -24t24 -58t-24 -57.5t-58 -23.5t-57.5 23.5zM337 -169.5q14 -13.5 33 -13.5q20 0 33.5 13.5t13.5 33.5t-13.5 34
t-33.5 14t-33.5 -14t-13.5 -34t14 -33.5z" />
    <glyph glyph-name="ograve" unicode="&#xf2;" 
d="M514 672.5q66 -38.5 104.5 -104.5t38.5 -144v-152q0 -78 -38.5 -144t-104.5 -104.5t-144 -38.5t-144 38.5t-104.5 104.5t-38.5 144v152q0 78 38.5 144t104.5 104.5t144 38.5t144 -38.5zM153.5 146.5q33.5 -57.5 91 -91t125.5 -33.5t125.5 33.5t91 91t33.5 125.5v152
q0 68 -33.5 125.5t-91 91t-125.5 33.5t-125.5 -33.5t-91 -91t-33.5 -125.5v-152q0 -68 33.5 -125.5zM303 912l-35 -45l173 -126l19 25z" />
    <glyph glyph-name="uni1ECF" unicode="&#x1ecf;" 
d="M389 872.5q-13 11.5 -37 11.5h-20v34h20q39 0 62 -20.5t23 -52.5q0 -31 -21 -52.5t-52 -22.5v-25h-32v59h26q19 0 31.5 11.5t12.5 28.5t-13 28.5zM514 672.5q66 -38.5 104.5 -104.5t38.5 -144v-152q0 -78 -38.5 -144t-104.5 -104.5t-144 -38.5t-144 38.5t-104.5 104.5
t-38.5 144v152q0 78 38.5 144t104.5 104.5t144 38.5t144 -38.5zM153.5 146.5q33.5 -57.5 91 -91t125.5 -33.5t125.5 33.5t91 91t33.5 125.5v152q0 68 -33.5 125.5t-91 91t-125.5 33.5t-125.5 -33.5t-91 -91t-33.5 -125.5v-152q0 -68 33.5 -125.5z" />
    <glyph glyph-name="ohorn" unicode="&#x1a1;" 
d="M637.5 684.5q-28.5 -35.5 -76.5 -47.5q45 -40 70.5 -95t25.5 -118v-152q0 -78 -38.5 -144t-104.5 -104.5t-144 -38.5t-144 38.5t-104.5 104.5t-38.5 144v152q0 78 38.5 144t104.5 104.5t144 38.5q87 0 160 -49q44 3 71.5 33.5t27.5 79.5v86h37v-86q0 -55 -28.5 -90.5z
M586.5 549.5q-33.5 57.5 -91 91t-125.5 33.5t-125.5 -33.5t-91 -91t-33.5 -125.5v-152q0 -68 33.5 -125.5t91 -91t125.5 -33.5t125.5 33.5t91 91t33.5 125.5v152q0 68 -33.5 125.5z" />
    <glyph glyph-name="uni1EDB" unicode="&#x1edb;" 
d="M299 741l-19 25l157 146l35 -45zM637.5 684.5q-28.5 -35.5 -76.5 -47.5q45 -40 70.5 -95t25.5 -118v-152q0 -78 -38.5 -144t-104.5 -104.5t-144 -38.5t-144 38.5t-104.5 104.5t-38.5 144v152q0 78 38.5 144t104.5 104.5t144 38.5q87 0 160 -49q44 3 71.5 33.5t27.5 79.5
v86h37v-86q0 -55 -28.5 -90.5zM586.5 549.5q-33.5 57.5 -91 91t-125.5 33.5t-125.5 -33.5t-91 -91t-33.5 -125.5v-152q0 -68 33.5 -125.5t91 -91t125.5 -33.5t125.5 33.5t91 91t33.5 125.5v152q0 68 -33.5 125.5z" />
    <glyph glyph-name="uni1EE3" unicode="&#x1ee3;" 
d="M637.5 684.5q-28.5 -35.5 -76.5 -47.5q45 -40 70.5 -95t25.5 -118v-152q0 -78 -38.5 -144t-104.5 -104.5t-144 -38.5t-144 38.5t-104.5 104.5t-38.5 144v152q0 78 38.5 144t104.5 104.5t144 38.5q87 0 160 -49q44 3 71.5 33.5t27.5 79.5v86h37v-86q0 -55 -28.5 -90.5z
M586.5 549.5q-33.5 57.5 -91 91t-125.5 33.5t-125.5 -33.5t-91 -91t-33.5 -125.5v-152q0 -68 33.5 -125.5t91 -91t125.5 -33.5t125.5 33.5t91 91t33.5 125.5v152q0 68 -33.5 125.5zM428 -78q24 -24 24 -58t-24 -57.5t-58 -23.5t-57.5 23.5t-23.5 57.5t23.5 58t57.5 24
t58 -24zM403.5 -169.5q13.5 13.5 13.5 33.5t-13.5 34t-33.5 14t-33.5 -14t-13.5 -34t14 -33.5t33 -13.5q20 0 33.5 13.5z" />
    <glyph glyph-name="uni1EDD" unicode="&#x1edd;" 
d="M441 741l-173 126l35 45l157 -146zM637.5 684.5q-28.5 -35.5 -76.5 -47.5q45 -40 70.5 -95t25.5 -118v-152q0 -78 -38.5 -144t-104.5 -104.5t-144 -38.5t-144 38.5t-104.5 104.5t-38.5 144v152q0 78 38.5 144t104.5 104.5t144 38.5q87 0 160 -49q44 3 71.5 33.5
t27.5 79.5v86h37v-86q0 -55 -28.5 -90.5zM586.5 549.5q-33.5 57.5 -91 91t-125.5 33.5t-125.5 -33.5t-91 -91t-33.5 -125.5v-152q0 -68 33.5 -125.5t91 -91t125.5 -33.5t125.5 33.5t91 91t33.5 125.5v152q0 68 -33.5 125.5z" />
    <glyph glyph-name="uni1EDF" unicode="&#x1edf;" 
d="M364 745h-32v59h26q19 0 31.5 11.5t12.5 28.5t-13 28.5t-37 11.5h-20v34h20q39 0 62 -20.5t23 -52.5q0 -31 -21 -52.5t-52 -22.5v-25zM637.5 684.5q-28.5 -35.5 -76.5 -47.5q45 -40 70.5 -95t25.5 -118v-152q0 -78 -38.5 -144t-104.5 -104.5t-144 -38.5t-144 38.5
t-104.5 104.5t-38.5 144v152q0 78 38.5 144t104.5 104.5t144 38.5q87 0 160 -49q44 3 71.5 33.5t27.5 79.5v86h37v-86q0 -55 -28.5 -90.5zM586.5 549.5q-33.5 57.5 -91 91t-125.5 33.5t-125.5 -33.5t-91 -91t-33.5 -125.5v-152q0 -68 33.5 -125.5t91 -91t125.5 -33.5
t125.5 33.5t91 91t33.5 125.5v152q0 68 -33.5 125.5z" />
    <glyph glyph-name="uni1EE1" unicode="&#x1ee1;" 
d="M298 829q-40 0 -74 -42l-29 24q45 54 103 54q38 0 78 -26q32 -22 63 -22q41 0 73 40l29 -24q-44 -53 -103 -53q-42 0 -83 28q-29 21 -57 21zM637.5 684.5q-28.5 -35.5 -76.5 -47.5q45 -40 70.5 -95t25.5 -118v-152q0 -78 -38.5 -144t-104.5 -104.5t-144 -38.5t-144 38.5
t-104.5 104.5t-38.5 144v152q0 78 38.5 144t104.5 104.5t144 38.5q87 0 160 -49q44 3 71.5 33.5t27.5 79.5v86h37v-86q0 -55 -28.5 -90.5zM586.5 549.5q-33.5 57.5 -91 91t-125.5 33.5t-125.5 -33.5t-91 -91t-33.5 -125.5v-152q0 -68 33.5 -125.5t91 -91t125.5 -33.5
t125.5 33.5t91 91t33.5 125.5v152q0 68 -33.5 125.5z" />
    <glyph glyph-name="ohungarumlaut" unicode="&#x151;" 
d="M514 672.5q66 -38.5 104.5 -104.5t38.5 -144v-152q0 -78 -38.5 -144t-104.5 -104.5t-144 -38.5t-144 38.5t-104.5 104.5t-38.5 144v152q0 78 38.5 144t104.5 104.5t144 38.5t144 -38.5zM153.5 146.5q33.5 -57.5 91 -91t125.5 -33.5t125.5 33.5t91 91t33.5 125.5v152
q0 68 -33.5 125.5t-91 91t-125.5 33.5t-125.5 -33.5t-91 -91t-33.5 -125.5v-152q0 -68 33.5 -125.5zM300 916l45 -35l-125 -147l-25 19zM520 916l45 -35l-126 -147l-24 19z" />
    <glyph glyph-name="uni020F" unicode="&#x20f;" 
d="M524 793q-20 45 -62 72t-92 27t-92 -27t-62 -72l33 -16q17 35 49.5 56.5t71.5 21.5t71.5 -21.5t49.5 -56.5zM514 672.5q66 -38.5 104.5 -104.5t38.5 -144v-152q0 -78 -38.5 -144t-104.5 -104.5t-144 -38.5t-144 38.5t-104.5 104.5t-38.5 144v152q0 78 38.5 144
t104.5 104.5t144 38.5t144 -38.5zM153.5 146.5q33.5 -57.5 91 -91t125.5 -33.5t125.5 33.5t91 91t33.5 125.5v152q0 68 -33.5 125.5t-91 91t-125.5 33.5t-125.5 -33.5t-91 -91t-33.5 -125.5v-152q0 -68 33.5 -125.5z" />
    <glyph glyph-name="omacron" unicode="&#x14d;" 
d="M514 672.5q66 -38.5 104.5 -104.5t38.5 -144v-152q0 -78 -38.5 -144t-104.5 -104.5t-144 -38.5t-144 38.5t-104.5 104.5t-38.5 144v152q0 78 38.5 144t104.5 104.5t144 38.5t144 -38.5zM153.5 146.5q33.5 -57.5 91 -91t125.5 -33.5t125.5 33.5t91 91t33.5 125.5v152
q0 68 -33.5 125.5t-91 91t-125.5 33.5t-125.5 -33.5t-91 -91t-33.5 -125.5v-152q0 -68 33.5 -125.5zM518 827v-37h-296v37h296z" />
    <glyph glyph-name="uni01EB" unicode="&#x1eb;" 
d="M514 672.5q66 -38.5 104.5 -104.5t38.5 -144v-152q0 -83 -44.5 -152.5t-117.5 -105.5q-48 -35 -48 -89q0 -44 32.5 -74.5t81.5 -30.5v-37q-42 0 -76.5 19t-54.5 51.5t-20 70.5q0 37 19 67q-28 -6 -59 -6q-78 0 -144 38.5t-104.5 104.5t-38.5 144v152q0 78 38.5 144
t104.5 104.5t144 38.5t144 -38.5zM620 424q0 68 -33.5 125.5t-91 91t-125.5 33.5t-125.5 -33.5t-91 -91t-33.5 -125.5v-152q0 -68 33.5 -125.5t91 -91t125.5 -33.5t125.5 33.5t91 91t33.5 125.5v152z" />
    <glyph glyph-name="oslash" unicode="&#xf8;" 
d="M635.5 533.5q21.5 -51.5 21.5 -109.5v-152q0 -78 -38.5 -144t-104.5 -104.5t-144 -38.5q-50 0 -95.5 16t-82.5 46l-65 -99l-30 20l68 103q-39 40 -60.5 91.5t-21.5 109.5v152q0 78 38.5 144t104.5 104.5t144 38.5q99 0 177 -62l66 100l30 -21l-68 -103q39 -40 60.5 -91.5
zM137.5 180.5q17.5 -43.5 48.5 -77.5l341 516q-33 26 -73.5 40.5t-83.5 14.5q-68 0 -125.5 -33.5t-91 -91t-33.5 -125.5v-152q0 -48 17.5 -91.5zM620 424q0 48 -17.5 91.5t-48.5 77.5l-341 -515q69 -56 157 -56q68 0 125.5 33.5t91 91t33.5 125.5v152z" />
    <glyph glyph-name="oslashacute" unicode="&#x1ff;" 
d="M299 741l-19 25l157 146l35 -45zM635.5 533.5q21.5 -51.5 21.5 -109.5v-152q0 -78 -38.5 -144t-104.5 -104.5t-144 -38.5q-50 0 -95.5 16t-82.5 46l-65 -99l-30 20l68 103q-39 40 -60.5 91.5t-21.5 109.5v152q0 78 38.5 144t104.5 104.5t144 38.5q99 0 177 -62l66 100
l30 -21l-68 -103q39 -40 60.5 -91.5zM137.5 180.5q17.5 -43.5 48.5 -77.5l341 516q-33 26 -73.5 40.5t-83.5 14.5q-68 0 -125.5 -33.5t-91 -91t-33.5 -125.5v-152q0 -48 17.5 -91.5zM620 424q0 48 -17.5 91.5t-48.5 77.5l-341 -515q69 -56 157 -56q68 0 125.5 33.5t91 91
t33.5 125.5v152z" />
    <glyph glyph-name="otilde" unicode="&#xf5;" 
d="M514 672.5q66 -38.5 104.5 -104.5t38.5 -144v-152q0 -78 -38.5 -144t-104.5 -104.5t-144 -38.5t-144 38.5t-104.5 104.5t-38.5 144v152q0 78 38.5 144t104.5 104.5t144 38.5t144 -38.5zM153.5 146.5q33.5 -57.5 91 -91t125.5 -33.5t125.5 33.5t91 91t33.5 125.5v152
q0 68 -33.5 125.5t-91 91t-125.5 33.5t-125.5 -33.5t-91 -91t-33.5 -125.5v-152q0 -68 33.5 -125.5zM541 833q-44 -53 -103 -53q-42 0 -83 28q-29 21 -57 21q-40 0 -74 -42l-29 24q45 54 103 54q38 0 78 -26q32 -22 63 -22q41 0 73 40z" />
    <glyph glyph-name="uni022D" unicode="&#x22d;" 
d="M543 833q-44 -53 -103 -53q-42 0 -83 28q-29 21 -57 21q-40 0 -74 -42l-29 24q45 54 103 54q38 0 78 -26q32 -22 63 -22q41 0 73 40zM520 1061v-37h-296v37h296zM514 672.5q66 -38.5 104.5 -104.5t38.5 -144v-152q0 -78 -38.5 -144t-104.5 -104.5t-144 -38.5t-144 38.5
t-104.5 104.5t-38.5 144v152q0 78 38.5 144t104.5 104.5t144 38.5t144 -38.5zM153.5 146.5q33.5 -57.5 91 -91t125.5 -33.5t125.5 33.5t91 91t33.5 125.5v152q0 68 -33.5 125.5t-91 91t-125.5 33.5t-125.5 -33.5t-91 -91t-33.5 -125.5v-152q0 -68 33.5 -125.5z" />
    <glyph glyph-name="oe" unicode="&#x153;" 
d="M684 659h-294v-282h238v-37h-238v-303h294v-37h-331q-78 0 -143 36.5t-103.5 99.5t-38.5 139v146q0 76 38 139t103.5 99.5t143.5 36.5h331v-37zM106 275q0 -67 33 -121.5t90 -86t124 -31.5v623q-68 0 -124.5 -31.5t-89.5 -86.5t-33 -121v-145z" />
    <glyph glyph-name="p" unicode="p" 
d="M176 0h-37v696h280q70 0 129.5 -30t94.5 -85t35 -127q0 -69 -35.5 -127t-96.5 -89q-53 -27 -127 -27h-243v-211zM176 248h243q64 0 105 20q53 25 85 75t32 111q0 60 -32 110t-86 75q-41 20 -104 20h-243v-411z" />
    <glyph glyph-name="thorn" unicode="&#xfe;" 
d="M139 0v707h37v-111h243q73 0 126 -27q61 -31 97 -88.5t36 -126.5t-35.5 -127t-96.5 -89q-53 -27 -127 -27h-243v-111h-37zM176 148h243q64 0 105 20q53 25 85 75t32 111q0 60 -32 110t-86 75q-41 20 -104 20h-243v-411z" />
    <glyph glyph-name="q" unicode="q" 
d="M659 -9l-27 -24l-78 89q-38 -34 -85.5 -52t-100.5 -18q-78 0 -144 38.5t-104.5 104.5t-38.5 144v152q0 78 38.5 144t104.5 104.5t144 38.5t144 -38.5t104.5 -104.5t38.5 -144v-152q0 -54 -19.5 -103.5t-54.5 -88.5zM618 425q0 68 -33.5 125.5t-91 91t-125.5 33.5
t-125.5 -33.5t-91.5 -91t-34 -125.5v-152q0 -68 34 -125.5t91.5 -91t125.5 -33.5q45 0 86.5 15.5t75.5 44.5l-105 120l28 24l103 -118q29 34 45.5 76t16.5 88v152z" />
    <glyph glyph-name="r" unicode="r" 
d="M615.5 590q34.5 -55 34.5 -122q0 -78 -47.5 -139.5t-121.5 -81.5l177 -247h-44l-171 240l-32 -1h-251v-239h-37v696h265q44 0 75.5 -5.5t57.5 -17.5q60 -28 94.5 -83zM421 276q52 0 96 26t70 70t26 96q0 58 -30.5 105t-84.5 70q-39 16 -110 16h-228v-383h261z" />
    <glyph glyph-name="racute" unicode="&#x155;" 
d="M431 912l35 -45l-173 -126l-19 25zM658 0h-44l-171 240l-32 -1h-251v-239h-37v696h265q44 0 75.5 -5.5t57.5 -17.5q60 -28 94.5 -83t34.5 -122q0 -78 -47.5 -139.5t-121.5 -81.5zM517 302q44 26 70 70t26 96q0 58 -30.5 105t-84.5 70q-39 16 -110 16h-228v-383h261
q52 0 96 26z" />
    <glyph glyph-name="rcaron" unicode="&#x159;" 
d="M228 896l148 -148l148 148l-26 26l-122 -122l-122 122zM658 0h-44l-171 240l-32 -1h-251v-239h-37v696h265q44 0 75.5 -5.5t57.5 -17.5q60 -28 94.5 -83t34.5 -122q0 -78 -47.5 -139.5t-121.5 -81.5zM517 302q44 26 70 70t26 96q0 58 -30.5 105t-84.5 70q-39 16 -110 16
h-228v-383h261q52 0 96 26z" />
    <glyph glyph-name="uni0157" unicode="&#x157;" 
d="M658 0h-44l-171 240l-32 -1h-251v-239h-37v696h265q44 0 75.5 -5.5t57.5 -17.5q60 -28 94.5 -83t34.5 -122q0 -78 -47.5 -139.5t-121.5 -81.5zM517 302q44 26 70 70t26 96q0 58 -30.5 105t-84.5 70q-39 16 -110 16h-228v-383h261q52 0 96 26zM341 -223l27 47
q-25 1 -43 19.5t-18 43.5q0 26 18.5 44.5t44.5 18.5t44.5 -18.5t18.5 -44.5q0 -15 -14 -41l-40 -69h-38z" />
    <glyph glyph-name="uni0211" unicode="&#x211;" 
d="M220 916l-45 -35l125 -147l25 19zM440 916l-45 -35l125 -147l25 19zM658 0h-44l-171 240l-32 -1h-251v-239h-37v696h265q44 0 75.5 -5.5t57.5 -17.5q60 -28 94.5 -83t34.5 -122q0 -78 -47.5 -139.5t-121.5 -81.5zM517 302q44 26 70 70t26 96q0 58 -30.5 105t-84.5 70
q-39 16 -110 16h-228v-383h261q52 0 96 26z" />
    <glyph glyph-name="uni0213" unicode="&#x213;" 
d="M615.5 590q34.5 -55 34.5 -122q0 -78 -47.5 -139.5t-121.5 -81.5l177 -247h-44l-171 240l-32 -1h-251v-239h-37v696h265q44 0 75.5 -5.5t57.5 -17.5q60 -28 94.5 -83zM421 276q52 0 96 26t70 70t26 96q0 58 -30.5 105t-84.5 70q-39 16 -110 16h-228v-383h261zM249 777
q17 35 49.5 56.5t71.5 21.5t71.5 -21.5t49.5 -56.5l33 16q-20 45 -62 72t-92 27t-92 -27t-62 -72z" />
    <glyph glyph-name="s" unicode="s" 
d="M246.5 370.5q-53.5 20.5 -84 56t-30.5 91.5q0 58 30.5 102t86 68t128.5 24q70 0 128.5 -29.5t92.5 -82.5t34 -121h-37q0 59 -29 104t-79 69.5t-111 24.5q-54 0 -101 -17t-76.5 -52t-29.5 -88q0 -48 28 -76.5t73 -43.5t126 -32q82 -17 127.5 -32.5t77 -51.5t31.5 -101
t-34.5 -109.5t-91.5 -66.5t-124 -22q-83 0 -146 31t-96.5 87.5t-33.5 129.5h37q0 -64 28.5 -112t82.5 -74.5t128 -26.5q92 0 152.5 44t60.5 120q0 52 -26 80t-65.5 40.5t-118.5 28.5q-85 17 -138.5 37.5z" />
    <glyph glyph-name="sacute" unicode="&#x15b;" 
d="M431 912l35 -45l-173 -126l-19 25zM595 479q0 59 -29 104t-79 69.5t-111 24.5q-54 0 -101 -17t-76.5 -52t-29.5 -88q0 -48 28 -76.5t73 -43.5t126 -32q82 -17 127.5 -32.5t77 -51.5t31.5 -101t-34.5 -109.5t-91.5 -66.5t-124 -22q-83 0 -146 31t-97 87.5t-33 129.5h37
q-1 -64 28 -112t83 -74.5t128 -26.5q92 0 152.5 44t60.5 120q0 52 -26 80t-65.5 40.5t-118.5 28.5q-85 17 -138.5 37.5t-84 56t-30.5 91.5q0 58 30.5 102t86 68t127.5 24q70 0 129 -29.5t93 -82.5t34 -121h-37z" />
    <glyph glyph-name="scaron" unicode="&#x161;" 
d="M524 898l-148 -148l-148 148l26 26l122 -122l122 122zM569 264q-26 28 -65.5 40.5t-118.5 28.5q-85 17 -138.5 37.5t-84 56t-30.5 91.5q0 58 30.5 102t86 68t128.5 24q70 0 128.5 -29.5t92.5 -82.5t34 -121h-37q0 59 -29 104t-79 69.5t-111 24.5q-54 0 -101 -17
t-76.5 -52t-29.5 -88q0 -48 28 -76.5t73 -43.5t126 -32q82 -17 127.5 -32.5t77 -51.5t31.5 -101t-34.5 -109.5t-91.5 -66.5t-124 -22q-83 0 -146 31t-96.5 87.5t-33.5 129.5h37q0 -64 28.5 -112t82.5 -74.5t128 -26.5q92 0 152.5 44t60.5 120q0 52 -26 80z" />
    <glyph glyph-name="scedilla" unicode="&#x15f;" 
d="M523.5 335.5q45.5 -15.5 77 -51.5t31.5 -101q0 -90 -65.5 -140.5t-162.5 -56.5l-79 -159l-33 17l70 142q-78 3 -136 35t-89 87t-31 125h37q0 -64 28.5 -112t82.5 -74.5t128 -26.5q92 0 152.5 44t60.5 120q0 52 -26 80t-65.5 40.5t-118.5 28.5q-85 17 -138.5 37.5t-84 56
t-30.5 91.5q0 58 30.5 102t86 68t128.5 24q70 0 128.5 -29.5t92.5 -82.5t34 -121h-37q0 59 -29 104t-79 69.5t-111 24.5q-54 0 -101 -17t-76.5 -52t-29.5 -88q0 -48 28 -76.5t73 -43.5t126 -32q82 -17 127.5 -32.5z" />
    <glyph glyph-name="scircumflex" unicode="&#x15d;" 
d="M222 774l148 148l148 -148l-26 -26l-122 122l-122 -122zM595 479q0 59 -29 104t-79 69.5t-111 24.5q-54 0 -101 -17t-76.5 -52t-29.5 -88q0 -48 28 -76.5t73 -43.5t126 -32q82 -17 127.5 -32.5t77 -51.5t31.5 -101t-34.5 -109.5t-91.5 -66.5t-124 -22q-83 0 -146 31
t-97 87.5t-33 129.5h37q-1 -64 28 -112t83 -74.5t128 -26.5q92 0 152.5 44t60.5 120q0 52 -26 80t-65.5 40.5t-118.5 28.5q-85 17 -138.5 37.5t-84 56t-30.5 91.5q0 58 30.5 102t86 68t127.5 24q70 0 129 -29.5t93 -82.5t34 -121h-37z" />
    <glyph glyph-name="uni0219" unicode="&#x219;" 
d="M595 479q0 59 -29 104t-79 69.5t-111 24.5q-54 0 -101 -17t-76.5 -52t-29.5 -88q0 -48 28 -76.5t73 -43.5t126 -32q82 -17 127.5 -32.5t77 -51.5t31.5 -101t-34.5 -109.5t-91.5 -66.5t-124 -22q-83 0 -146 31t-97 87.5t-33 129.5h37q-1 -64 28 -112t83 -74.5t128 -26.5
q92 0 152.5 44t60.5 120q0 52 -26 80t-65.5 40.5t-118.5 28.5q-85 17 -138.5 37.5t-84 56t-30.5 91.5q0 58 30.5 102t86 68t127.5 24q70 0 129 -29.5t93 -82.5t34 -121h-37zM349 -223l27 47q-25 1 -43 19.5t-18 43.5q0 26 18.5 44.5t44.5 18.5t44.5 -18.5t18.5 -44.5
q0 -15 -14 -41l-40 -69h-38z" />
    <glyph glyph-name="germandbls" unicode="&#xdf;" 
d="M619 112.5q-30 -51.5 -87 -82t-134 -30.5h-81v37h81q67 0 115 25t73 68.5t26 97.5q0 51 -26 93t-70.5 66.5t-97.5 24.5h-31v37l174 211l-395 -1l-1 -659h-37l1 696h480v-36l-174 -212q59 -4 107.5 -34t77 -79t28.5 -107q1 -64 -29 -115.5z" />
    <glyph glyph-name="t" unicode="t" 
d="M651 696v-37h-263v-659h-36v659h-263v37h562z" />
    <glyph glyph-name="tbar" unicode="&#x167;" 
d="M651 696v-37h-263v-276h203v-37h-203v-346h-36v346h-203v37h203v276h-263v37h562z" />
    <glyph glyph-name="tcaron" unicode="&#x165;" 
d="M228 896l148 -148l148 148l-26 26l-122 -122l-122 122zM651 696v-37h-263v-659h-36v659h-263v37h562z" />
    <glyph glyph-name="uni0163" unicode="&#x163;" 
d="M651 696v-37h-263v-659h-36v659h-263v37h562zM393 -8l33 -16l-75 -149l-33 17z" />
    <glyph glyph-name="u" unicode="u" 
d="M89 696h37v-430q0 -66 33 -122t89 -89t122 -33t122 33t89 89t33 122v430h37v-430q0 -76 -38 -140.5t-102.5 -102.5t-140.5 -38t-140.5 38t-102.5 102.5t-38 140.5v430z" />
    <glyph glyph-name="uacute" unicode="&#xfa;" 
d="M89 696h37v-430q0 -66 33 -122t89 -89t122 -33t122 33t89 89t33 122v430h37v-430q0 -76 -38 -140.5t-102.5 -102.5t-140.5 -38t-140.5 38t-102.5 102.5t-38 140.5v430zM437 912l35 -45l-173 -126l-19 25z" />
    <glyph glyph-name="ubreve" unicode="&#x16d;" 
d="M524 876q-20 -45 -62 -72t-92 -27t-92 27t-62 72l33 16q16 -36 49 -57t72 -21t71.5 21t49.5 56zM614 696h37v-430q0 -76 -38 -140.5t-102.5 -102.5t-140.5 -38t-140.5 38t-102.5 102.5t-38 140.5v430h37v-430q0 -66 33 -122t89 -89t122 -33t122 33t89 89t33 122v430z" />
    <glyph glyph-name="ucircumflex" unicode="&#xfb;" 
d="M89 696h37v-430q0 -66 33 -122t89 -89t122 -33t122 33t89 89t33 122v430h37v-430q0 -76 -38 -140.5t-102.5 -102.5t-140.5 -38t-140.5 38t-102.5 102.5t-38 140.5v430zM222 774l148 148l148 -148l-26 -26l-122 122l-122 -122z" />
    <glyph glyph-name="uni0215" unicode="&#x215;" 
d="M220 916l-45 -35l125 -147l25 19zM440 916l-45 -35l125 -147l25 19zM614 696h37v-430q0 -76 -38 -140.5t-102.5 -102.5t-140.5 -38t-140.5 38t-102.5 102.5t-38 140.5v430h37v-430q0 -66 33 -122t89 -89t122 -33t122 33t89 89t33 122v430z" />
    <glyph glyph-name="udieresis" unicode="&#xfc;" 
d="M89 696h37v-430q0 -66 33 -122t89 -89t122 -33t122 33t89 89t33 122v430h37v-430q0 -76 -38 -140.5t-102.5 -102.5t-140.5 -38t-140.5 38t-102.5 102.5t-38 140.5v430zM316 907q24 -24 24 -58t-24 -57.5t-58 -23.5t-57.5 23.5t-23.5 57.5t23.5 58t57.5 24t58 -24z
M422.5 791.5q-23.5 23.5 -23.5 57.5t23.5 58t57.5 24t58 -24t24 -58t-24 -57.5t-58 -23.5t-57.5 23.5zM291.5 816q13.5 14 13.5 33q0 20 -13.5 34t-33.5 14t-33.5 -14t-13.5 -34q0 -19 14 -33t33 -14q20 0 33.5 14zM446.5 883q-13.5 -14 -13.5 -34q0 -19 14 -33t33 -14
q20 0 33.5 14t13.5 33q0 20 -13.5 34t-33.5 14t-33.5 -14z" />
    <glyph glyph-name="uni1EE5" unicode="&#x1ee5;" 
d="M614 696h37v-430q0 -76 -38 -140.5t-102.5 -102.5t-140.5 -38t-140.5 38t-102.5 102.5t-38 140.5v430h37v-430q0 -66 33 -122t89 -89t122 -33t122 33t89 89t33 122v430zM312.5 -193.5q-23.5 23.5 -23.5 57.5t23.5 58t57.5 24t58 -24t24 -58t-24 -57.5t-58 -23.5
t-57.5 23.5zM337 -169.5q14 -13.5 33 -13.5q20 0 33.5 13.5t13.5 33.5t-13.5 34t-33.5 14t-33.5 -14t-13.5 -34t14 -33.5z" />
    <glyph glyph-name="ugrave" unicode="&#xf9;" 
d="M89 696h37v-430q0 -66 33 -122t89 -89t122 -33t122 33t89 89t33 122v430h37v-430q0 -76 -38 -140.5t-102.5 -102.5t-140.5 -38t-140.5 38t-102.5 102.5t-38 140.5v430zM303 912l-35 -45l173 -126l19 25z" />
    <glyph glyph-name="uni1EE7" unicode="&#x1ee7;" 
d="M389 872.5q-13 11.5 -37 11.5h-20v34h20q39 0 62 -20.5t23 -52.5q0 -31 -21 -52.5t-52 -22.5v-25h-32v59h26q19 0 31.5 11.5t12.5 28.5t-13 28.5zM614 696h37v-430q0 -76 -38 -140.5t-102.5 -102.5t-140.5 -38t-140.5 38t-102.5 102.5t-38 140.5v430h37v-430
q0 -66 33 -122t89 -89t122 -33t122 33t89 89t33 122v430z" />
    <glyph glyph-name="uhorn" unicode="&#x1b0;" 
d="M712 701.5q-23 -30.5 -61 -39.5v-396q0 -76 -38 -140.5t-102.5 -102.5t-140.5 -38t-140.5 38t-102.5 102.5t-38 140.5v430h37v-430q0 -66 33 -122t89 -89t122 -33t122 33t89 89t33 122v430h9q33 0 53.5 21.5t20.5 57.5v86h37v-85q1 -44 -22 -74.5z" />
    <glyph glyph-name="uni1EE9" unicode="&#x1ee9;" 
d="M280 766l157 146l35 -45l-173 -126zM697 861h37v-85q0 -44 -22.5 -74.5t-60.5 -39.5v-396q0 -76 -38 -140.5t-102.5 -102.5t-140.5 -38t-140.5 38t-102.5 102.5t-38 140.5v430h37v-430q0 -66 33 -122t89 -89t122 -33t122 33t89 89t33 122v430h9q33 0 53.5 21.5t20.5 57.5
v86z" />
    <glyph glyph-name="uni1EF1" unicode="&#x1ef1;" 
d="M711.5 701.5q-22.5 -30.5 -60.5 -39.5v-396q0 -76 -38 -140.5t-102.5 -102.5t-140.5 -38t-140.5 38t-102.5 102.5t-38 140.5v430h37v-430q0 -66 33 -122t89 -89t122 -33t122 33t89 89t33 122v430h9q33 0 53.5 21.5t20.5 57.5v86h37v-85q0 -44 -22.5 -74.5zM312.5 -78
q23.5 24 57.5 24t58 -24t24 -58t-24 -57.5t-58 -23.5t-57.5 23.5t-23.5 57.5t23.5 58zM336.5 -102q-13.5 -14 -13.5 -34t14 -33.5t33 -13.5q20 0 33.5 13.5t13.5 33.5t-13.5 34t-33.5 14t-33.5 -14z" />
    <glyph glyph-name="uni1EEB" unicode="&#x1eeb;" 
d="M303 912l157 -146l-19 -25l-173 126zM697 861h37v-85q0 -44 -22.5 -74.5t-60.5 -39.5v-396q0 -76 -38 -140.5t-102.5 -102.5t-140.5 -38t-140.5 38t-102.5 102.5t-38 140.5v430h37v-430q0 -66 33 -122t89 -89t122 -33t122 33t89 89t33 122v430h9q33 0 53.5 21.5
t20.5 57.5v86z" />
    <glyph glyph-name="uni1EED" unicode="&#x1eed;" 
d="M352 918q39 0 62 -20.5t23 -52.5q0 -31 -21 -52.5t-52 -22.5v-25h-32v59h26q19 1 31.5 12t12.5 28t-13 28.5t-37 11.5h-20v34h20zM492 55q56 33 89 89t33 122v430h9q33 0 53.5 21.5t20.5 57.5v86h37v-85q0 -44 -22.5 -74.5t-60.5 -39.5v-396q0 -76 -38 -140.5
t-102.5 -102.5t-140.5 -38t-140.5 38t-102.5 102.5t-38 140.5v430h37v-430q0 -66 33 -122t89 -89t122 -33t122 33z" />
    <glyph glyph-name="uni1EEF" unicode="&#x1eef;" 
d="M195 811q45 54 103 54q38 0 78 -26q32 -22 62 -22q42 0 74 40l29 -24q-44 -53 -102 -53q-43 0 -84 28q-28 20 -57 20q-41 0 -74 -41zM711.5 701.5q-22.5 -30.5 -60.5 -39.5v-396q0 -76 -38 -140.5t-102.5 -102.5t-140.5 -38t-140.5 38t-102.5 102.5t-38 140.5v430h37
v-430q0 -66 33 -122t89 -89t122 -33t122 33t89 89t33 122v430h9q33 0 53.5 21.5t20.5 57.5v86h37v-85q0 -44 -22.5 -74.5z" />
    <glyph glyph-name="uhungarumlaut" unicode="&#x171;" 
d="M300 916l45 -35l-125 -147l-25 19zM520 916l45 -35l-126 -147l-24 19zM614 696h37v-430q0 -76 -38 -140.5t-102.5 -102.5t-140.5 -38t-140.5 38t-102.5 102.5t-38 140.5v430h37v-430q0 -66 33 -122t89 -89t122 -33t122 33t89 89t33 122v430z" />
    <glyph glyph-name="uni0217" unicode="&#x217;" 
d="M524 793q-20 45 -62 72t-92 27t-92 -27t-62 -72l33 -16q17 35 49.5 56.5t71.5 21.5t71.5 -21.5t49.5 -56.5zM614 696h37v-430q0 -76 -38 -140.5t-102.5 -102.5t-140.5 -38t-140.5 38t-102.5 102.5t-38 140.5v430h37v-430q0 -66 33 -122t89 -89t122 -33t122 33t89 89
t33 122v430z" />
    <glyph glyph-name="umacron" unicode="&#x16b;" 
d="M518 803v-37h-296v37h296zM614 696h37v-430q0 -76 -38 -140.5t-102.5 -102.5t-140.5 -38t-140.5 38t-102.5 102.5t-38 140.5v430h37v-430q0 -66 33 -122t89 -89t122 -33t122 33t89 89t33 122v430z" />
    <glyph glyph-name="uni021B" unicode="&#x21b;" 
d="M651 696v-37h-263v-659h-36v659h-263v37h562zM325.5 -68.5q18.5 18.5 44.5 18.5t44.5 -18.5t18.5 -44.5q0 -15 -14 -41l-41 -69h-37l27 47q-25 1 -43 19t-18 44t18.5 44.5z" />
    <glyph glyph-name="uogonek" unicode="&#x173;" 
d="M651 696v-430q0 -80 -41.5 -147t-110.5 -103q-52 -33 -52 -91q0 -44 32.5 -74.5t81.5 -30.5v-37q-42 0 -76.5 19t-54.5 51.5t-20 70.5q0 37 19 67q-28 -6 -59 -6q-76 0 -140.5 38t-102.5 102.5t-38 140.5v430h37v-430q0 -66 33 -122t89 -89t122 -33t122 33t89 89t33 122
v430h37z" />
    <glyph glyph-name="uring" unicode="&#x16f;" 
d="M294.5 769.5q-31.5 31.5 -31.5 76.5q0 44 31.5 75.5t75.5 31.5t75.5 -31.5t31.5 -75.5q0 -45 -31.5 -76.5t-75.5 -31.5t-75.5 31.5zM320.5 796q20.5 -21 49.5 -21t49.5 21t20.5 50t-20.5 49.5t-49.5 20.5t-49.5 -20.5t-20.5 -49.5t20.5 -50zM614 696h37v-430
q0 -76 -38 -140.5t-102.5 -102.5t-140.5 -38t-140.5 38t-102.5 102.5t-38 140.5v430h37v-430q0 -66 33 -122t89 -89t122 -33t122 33t89 89t33 122v430z" />
    <glyph glyph-name="utilde" unicode="&#x169;" 
d="M543 833q-44 -53 -103 -53q-42 0 -83 28q-29 21 -57 21q-40 0 -74 -42l-29 24q45 54 103 54q38 0 78 -26q32 -22 63 -22q41 0 73 40zM614 696h37v-430q0 -76 -38 -140.5t-102.5 -102.5t-140.5 -38t-140.5 38t-102.5 102.5t-38 140.5v430h37v-430q0 -66 33 -122t89 -89
t122 -33t122 33t89 89t33 122v430z" />
    <glyph glyph-name="v" unicode="v" 
d="M103 696l266 -647l266 647h39l-286 -696h-39l-286 696h40z" />
    <glyph glyph-name="w" unicode="w" 
d="M700 696l-187 -696h-39l-104 387l-104 -387h-39l-187 696h38l168 -627l105 389l-64 238h38l64 -238l105 -389l168 627h38z" />
    <glyph glyph-name="wacute" unicode="&#x1e83;" 
d="M700 696l-187 -696h-39l-104 387l-104 -387h-39l-187 696h38l168 -627l105 389l-64 238h38l64 -238l105 -389l168 627h38zM437 912l35 -45l-173 -126l-19 25z" />
    <glyph glyph-name="wcircumflex" unicode="&#x175;" 
d="M700 696l-187 -696h-39l-104 387l-104 -387h-39l-187 696h38l168 -627l105 389l-64 238h38l64 -238l105 -389l168 627h38zM222 774l148 148l148 -148l-26 -26l-122 122l-122 -122z" />
    <glyph glyph-name="wdieresis" unicode="&#x1e85;" 
d="M700 696l-187 -696h-39l-104 387l-104 -387h-39l-187 696h38l168 -627l105 389l-64 238h38l64 -238l105 -389l168 627h38zM201.5 791.5q-23.5 23.5 -23.5 57.5t23.5 58t57.5 24t58 -24t24 -58t-24 -57.5t-58 -23.5t-57.5 23.5zM423.5 791.5q-23.5 23.5 -23.5 57.5
t23.5 58t57.5 24t58 -24t24 -58t-24 -57.5t-58 -23.5t-57.5 23.5zM225.5 816q13.5 -14 33.5 -14q19 0 33 14t14 33q0 20 -13.5 34t-33.5 14t-33.5 -14t-13.5 -34q0 -19 13.5 -33zM447.5 816q13.5 -14 33.5 -14q19 0 33 14t14 33q0 20 -13.5 34t-33.5 14t-33.5 -14t-13.5 -34
q0 -19 13.5 -33z" />
    <glyph glyph-name="wgrave" unicode="&#x1e81;" 
d="M700 696l-187 -696h-39l-104 387l-104 -387h-39l-187 696h38l168 -627l105 389l-64 238h38l64 -238l105 -389l168 627h38zM303 912l-35 -45l173 -126l19 25z" />
    <glyph glyph-name="x" unicode="x" 
d="M346 348l-267 348h48l243 -317l244 317h47l-267 -348l267 -348h-47l-244 317l-243 -317h-48z" />
    <glyph glyph-name="y" unicode="y" 
d="M124 696l247 -372l245 372h44l-271 -411v-285h-37v285l-272 411h44z" />
    <glyph glyph-name="yacute" unicode="&#xfd;" 
d="M124 696l247 -372l245 372h44l-271 -411v-285h-37v285l-272 411h44zM438 912l35 -45l-173 -126l-19 25z" />
    <glyph glyph-name="ycircumflex" unicode="&#x177;" 
d="M124 696l247 -372l245 372h44l-271 -411v-285h-37v285l-272 411h44zM223 774l148 148l148 -148l-26 -26l-122 122l-122 -122z" />
    <glyph glyph-name="ydieresis" unicode="&#xff;" 
d="M124 696l247 -372l245 372h44l-271 -411v-285h-37v285l-272 411h44zM316 907q24 -24 24 -58t-24 -57.5t-58 -23.5t-57.5 23.5t-23.5 57.5t23.5 58t57.5 24t58 -24zM422.5 791.5q-23.5 23.5 -23.5 57.5t23.5 58t57.5 24t58 -24t24 -58t-24 -57.5t-58 -23.5t-57.5 23.5z
M291.5 816q13.5 14 13.5 33q0 20 -13.5 34t-33.5 14t-33.5 -14t-13.5 -34q0 -19 14 -33t33 -14q20 0 33.5 14zM446.5 883q-13.5 -14 -13.5 -34q0 -19 14 -33t33 -14q20 0 33.5 14t13.5 33q0 20 -13.5 34t-33.5 14t-33.5 -14z" />
    <glyph glyph-name="uni1EF5" unicode="&#x1ef5;" 
d="M124 696l247 -372l245 372h44l-271 -411v-285h-37v285l-272 411h44zM313.5 -193.5q-23.5 23.5 -23.5 57.5t23.5 58t57.5 24t58 -24t24 -58t-24 -57.5t-58 -23.5t-57.5 23.5zM338 -169.5q14 -13.5 33 -13.5q20 0 33.5 13.5t13.5 33.5t-13.5 34t-33.5 14t-33.5 -14
t-13.5 -34t14 -33.5z" />
    <glyph glyph-name="ygrave" unicode="&#x1ef3;" 
d="M124 696l247 -372l245 372h44l-271 -411v-285h-37v285l-272 411h44zM304 912l-35 -45l173 -126l19 25z" />
    <glyph glyph-name="uni1EF7" unicode="&#x1ef7;" 
d="M390 872.5q-13 11.5 -37 11.5h-20v34h20q39 0 62 -20.5t23 -52.5q0 -31 -21 -52.5t-52 -22.5v-25h-32v59h26q19 0 31.5 11.5t12.5 28.5t-13 28.5zM124 696l247 -372l245 372h44l-271 -411v-285h-37v285l-272 411h44z" />
    <glyph glyph-name="uni0233" unicode="&#x233;" 
d="M124 696l247 -372l245 372h44l-271 -411v-285h-37v285l-272 411h44zM519 827v-37h-296v37h296z" />
    <glyph glyph-name="uni1EF9" unicode="&#x1ef9;" 
d="M124 696l247 -372l245 372h44l-271 -411v-285h-37v285l-272 411h44zM542 833q-44 -53 -103 -53q-42 0 -83 28q-29 21 -57 21q-40 0 -74 -42l-29 24q45 54 103 54q38 0 78 -26q32 -22 63 -22q41 0 73 40z" />
    <glyph glyph-name="z" unicode="z" 
d="M629 696l-1 -37l-470 -622h471v-37h-517v37l469 622h-458v37h506z" />
    <glyph glyph-name="zacute" unicode="&#x17a;" 
d="M629 696l-1 -37l-470 -622h471v-37h-517v37l469 622h-458v37h506zM437 912l35 -45l-173 -126l-19 25z" />
    <glyph glyph-name="zcaron" unicode="&#x17e;" 
d="M629 696l-1 -37l-470 -622h471v-37h-517v37l469 622h-458v37h506zM222 896l148 -148l148 148l-26 26l-122 -122l-122 122z" />
    <glyph glyph-name="zdotaccent" unicode="&#x17c;" 
d="M629 696l-1 -37l-470 -622h471v-37h-517v37l469 622h-458v37h506zM312.5 791.5q-23.5 23.5 -23.5 57.5t23.5 58t57.5 24t58 -24t24 -58t-24 -57.5t-58 -23.5t-57.5 23.5zM336.5 816q13.5 -14 33.5 -14q19 0 33 14t14 33q0 20 -13.5 34t-33.5 14t-33.5 -14t-13.5 -34
q0 -19 13.5 -33z" />
    <glyph glyph-name="f_f" unicode="&#xfb00;" horiz-adv-x="1480" 
d="M139 696h519v-37h-482v-292h390v-37h-390v-330h-37v696zM879 696h519v-37h-482v-292h390v-37h-390v-330h-37v696z" />
    <glyph glyph-name="f_f_i" unicode="&#xfb03;" horiz-adv-x="2220" 
d="M139 696h519v-37h-482v-292h390v-37h-390v-330h-37v696zM879 696h519v-37h-482v-292h390v-37h-390v-330h-37v696zM1832 37v622h-207v37h450v-37h-207v-622h207v-37h-450v37h207z" />
    <glyph glyph-name="f_f_l" unicode="&#xfb04;" horiz-adv-x="2220" 
d="M139 696h519v-37h-482v-292h390v-37h-390v-330h-37v696zM879 696h519v-37h-482v-292h390v-37h-390v-330h-37v696zM1635 0v696h37v-659h485v-37h-522z" />
    <glyph glyph-name="fi" unicode="&#xfb01;" horiz-adv-x="1480" 
d="M139 696h519v-37h-482v-292h390v-37h-390v-330h-37v696zM1092 37v622h-207v37h450v-37h-207v-622h207v-37h-450v37h207z" />
    <glyph glyph-name="fl" unicode="&#xfb02;" horiz-adv-x="1480" 
d="M139 696h519v-37h-482v-292h390v-37h-390v-330h-37v696zM895 0v696h37v-659h485v-37h-522z" />
    <glyph glyph-name="ordfeminine" unicode="&#xaa;" 
d="M284 377q-41 24 -65 65t-24 90q0 48 24 89t65 65t89 24q43 0 80.5 -18.5t61.5 -51.5v57h37v-335h-37v61q-25 -32 -62 -51t-80 -19q-48 0 -89 24zM250 460.5q19 -32.5 52 -51.5t71 -19q39 0 71.5 19t51.5 51.5t19 71.5q0 38 -19 71t-51.5 52t-71.5 19q-38 0 -71 -19
t-52 -52t-19 -71q0 -39 19 -71.5z" />
    <glyph glyph-name="ordmasculine" unicode="&#xba;" 
d="M282 378q-41 24 -65 64.5t-24 89.5q0 48 24 89t65 65t89 24q49 0 89.5 -24t64.5 -65t24 -89q0 -49 -24 -89.5t-64.5 -64.5t-89.5 -24q-48 0 -89 24zM300.5 653.5q-32.5 -18.5 -51.5 -51t-19 -70.5t19 -70t51.5 -51t70.5 -19t70 18.5t51 51t19 70.5t-19 70.5t-51 51
t-70 18.5t-70.5 -18.5z" />
    <glyph glyph-name="zero" unicode="0" 
d="M605 220q0 -64 -31.5 -118t-85.5 -85.5t-118 -31.5t-118 31.5t-85.5 85.5t-31.5 118v255q0 64 31.5 118t85.5 85.5t118 31.5t118 -31.5t85.5 -85.5t31.5 -118v-255zM171 220q0 -34 13 -70l353 431q-27 42 -71 67t-96 25q-54 0 -99.5 -26.5t-72.5 -72t-27 -99.5v-255z
M569 475q0 34 -13 70l-353 -431q27 -43 71 -68t96 -25q54 0 99.5 27t72.5 72.5t27 99.5v255z" />
    <glyph glyph-name="one" unicode="1" 
d="M352 37v532q-33 -51 -86.5 -81t-116.5 -30v36q55 0 101.5 27.5t74 74t27.5 101.5h36v-660h210v-37h-456v37h210z" />
    <glyph glyph-name="two" unicode="2" 
d="M586 37v-37h-432v37l150 165l136 148l12 13q40 42 62 76.5t22 74.5q0 45 -22.5 82t-62 58t-87.5 21q-46 0 -85.5 -23t-62.5 -62.5t-23 -86.5h-37q0 57 28 104.5t75.5 75.5t104.5 28q59 0 106.5 -25.5t75 -70.5t27.5 -101q0 -50 -25 -89t-69 -87l-12 -13l-263 -288h382z
" />
    <glyph glyph-name="three" unicode="3" 
d="M309 361l216 296h-356v37h402v-37l-159 -217q53 -10 95.5 -42t67 -80t24.5 -103q0 -62 -31 -115t-83.5 -84t-114.5 -31t-114.5 31t-83.5 84t-31 115h36q0 -52 26 -96.5t70.5 -70.5t96.5 -26t96.5 26t70.5 70.5t26 96.5q0 49 -23.5 91t-64 69t-88.5 31l-48 -66z" />
    <glyph glyph-name="four" unicode="4" 
d="M459 697h37v-480h121v-36h-121v-181h-37v181h-336v37zM459 217v416l-292 -416h292z" />
    <glyph glyph-name="five" unicode="5" 
d="M161 695h411v-37h-374v-276q33 35 77.5 54t93.5 19q64 0 118 -30t85.5 -83.5t31.5 -121.5t-31.5 -121.5t-85.5 -83.5t-118 -30q-58 0 -108.5 27t-83.5 73.5t-41 102.5h37q8 -47 36 -84.5t69.5 -59.5t90.5 -22q54 0 99.5 25t72 70t26.5 103t-26.5 103.5t-72 70.5t-99.5 25
q-52 0 -97 -26t-72 -70h-39v372z" />
    <glyph glyph-name="six" unicode="6" 
d="M481 694l-193 -266q40 16 82 16q62 0 115 -31t83.5 -83.5t30.5 -114.5t-31 -115t-83.5 -84t-114.5 -31t-114.5 31t-83.5 84t-31 115q0 75 44 135l251 344h45zM466.5 48q44.5 26 70.5 70.5t26 96.5t-26 96t-70.5 70t-96.5 26t-96.5 -26t-70.5 -70t-26 -96t26 -96.5
t70.5 -70.5t96.5 -26t96.5 26z" />
    <glyph glyph-name="seven" unicode="7" 
d="M236 0l323 660h-419v37h460v-37l-323 -660h-41z" />
    <glyph glyph-name="eight" unicode="8" 
d="M262.5 14q-49.5 29 -78.5 78.5t-29 107.5q0 66 37 120t97 78q-39 22 -63 61.5t-24 85.5t22.5 84.5t61.5 61t84 22.5q46 0 84.5 -22.5t61 -61t22.5 -84.5q0 -47 -23.5 -86t-63.5 -61q59 -24 96.5 -78t37.5 -120q0 -58 -29 -107.5t-78.5 -78.5t-107.5 -29t-107.5 29z
M256.5 479.5q17.5 -30.5 48 -48t65.5 -17.5t65.5 17.5t48 48t17.5 65.5t-17.5 65.5t-48 48t-65.5 17.5t-65.5 -17.5t-48 -48t-17.5 -65.5t17.5 -65.5zM459 46q41 24 65 65t24 89t-24 89t-65 65t-89 24t-89 -24t-65 -65t-24 -89t24 -89t65 -65t89 -24t89 24z" />
    <glyph glyph-name="nine" unicode="9" 
d="M259 0l193 266q-37 -15 -82 -15q-62 0 -114.5 31t-83.5 83.5t-31 114.5t31 115t83.5 83.5t114.5 30.5t114.5 -30.5t83.5 -83.5t31 -115q0 -75 -44 -135v-1l-251 -344h-45zM203 384q26 -44 70.5 -70t96.5 -26t96.5 26t70.5 70t26 96t-26 96.5t-70.5 70.5t-96.5 26
t-96.5 -26t-70.5 -70.5t-26 -96.5t26 -96z" />
    <glyph glyph-name="zero.lf" 
d="M605 220q0 -64 -31.5 -118t-85.5 -85.5t-118 -31.5t-118 31.5t-85.5 85.5t-31.5 118v255q0 64 31.5 118t85.5 85.5t118 31.5t118 -31.5t85.5 -85.5t31.5 -118v-255zM171 220q0 -34 13 -70l353 431q-27 42 -71 67t-96 25q-54 0 -99.5 -26.5t-72.5 -72t-27 -99.5v-255z
M569 475q0 34 -13 70l-353 -431q27 -43 71 -68t96 -25q54 0 99.5 27t72.5 72.5t27 99.5v255z" />
    <glyph glyph-name="one.lf" 
d="M352 37v532q-33 -51 -86.5 -81t-116.5 -30v36q55 0 101.5 27.5t74 74t27.5 101.5h36v-660h210v-37h-456v37h210z" />
    <glyph glyph-name="two.lf" 
d="M586 37v-37h-432v37l150 165l136 148l12 13q40 42 62 76.5t22 74.5q0 45 -22.5 82t-62 58t-87.5 21q-46 0 -85.5 -23t-62.5 -62.5t-23 -86.5h-37q0 57 28 104.5t75.5 75.5t104.5 28q59 0 106.5 -25.5t75 -70.5t27.5 -101q0 -50 -25 -89t-69 -87l-12 -13l-263 -288h382z
" />
    <glyph glyph-name="three.lf" 
d="M309 361l216 296h-356v37h402v-37l-159 -217q53 -10 95.5 -42t67 -80t24.5 -103q0 -62 -31 -115t-83.5 -84t-114.5 -31t-114.5 31t-83.5 84t-31 115h36q0 -52 26 -96.5t70.5 -70.5t96.5 -26t96.5 26t70.5 70.5t26 96.5q0 49 -23.5 91t-64 69t-88.5 31l-48 -66z" />
    <glyph glyph-name="four.lf" 
d="M459 697h37v-480h121v-36h-121v-181h-37v181h-336v37zM459 217v416l-292 -416h292z" />
    <glyph glyph-name="five.lf" 
d="M161 695h411v-37h-374v-276q33 35 77.5 54t93.5 19q64 0 118 -30t85.5 -83.5t31.5 -121.5t-31.5 -121.5t-85.5 -83.5t-118 -30q-58 0 -108.5 27t-83.5 73.5t-41 102.5h37q8 -47 36 -84.5t69.5 -59.5t90.5 -22q54 0 99.5 25t72 70t26.5 103t-26.5 103.5t-72 70.5t-99.5 25
q-52 0 -97 -26t-72 -70h-39v372z" />
    <glyph glyph-name="six.lf" 
d="M481 694l-193 -266q40 16 82 16q62 0 115 -31t83.5 -83.5t30.5 -114.5t-31 -115t-83.5 -84t-114.5 -31t-114.5 31t-83.5 84t-31 115q0 75 44 135l251 344h45zM466.5 48q44.5 26 70.5 70.5t26 96.5t-26 96t-70.5 70t-96.5 26t-96.5 -26t-70.5 -70t-26 -96t26 -96.5
t70.5 -70.5t96.5 -26t96.5 26z" />
    <glyph glyph-name="seven.lf" 
d="M236 0l323 660h-419v37h460v-37l-323 -660h-41z" />
    <glyph glyph-name="eight.lf" 
d="M262.5 14q-49.5 29 -78.5 78.5t-29 107.5q0 66 37 120t97 78q-39 22 -63 61.5t-24 85.5t22.5 84.5t61.5 61t84 22.5q46 0 84.5 -22.5t61 -61t22.5 -84.5q0 -47 -23.5 -86t-63.5 -61q59 -24 96.5 -78t37.5 -120q0 -58 -29 -107.5t-78.5 -78.5t-107.5 -29t-107.5 29z
M256.5 479.5q17.5 -30.5 48 -48t65.5 -17.5t65.5 17.5t48 48t17.5 65.5t-17.5 65.5t-48 48t-65.5 17.5t-65.5 -17.5t-48 -48t-17.5 -65.5t17.5 -65.5zM459 46q41 24 65 65t24 89t-24 89t-65 65t-89 24t-89 -24t-65 -65t-24 -89t24 -89t65 -65t89 -24t89 24z" />
    <glyph glyph-name="nine.lf" 
d="M259 0l193 266q-37 -15 -82 -15q-62 0 -114.5 31t-83.5 83.5t-31 114.5t31 115t83.5 83.5t114.5 30.5t114.5 -30.5t83.5 -83.5t31 -115q0 -75 -44 -135v-1l-251 -344h-45zM203 384q26 -44 70.5 -70t96.5 -26t96.5 26t70.5 70t26 96t-26 96.5t-70.5 70.5t-96.5 26
t-96.5 -26t-70.5 -70.5t-26 -96.5t26 -96z" />
    <glyph glyph-name="uni00B9" unicode="&#xb9;" 
d="M483 366v-28h-237v28h104v247q-17 -22 -42.5 -34t-53.5 -12h-5v28h5q40 0 68 28t28 68v5h29v-330h104z" />
    <glyph glyph-name="uni00B2" unicode="&#xb2;" 
d="M475 366v-28h-225v27l1 2q33 36 75.5 82t67.5 72l6 6q20 22 30.5 38t10.5 35q0 32 -23 53.5t-58 21.5q-34 0 -57.5 -23.5t-23.5 -57.5v-5h-28v5q0 45 32 77t77 32q47 0 78 -29.5t31 -73.5q0 -26 -12.5 -45.5t-35.5 -46.5l-6 -6q-18 -18 -124 -136h184z" />
    <glyph glyph-name="uni00B3" unicode="&#xb3;" 
d="M399 567q40 -10 65 -42t25 -73q0 -49 -35 -84.5t-84 -35.5t-84.5 35.5t-35.5 84.5v7h28v-7q0 -38 26.5 -65t64.5 -27t65 27t27 65q0 34 -23 59.5t-58 30.5l-25 -35l-23 17l105 144h-173v28h211v-25z" />
    <glyph glyph-name="uni2074" unicode="&#x2074;" 
d="M414 456h61v-28h-61v-90h-28v90h-168v23l1 1l169 244h26v-240zM255 456h131v188z" />
    <glyph glyph-name="fraction" unicode="&#x2044;" 
d="M588 740h45l-481 -740h-45z" />
    <glyph glyph-name="onehalf" unicode="&#xbd;" 
d="M279 366v-28h-229v28h100v247q-17 -22 -42.5 -34t-53.5 -12h-5v28h5q40 0 68 28t28 68v5h29v-330h100zM615 562l-464 -464l-23 23l464 464zM652 28v-28h-226v27l2 2q32 36 75 82t68 72l6 7q19 20 29.5 36.5t10.5 35.5q0 32 -23 53.5t-58 21.5q-33 0 -57 -23.5t-24 -57.5
v-5h-28v5q0 45 32 77t77 32q47 0 78.5 -29.5t31.5 -73.5q0 -26 -13 -46t-36 -46l-5 -6q-28 -28 -125 -136h185z" />
    <glyph glyph-name="onequarter" unicode="&#xbc;" 
d="M279 366v-28h-229v28h100v247q-17 -22 -42.5 -34t-53.5 -12h-5v28h5q40 0 68 28t28 68v5h29v-330h100zM615 562l-464 -464l-23 23l464 464zM587 118h61v-28h-61v-90h-28v90h-168v23l1 1l169 244h26v-240zM428 118h131v188z" />
    <glyph glyph-name="threequarters" unicode="&#xbe;" 
d="M199 567q40 -10 65 -42t25 -73q0 -49 -35 -84.5t-84 -35.5t-84.5 35.5t-35.5 84.5v7h28v-7q0 -38 26.5 -65t64.5 -27t65 27t27 65q0 34 -23 59.5t-58 30.5l-25 -35l-23 17l105 144h-173v28h211v-25zM615 562l-464 -464l-23 23l464 464zM587 118h61v-28h-61v-90h-28v90
h-168v23l1 1l169 244h26v-240zM428 118h131v188z" />
    <glyph glyph-name="period" unicode="." 
d="M305.5 139.5q26.5 26.5 64.5 26.5t64.5 -26.5t26.5 -63.5t-26.5 -64t-64.5 -27q-37 0 -64 27t-27 64t26.5 63.5z" />
    <glyph glyph-name="comma" unicode="," 
d="M305.5 140.5q26.5 26.5 64.5 26.5t64.5 -26.5t26.5 -63.5q0 -23 -13 -46l-91 -157h-43l66 113q-3 -1 -10 -1q-37 0 -64 27t-27 64t26.5 63.5z" />
    <glyph glyph-name="colon" unicode=":" 
d="M306 354q-27 27 -27 64q0 38 27 64.5t64 26.5q38 0 64.5 -26.5t26.5 -64.5q0 -37 -26.5 -64t-64.5 -27q-37 0 -64 27zM305.5 11.5q-26.5 26.5 -26.5 64.5q0 37 26.5 63.5t64.5 26.5t64.5 -26.5t26.5 -63.5q0 -38 -26.5 -64.5t-64.5 -26.5t-64.5 26.5z" />
    <glyph glyph-name="semicolon" unicode=";" 
d="M306 355q-27 27 -27 64q0 38 27 64.5t64 26.5q38 0 64.5 -26.5t26.5 -64.5q0 -37 -26.5 -64t-64.5 -27q-37 0 -64 27zM314 -126l66 113q-3 -1 -10 -1q-38 0 -64.5 26.5t-26.5 64.5q0 37 26.5 63.5t64.5 26.5t64.5 -26.5t26.5 -63.5q0 -23 -13 -46l-91 -157h-43z" />
    <glyph glyph-name="ellipsis" unicode="&#x2026;" 
d="M80.5 11.5q-26.5 26.5 -26.5 64.5q0 37 26.5 63.5t64.5 26.5t64 -26t26 -64t-26 -64.5t-64 -26.5t-64.5 26.5zM305.5 11.5q-26.5 26.5 -26.5 64.5q0 37 26.5 63.5t64.5 26.5t64.5 -26.5t26.5 -63.5q0 -38 -26.5 -64.5t-64.5 -26.5t-64.5 26.5zM531 11.5
q-26 26.5 -26 64.5t26.5 64t63.5 26q38 0 64.5 -26.5t26.5 -63.5q0 -38 -26.5 -64.5t-64.5 -26.5t-64 26.5z" />
    <glyph glyph-name="exclam" unicode="!" 
d="M450 696l-37 -456h-86l-37 456h160zM305.5 139.5q26.5 26.5 64.5 26.5t64.5 -26.5t26.5 -63.5t-26.5 -64t-64.5 -27q-37 0 -64 27t-27 64t26.5 63.5z" />
    <glyph glyph-name="exclamdown" unicode="&#xa1;" 
d="M305.5 556.5q-26.5 26.5 -26.5 63.5q0 38 27 64.5t64 26.5q38 0 64.5 -26.5t26.5 -64.5q0 -37 -26.5 -63.5t-64.5 -26.5t-64.5 26.5zM327 456h86l37 -456h-160z" />
    <glyph glyph-name="question" unicode="?" 
d="M597 305q-34 -61 -92 -98.5t-128 -41.5q32 -6 53 -31.5t21 -58.5q0 -37 -26.5 -63.5t-64.5 -26.5t-64.5 26.5t-26.5 63.5q0 38 26.5 64.5t64.5 26.5v182q37 0 63.5 26t26.5 63t-26.5 63.5t-63.5 26.5t-63.5 -26.5t-26.5 -63.5h-181q0 74 36.5 136t98.5 98.5t136 36.5
t136 -36.5t98.5 -98.5t36.5 -136q0 -71 -34 -132zM398.5 113.5q-15.5 15.5 -38.5 15.5q-22 0 -38 -15.5t-16 -38.5q0 -22 16 -37.5t38 -15.5t38 15.5t16 37.5q0 23 -15.5 38.5z" />
    <glyph glyph-name="questiondown" unicode="&#xbf;" 
d="M631 256q0 -74 -36.5 -136t-98.5 -98.5t-136 -36.5t-136 36.5t-98.5 98.5t-36.5 136q0 71 34 132t92 98.5t128 41.5q-32 6 -53 31.5t-21 58.5q0 37 26.5 63.5t64.5 26.5t64.5 -26.5t26.5 -63.5q0 -38 -26.5 -64.5t-64.5 -26.5v-182q-37 0 -63.5 -26t-26.5 -63t26.5 -63.5
t63.5 -26.5t63.5 26.5t26.5 63.5h181zM322 580q16 -16 38 -16q23 0 38.5 16t15.5 38t-16 37.5t-38 15.5t-38 -15.5t-16 -37.5t16 -38z" />
    <glyph glyph-name="periodcentered" unicode="&#xb7;" 
d="M305.5 406.5q26.5 26.5 64.5 26.5t64.5 -26.5t26.5 -63.5t-26.5 -64t-64.5 -27q-37 0 -64 27t-27 64t26.5 63.5z" />
    <glyph glyph-name="bullet" unicode="&#x2022;" 
d="M234 407q21 36 57.5 57.5t79.5 21.5t79 -21.5t57 -57.5t21 -79t-21 -79t-57 -57.5t-79 -21.5t-79.5 21.5t-57.5 57.5t-21 79t21 79z" />
    <glyph glyph-name="asterisk" unicode="*" 
d="M500 441l-111 64v-128h-37v128l-111 -64l-18 32l111 64l-111 64l18 32l111 -64v127h37v-127l111 64l18 -32l-111 -64l111 -64z" />
    <glyph glyph-name="numbersign" unicode="#" 
d="M411 0l30 215h-179l-29 -215h-37l30 215h-137v37h142l26 192h-139v37h144l30 215h37l-30 -215h179l29 215h37l-30 -215h137v-37h-142l-26 -192h139v-37h-144l-30 -215h-37zM473 444h-179l-26 -192h178z" />
    <glyph glyph-name="slash" unicode="/" 
d="M107 0l481 740h45l-481 -740h-45z" />
    <glyph glyph-name="backslash" unicode="\" 
d="M107 740h45l481 -740h-45z" />
    <glyph glyph-name="periodcentered.loclCAT.alt1" horiz-adv-x="0" 
d="M-64.5 278.5q-26.5 26.5 -26.5 64.5q0 37 26.5 63.5t64.5 26.5t64.5 -26.5t26.5 -63.5q0 -38 -26.5 -64.5t-64.5 -26.5t-64.5 26.5zM38.5 305q15.5 16 15.5 38t-16 37.5t-38 15.5t-38 -15.5t-16 -37.5t15.5 -38t38.5 -16t38.5 16z" />
    <glyph glyph-name="periodcentered.loclCAT" horiz-adv-x="0" 
d="M-64 278.5q-26 26.5 -26 64.5t26 64t64 26t64.5 -26.5t26.5 -63.5q0 -38 -26.5 -64.5t-64.5 -26.5t-64 26.5z" />
    <glyph glyph-name="parenleft" unicode="(" 
d="M315 566q44 111 127 199l27 -25q-78 -82 -119.5 -187t-41.5 -218t41.5 -218t119.5 -187l-27 -25q-83 87 -127 198t-44 232q0 120 44 231z" />
    <glyph glyph-name="parenright" unicode=")" 
d="M271 -77q78 82 119.5 187t41.5 218t-41.5 218t-119.5 187l27 25q83 -88 127 -199t44 -231q0 -121 -44 -232t-127 -198z" />
    <glyph glyph-name="braceleft" unicode="{" 
d="M352 726q0 40 20 74.5t54 54.5t75 20v-36q-46 0 -79.5 -33t-33.5 -80v-160q0 -41 -21 -76t-56 -54q35 -19 56 -54t21 -77v-160q0 -46 33.5 -79t79.5 -33v-37q-41 0 -75 20t-54 54.5t-20 74.5v160q0 46 -33 79t-80 33v37q46 0 79.5 33t33.5 79v160z" />
    <glyph glyph-name="braceright" unicode="}" 
d="M319 66q33 33 33 79v160q0 42 21 77t56 54q-35 19 -56 54t-21 76v160q0 47 -33 80t-80 33v36q41 0 75 -20t54 -54t20 -75v-160q0 -46 33.5 -79t79.5 -33v-37q-47 0 -80 -33t-33 -79v-160q0 -40 -20 -74.5t-54 -54.5t-75 -20v37q47 0 80 33z" />
    <glyph glyph-name="bracketleft" unicode="[" 
d="M270 773h201v-36h-165v-793h165v-37h-201v866z" />
    <glyph glyph-name="bracketright" unicode="]" 
d="M270 737v36h201v-866h-201v37h165v793h-165z" />
    <glyph glyph-name="hyphen" unicode="-" 
d="M198 327v37h344v-37h-344z" />
    <glyph glyph-name="uni00AD" unicode="&#xad;" 
d="M542 364v-37h-344v37h344z" />
    <glyph glyph-name="endash" unicode="&#x2013;" 
d="M152 327v37h436v-37h-436z" />
    <glyph glyph-name="emdash" unicode="&#x2014;" 
d="M102 327v37h536v-37h-536z" />
    <glyph glyph-name="uni2010" unicode="&#x2010;" 
d="M198 327v37h344v-37h-344z" />
    <glyph glyph-name="underscore" unicode="_" 
d="M102 -2h536v-37h-536v37z" />
    <glyph glyph-name="quotesinglbase" unicode="&#x201a;" 
d="M314 -126l66 113q-3 -1 -10 -1q-38 0 -64.5 26.5t-26.5 64.5q0 37 26.5 63.5t64.5 26.5t64.5 -26.5t26.5 -63.5q0 -23 -13 -46l-91 -157h-43z" />
    <glyph glyph-name="quotedblbase" unicode="&#x201e;" 
d="M198 -126l66 113q-3 -1 -10 -1q-38 0 -64.5 26.5t-26.5 64.5q0 37 26.5 63.5t64.5 26.5t64.5 -26.5t26.5 -63.5q0 -23 -13 -46l-91 -157h-43zM431 -126l66 113q-3 -1 -10 -1q-38 0 -64.5 26.5t-26.5 64.5q0 37 26.5 63.5t64.5 26.5t64.5 -26.5t26.5 -63.5q0 -23 -13 -46
l-91 -157h-43z" />
    <glyph glyph-name="quotedblleft" unicode="&#x201c;" 
d="M175 538v1l92 157h42l-66 -113l11 1q37 0 63.5 -26.5t26.5 -64.5t-26.5 -64.5t-63.5 -26.5q-38 0 -64.5 26.5t-26.5 64.5q0 23 12 45zM551.5 557.5q26.5 -26.5 26.5 -64.5q0 -37 -26.5 -64t-64.5 -27q-37 0 -64 27t-27 64q0 24 13 45v1l91 157h43l-66 -113l10 1
q38 0 64.5 -26.5z" />
    <glyph glyph-name="quotedblright" unicode="&#x201d;" 
d="M189.5 541.5q-26.5 26.5 -26.5 63.5q0 38 26.5 64.5t63.5 26.5q38 0 64.5 -26.5t26.5 -64.5q0 -24 -13 -45l1 -1l-92 -157h-43l66 114q-3 -1 -10 -1q-37 0 -63.5 26.5zM566 559l-92 -157h-43l66 114q-3 -1 -10 -1q-37 0 -63.5 26.5t-26.5 63.5q0 38 26.5 64.5t63.5 26.5
q38 0 64.5 -26.5t26.5 -64.5q0 -24 -13 -45z" />
    <glyph glyph-name="quoteleft" unicode="&#x2018;" 
d="M306.5 428.5q-26.5 26.5 -26.5 64.5q0 22 12 46l92 157h42l-66 -113l10 1q38 0 64.5 -26.5t26.5 -64.5t-26.5 -64.5t-64.5 -26.5q-37 0 -63.5 26.5z" />
    <glyph glyph-name="quoteright" unicode="&#x2019;" 
d="M306 541q-27 27 -27 64q0 38 27 64.5t64 26.5q38 0 64.5 -26.5t26.5 -64.5q0 -24 -13 -45v-1l-91 -157h-43l66 113l-10 -1q-37 0 -64 27z" />
    <glyph glyph-name="guillemotleft" unicode="&#xab;" 
d="M161 340l177 229l29 -22l-160 -207l160 -206l-29 -23zM515 569l29 -22l-159 -207l159 -206l-29 -23l-177 229z" />
    <glyph glyph-name="guillemotright" unicode="&#xbb;" 
d="M196 134l29 -23l177 229l-177 229l-29 -22l160 -207zM402 111l177 229l-177 229l-29 -22l160 -207l-160 -206z" />
    <glyph glyph-name="guilsinglleft" unicode="&#x2039;" 
d="M263 340l177 229l29 -22l-159 -207l159 -206l-29 -23z" />
    <glyph glyph-name="guilsinglright" unicode="&#x203a;" 
d="M271 134l29 -23l177 229l-177 229l-29 -22l160 -207z" />
    <glyph glyph-name="quotedbl" unicode="&#x22;" 
d="M202 696h148l-54 -291h-94v291zM390 405v291h148l-54 -291h-94z" />
    <glyph glyph-name="quotesingle" unicode="'" 
d="M444 696l-54 -291h-93v291h147z" />
    <glyph glyph-name="uni27E8" unicode="&#x27e8;" 
d="M252 346l207 299l29 -22l-190 -277l190 -276l-29 -23z" />
    <glyph glyph-name="uni27E9" unicode="&#x27e9;" 
d="M252 70l190 276l-190 277l29 22l207 -299l-207 -299z" />
    <glyph glyph-name="uni00A0" unicode="&#xa0;" 
 />
    <glyph glyph-name="Euro" unicode="&#x20ac;" 
d="M201 406v-104h312v-37h-312v-13q0 -60 30 -111.5t81.5 -81.5t111.5 -30q65 0 120.5 36t82.5 97l33 -15q-31 -70 -95 -112.5t-141 -42.5q-70 0 -130 35t-95 95t-35 130v13h-82v37h82v104h-82v37h82v12q0 70 35 129.5t95 94.5t130 35q78 0 142.5 -43t95.5 -115l-34 -15
q-26 62 -81.5 99t-122.5 37q-60 0 -111.5 -30t-81.5 -81t-30 -111v-12h312v-37h-312z" />
    <glyph glyph-name="uni20B5" unicode="&#x20b5;" 
d="M125 565.5q35 62.5 95 101.5t132 43v69h36v-69q73 -4 132.5 -37t93.5 -88t34 -121h-36q-1 58 -30.5 104t-80 74t-113.5 31v-650q64 3 115 30.5t80.5 74.5t30.5 104h36q0 -67 -34 -121.5t-94 -88t-134 -36.5v-73h-36v73q-72 5 -132 43.5t-95 101t-35 135.5v164
q0 73 35 135.5zM156.5 149q30.5 -54 82 -87.5t113.5 -38.5v650q-62 -4 -114 -38t-82 -88t-30 -117v-164q0 -63 30.5 -117z" />
    <glyph glyph-name="cent" unicode="&#xa2;" 
d="M526.5 153.5q-58.5 -41.5 -129.5 -46.5v-95h-37v95q-64 5 -117.5 40t-84.5 91.5t-31 122.5t31 122.5t84.5 91.5t117.5 40v95h37v-95q70 -5 127.5 -45t86.5 -105l-34 -15q-24 55 -72.5 89t-107.5 39v-434q60 5 109 40t73 92l34 -14q-28 -67 -86.5 -108.5zM190 257
q26 -48 71 -78t99 -35v434q-54 -5 -99 -35t-71 -78t-26 -104t26 -104z" />
    <glyph glyph-name="colonmonetary" unicode="&#x20a1;" 
d="M621.5 108.5q-35.5 -55.5 -97 -88.5t-137.5 -35l-13 -72l-35 6l12 67q-42 5 -81 21l-16 -94l-35 6l18 104q-64 38 -102 102.5t-38 140.5v164q0 73 34.5 135.5t94.5 101.5t132 43l11 62l35 -6l-10 -55q43 -3 82 -15l13 76l36 -6l-15 -84q66 -31 105.5 -88.5t39.5 -129.5
h-36q-1 59 -32 106.5t-83 74.5l-111 -623q65 3 116.5 31t81 74.5t30.5 104.5h36q0 -68 -35.5 -123.5zM357 23l112 636q-37 14 -81 15l-111 -630q41 -18 80 -21zM163 150q30 -54 81 -87l108 610q-61 -6 -111 -40.5t-79 -88t-29 -114.5v-164q0 -62 30 -116z" />
    <glyph glyph-name="currency" unicode="&#xa4;" 
d="M542 540l26 -26l-60 -60q39 -48 39 -112q0 -30 -10 -58.5t-29 -52.5l60 -61l-26 -26l-61 61q-47 -40 -111 -40t-111 40l-61 -61l-26 26l60 61q-19 24 -29 52.5t-10 58.5q0 64 39 112l-60 60l26 26l61 -60q48 39 111 39t112 -39zM240.5 395q-10.5 -26 -10.5 -53
t10.5 -52.5t30.5 -46.5q20 -20 46 -30.5t53 -10.5t53 10.5t46 30.5t30.5 46t10.5 53q0 28 -10.5 53.5t-30.5 45.5t-45.5 30.5t-53.5 10.5t-53.5 -10.5t-45.5 -30.5t-30.5 -46z" />
    <glyph glyph-name="dollar" unicode="$" 
d="M185.5 402q-56.5 39 -56.5 116q0 85 62.5 137.5t165.5 56.5v104h37v-104q66 -5 119.5 -35t84.5 -81.5t31 -116.5h-37q0 56 -26 99t-71 68.5t-101 29.5v-308q82 -17 127 -32.5t76.5 -51.5t31.5 -101q0 -62 -32.5 -105.5t-85.5 -66t-117 -25.5v-94h-37v94q-77 4 -135 36
t-88.5 86.5t-30.5 124.5h37q-1 -92 57 -149t160 -63v317q-115 25 -171.5 64zM221.5 633.5q-55.5 -39.5 -55.5 -113.5q0 -44 23.5 -71.5t63.5 -43t104 -29.5v301q-80 -4 -135.5 -43.5zM394 21q86 4 142 46.5t56 114.5q0 51 -24.5 79.5t-63 41.5t-110.5 28v-310z" />
    <glyph glyph-name="dong" unicode="&#x20ab;" 
d="M494 188q-21 -37 -63.5 -61.5t-89.5 -24.5q-54 0 -97.5 26t-69 70.5t-25.5 98.5v36q0 55 25 99.5t69 70t98 25.5q48 0 90 -23.5t63 -59.5v156h-153v38h153v72h39v-72h79v-38h-79v-489h-39v76zM494 336q0 43 -20 78t-55 55.5t-78 20.5t-78 -20.5t-55 -56.5t-20 -80v-36
q0 -43 20 -79t55 -57t78 -21t78 20.5t55 55.5t20 78v42zM558 0h-409v39h409v-39z" />
    <glyph glyph-name="florin" unicode="&#x192;" 
d="M424 629.5q-33 -32.5 -33 -79.5v-175h144v-37h-144v-192q0 -40 -20 -74.5t-54.5 -54.5t-74.5 -20h-57v37h57q47 0 79.5 33t32.5 79v192h-132v37h132v175q0 40 20 74.5t54.5 54.5t74.5 20h57v-37h-57q-46 0 -79 -32.5z" />
    <glyph glyph-name="franc" unicode="&#x20a3;" 
d="M159 186v510h449v-37h-412v-292h330v-37h-330v-144h222v-37h-222v-149h-37v149h-80v37h80z" />
    <glyph glyph-name="uni20B2" unicode="&#x20b2;" 
d="M118 563q36 64 98 103.5t136 43.5v69h36v-68q120 -6 192 -84q31 -34 50.5 -76t19.5 -85h-36q-1 37 -18.5 73t-44.5 65q-61 65 -163 69v-330h269v-61q0 -79 -33.5 -144.5t-94.5 -106t-141 -45.5v-73h-36v72q-82 5 -148 52t-98 122q-24 56 -24 133v132q0 75 36 139z
M119 292q0 -71 20 -117q28 -65 85 -106.5t128 -45.5v650q-64 -4 -117.5 -38.5t-84.5 -90t-31 -120.5v-132zM511.5 62.5q52.5 35.5 80.5 93t28 126.5v25h-232v-284q71 4 123.5 39.5z" />
    <glyph glyph-name="uni20AD" unicode="&#x20ad;" 
d="M659 0h-48l-274 355h-151v-355h-37v355h-80v37h80v304h37v-304h149l275 304h50l-277 -304h276v-37h-274z" />
    <glyph glyph-name="lira" unicode="&#x20a4;" 
d="M535 690.5q51 -30.5 81.5 -82t30.5 -112.5h-37q0 51 -25 94t-68 68.5t-94 25.5t-94 -25.5t-68.5 -68.5t-25.5 -94v-85h226v-37h-226v-71h226v-37h-226v-114q0 -34 -14 -64.5t-39 -51.5h313q34 0 63 17t46 46t17 63h37q0 -44 -22 -81.5t-59.5 -59.5t-81.5 -22h-413v37
q48 0 82 34t34 82v114h-116v37h116v71h-116v37h116v85q0 61 30.5 112.5t82 82t112.5 30.5t112 -30.5z" />
    <glyph glyph-name="uni20A6" unicode="&#x20a6;" 
d="M604 696h37v-238h80v-36h-80v-145h81v-36h-81v-241h-37v172l-69 69h-409v-241h-37v241h-80v36h80v145h-80v36h80v238h39l240 -238h236v238zM499 277l-373 371v-371h373zM405 422l199 -198v198h-199z" />
    <glyph glyph-name="peseta" unicode="&#x20a7;" 
d="M706 431h-74q-6 -62 -41 -113t-90 -80q-52 -27 -127 -27h-223v-211h-37v431h-78v37h78v228h260q68 0 126 -28t93.5 -80t39.5 -120h73v-37zM151 468h445q-5 56 -36.5 102t-81.5 69q-41 20 -104 20h-223v-191zM558 334q31 44 37 97h-444v-183h223q64 0 105 20q48 22 79 66z
" />
    <glyph glyph-name="uni20B1" unicode="&#x20b1;" 
d="M576 360q-27 -76 -87.5 -112.5t-143.5 -36.5h-139v-211h-37v360h-80v36h80v116h-80v36h80v148h175q82 0 143 -37t88 -111h91v-36h-81q6 -28 6 -58q0 -31 -6 -58h81v-36h-90zM535 548q-48 111 -190 111h-139v-111h329zM206 512v-116h342q6 27 6 58t-7 58h-341zM206 360
v-112h139q144 0 191 112h-330z" />
    <glyph glyph-name="sterling" unicode="&#xa3;" 
d="M495 36q34 0 63 17t46 46t17 63h37q0 -44 -22 -81t-59.5 -59t-81.5 -22h-413v36q48 0 82 34t34 82v190h-116v37h116v117q0 61 30.5 112.5t81.5 82t112 30.5t112.5 -30.5t82 -82t30.5 -112.5h-37q0 51 -25.5 94t-68.5 68.5t-94 25.5t-94 -25.5t-68 -68.5t-25 -94v-117h226
v-37h-226v-190q0 -34 -14 -64.5t-39 -51.5h313z" />
    <glyph glyph-name="uni20BA" unicode="&#x20ba;" 
d="M523 459l13 -34l-230 -87v-301h63q60 0 111 30t81 81t30 111h37q0 -70 -35 -129.5t-94.5 -94.5t-129.5 -35h-100v324l-144 -54l-13 34l157 59v80l-144 -54l-13 34l157 59v214h37v-200l217 82l13 -34l-230 -87v-80z" />
    <glyph glyph-name="uni20B9" unicode="&#x20b9;" 
d="M516.5 587q27.5 -47 31.5 -103h81v-37h-82q-7 -71 -53.5 -126t-114.5 -74l207 -247h-48l-201 240l-28 -1h-182v37h192q49 0 90.5 23t68.5 62t32 86h-383v37h383q-4 53 -33 96t-78 64q-21 9 -47 12t-66 3h-159l1 37h502v-37h-190q49 -25 76.5 -72z" />
    <glyph glyph-name="uni20BC" unicode="&#x20bc;" 
d="M138.5 450.5q32.5 62.5 89 99.5t124.5 41v105h36v-105q68 -4 124.5 -41t89 -99.5t32.5 -139.5v-311h-37v311q0 67 -27.5 121t-75.5 86.5t-106 36.5v-555h-36v555q-58 -4 -106 -36.5t-75.5 -86.5t-27.5 -121v-311h-37v311q0 77 32.5 139.5z" />
    <glyph glyph-name="uni20BD" unicode="&#x20bd;" 
d="M224 0h-37v103h-82v37h82v71h-82v37h82v448h208q70 0 129.5 -30t94.5 -85t35 -127q0 -69 -35.5 -127t-96.5 -89q-52 -27 -127 -27h-171v-71h210v-37h-210v-103zM224 659v-411h171q64 0 105 20q53 25 85 75t32 111q0 60 -32 110t-86 75q-41 20 -104 20h-171z" />
    <glyph glyph-name="uni20A9" unicode="&#x20a9;" 
d="M370 387l-102 -387h-41l-51 241h-106v36h98l-30 145h-68v36h60l-50 238h39l49 -238h404l49 238h39l-50 -238h59v-36h-67l-30 -145h98v-36h-106l-51 -241h-41zM175 422l73 -353l93 353h-166zM565 422h-166l93 -353z" />
    <glyph glyph-name="yen" unicode="&#xa5;" 
d="M389 177h199v-37h-199v-140h-37v140h-200v37h200v105h-200v36h178l-250 378h45l246 -372l245 372h44l-249 -378h177v-36h-199v-105z" />
    <glyph glyph-name="uni2219" unicode="&#x2219;" 
d="M515 472v-290h-289v290h289z" />
    <glyph glyph-name="uni2215" unicode="&#x2215;" 
d="M591 716l31 -20l-472 -716l-31 20z" />
    <glyph glyph-name="plus" unicode="+" 
d="M177 362h175v174h36v-174h175v-37h-175v-174h-36v174h-175v37z" />
    <glyph glyph-name="minus" unicode="&#x2212;" 
d="M178 329v37h385v-37h-385z" />
    <glyph glyph-name="multiply" unicode="&#xd7;" 
d="M200 477l144 -144l-144 -144l26 -26l144 144l144 -144l26 26l-144 144l144 144l-26 26l-144 -144l-144 144z" />
    <glyph glyph-name="divide" unicode="&#xf7;" 
d="M431 442q-25 -25 -61 -25t-61 25t-25 61t25 61t61 25t61 -25t25 -61t-25 -61zM335.5 468.5q14.5 -14.5 34.5 -14.5t34.5 14.5t14.5 34.5t-14.5 34.5t-34.5 14.5t-34.5 -14.5t-14.5 -34.5t14.5 -34.5zM570 330h-399v37h399v-37zM431 133.5q-25 -25.5 -61 -25.5t-61 25.5
t-25 60.5q0 36 25 61t61 25t61 -25t25 -61q0 -35 -25 -60.5zM404.5 159.5q14.5 14.5 14.5 34.5t-14.5 35t-34.5 15t-34.5 -15t-14.5 -35t14.5 -34.5t34.5 -14.5t34.5 14.5z" />
    <glyph glyph-name="equal" unicode="=" 
d="M574 438v-37h-408v37h408zM166 244v37h408v-37h-408z" />
    <glyph glyph-name="notequal" unicode="&#x2260;" 
d="M574 438v-37h-117l-120 -120h237v-36h-274l-106 -106l-26 26l80 80h-81v36h117l121 120h-238v37h274l106 106l26 -26l-80 -80h81z" />
    <glyph glyph-name="greater" unicode="&#x3e;" 
d="M474 345l-239 240l26 26l265 -266l-265 -265l-26 26z" />
    <glyph glyph-name="less" unicode="&#x3c;" 
d="M450 611l26 -26l-239 -240l239 -239l-26 -26l-265 265z" />
    <glyph glyph-name="greaterequal" unicode="&#x2265;" 
d="M252 157l-25 28l216 207l-216 208l25 28l244 -236zM196 84v36h310v-36h-310z" />
    <glyph glyph-name="lessequal" unicode="&#x2264;" 
d="M450 628l25 -28l-216 -208l216 -207l-25 -28l-244 235zM196 120h310v-36h-310v36z" />
    <glyph glyph-name="plusminus" unicode="&#xb1;" 
d="M352 366v174h37v-174h174v-37h-174v-174h-37v174h-174v37h174zM178 37h385v-37h-385v37z" />
    <glyph glyph-name="approxequal" unicode="&#x2248;" 
d="M262 436q-38 0 -69.5 -18.5t-54.5 -43.5l-28 24q69 75 152 75q56 0 114 -37q52 -33 102 -33q70 0 124 61l28 -25q-26 -28 -64 -50.5t-87 -22.5q-59 0 -122 39q-49 31 -95 31zM478 263q70 0 124 61l28 -25q-26 -28 -64 -50.5t-87 -22.5q-59 0 -122 39q-49 31 -95 31
q-38 0 -69.5 -18.5t-54.5 -43.5l-28 24q69 75 152 75q56 0 114 -37q52 -33 102 -33z" />
    <glyph glyph-name="asciitilde" unicode="~" 
d="M262 385q56 0 114 -37q54 -33 103 -33q38 0 69.5 18t53.5 43l28 -25q-26 -28 -64 -50.5t-87 -22.5q-59 0 -122 39q-49 31 -95 31q-69 0 -124 -62l-28 24q69 75 152 75z" />
    <glyph glyph-name="logicalnot" unicode="&#xac;" 
d="M542 394v-127h-37v90h-307v37h344z" />
    <glyph glyph-name="asciicircum" unicode="^" 
d="M222 770l148 148l149 -148l-27 -26l-122 122l-122 -122z" />
    <glyph glyph-name="uni00B5" unicode="&#xb5;" 
d="M139 506h37v-283q3 -57 30 -103t70 -71.5t94 -25.5q50 0 93.5 27t70.5 74.5t30 106.5v275h37v-507h-37v103q-27 -55 -78 -86t-116 -31t-116 31t-78 86v-273h-37v677z" />
    <glyph glyph-name="percent" unicode="%" 
d="M155 439q-32 19 -51 51.5t-19 70.5t19 70t51 51t70 19t70.5 -19t51.5 -51t19 -70t-19 -70.5t-51.5 -51.5t-70.5 -19t-70 19zM152 634q-30 -30 -30 -73t30 -73.5t73 -30.5q44 0 74 30.5t30 73.5t-30.5 73t-73.5 30t-73 -30zM615 562l-464 -464l-26 26l464 464zM585 248
q32 -19 51 -51.5t19 -70.5t-19 -70.5t-51 -51.5t-70 -19t-70.5 19t-51.5 51.5t-19 70.5t19 70.5t51.5 51.5t70.5 19t70 -19zM588 52.5q30 30.5 30 73.5t-30 73.5t-73 30.5t-73.5 -30.5t-30.5 -73.5t30.5 -73.5t73.5 -30.5t73 30.5z" />
    <glyph glyph-name="perthousand" unicode="&#x2030;" 
d="M177 439q-32 19 -51 51.5t-19 70.5t19 70t51 51t70 19t70.5 -19t51.5 -51t19 -70t-19 -70.5t-51.5 -51.5t-70.5 -19t-70 19zM174 634q-30 -30 -30 -73t30 -73.5t73 -30.5q44 0 74 30.5t30 73.5t-30.5 73t-73.5 30t-73 -30zM660 359v-32h-580v32h580zM563 248
q32 -19 51 -51.5t19 -70.5t-19 -70.5t-51 -51.5t-70 -19q-39 0 -72 19.5t-51 52.5q-18 -33 -51 -52.5t-72 -19.5q-38 0 -70 19t-51 51.5t-19 70.5t19 70t51 51t70 19q39 0 72 -19.5t51 -51.5q18 33 51 52.5t72 19.5q38 0 70 -19zM566 52.5q30 30.5 30 73.5t-30 73.5
t-73 30.5t-73.5 -30.5t-30.5 -73.5t30.5 -73.5t73.5 -30.5t73 30.5zM321 52.5q30 30.5 30 73.5t-30.5 73t-73.5 30t-73 -30t-30 -73t30 -73.5t73 -30.5q44 0 74 30.5z" />
    <glyph glyph-name="uni2052" unicode="&#x2052;" 
d="M157 501.5q-27 26.5 -27 64.5t27 65t65 27t65 -27t27 -65t-27 -64.5t-65 -26.5t-65 26.5zM211 59l277 595l34 -15l-277 -595zM447 196.5q27 26.5 64 26.5q38 0 65 -26.5t27 -64.5t-27 -65t-65 -27t-64.5 27t-26.5 65t27 64.5z" />
    <glyph glyph-name="arrowup" unicode="&#x2191;" 
d="M370 696l266 -266l-26 -26l-221 221v-528h-37v528l-221 -221l-26 26z" />
    <glyph glyph-name="uni2197" unicode="&#x2197;" 
d="M518 659h-312v37h375v-376h-37v313l-373 -373l-26 26z" />
    <glyph glyph-name="arrowright" unicode="&#x2192;" 
d="M599 366l-221 222l26 26l265 -266l-265 -265l-26 26l221 221h-528v36h528z" />
    <glyph glyph-name="uni2198" unicode="&#x2198;" 
d="M182 436l373 -373v313h37v-376h-375v37h312l-373 373z" />
    <glyph glyph-name="arrowdown" unicode="&#x2193;" 
d="M105 265l26 27l221 -222v529h37v-529l221 222l26 -27l-266 -265z" />
    <glyph glyph-name="uni2199" unicode="&#x2199;" 
d="M169 376h37v-313l373 373l26 -26l-373 -373h312v-37h-375v376z" />
    <glyph glyph-name="arrowleft" unicode="&#x2190;" 
d="M71 348l266 266l26 -26l-222 -222h529v-36h-529l222 -221l-26 -26z" />
    <glyph glyph-name="uni2196" unicode="&#x2196;" 
d="M159 696h375v-37h-312l373 -373l-26 -26l-373 373v-313h-37v376z" />
    <glyph glyph-name="at" unicode="@" 
d="M605 214q-25 -32 -62 -51t-80 -19q-48 0 -89 24t-65 65t-24 90q0 48 24 89t65 65t89 24q43 0 80.5 -18.5t61.5 -51.5v3q0 64 -31.5 117.5t-85.5 85.5t-118 32t-118 -32t-85.5 -85.5t-31.5 -117.5v-222q0 -64 31.5 -118t85.5 -86t118 -32q47 0 90 18t76 51l26 -26
q-38 -38 -88 -59t-104 -21q-74 0 -136.5 37t-99 99.5t-36.5 136.5v222q0 74 36.5 136.5t99 99t136.5 36.5t136.5 -36.5t99 -99t36.5 -136.5v-281h-37v61zM586 394q-19 33 -51.5 52t-71.5 19q-38 0 -71 -19t-52 -52t-19 -71q0 -39 19 -71.5t52 -51.5t71 -19q39 0 71.5 19
t51.5 51.5t19 71.5q0 38 -19 71z" />
    <glyph glyph-name="ampersand" unicode="&#x26;" 
d="M513.5 449q-14.5 -35 -41.5 -62l-26 26q22 22 33.5 50t11.5 59q0 42 -20.5 77.5t-56 56t-77.5 20.5q-41 0 -76.5 -21t-56.5 -56t-21 -77q0 -31 11.5 -59t33.5 -50l287 -287q27 46 27 103v36h103v-36h-67q0 -72 -36 -130l102 -101h-53l-71 71q-34 -40 -81 -62t-101 -22
q-65 0 -120.5 32.5t-88 88t-32.5 120.5q0 53 22.5 101.5t63.5 82.5q-36 48 -36 112q0 52 25.5 95.5t69.5 69t96 25.5t95.5 -25.5t69 -69t25.5 -95.5q0 -38 -14.5 -73zM152.5 312q-19.5 -41 -19.5 -86q0 -56 27.5 -103t74.5 -74.5t103 -27.5q46 0 87 20t69 54l-287 287
q-35 -29 -54.5 -70z" />
    <glyph glyph-name="paragraph" unicode="&#xb6;" 
d="M224.5 278q-51.5 30 -81.5 81.5t-30 112.5t30 112.5t81.5 81.5t112.5 30h208v-843h-37v806h-117v-806h-37v395h-17q-61 0 -112.5 30z" />
    <glyph glyph-name="section" unicode="&#xa7;" 
d="M450.5 -31.5q39.5 29.5 39.5 87.5q0 64 -54 87l-162 65q-43 18 -66 51.5t-23 69.5q0 43 22 75.5t61 51.5q-30 19 -49 50.5t-19 63.5q1 65 44.5 103t117.5 38q45 0 82.5 -22.5t59.5 -60.5t22 -82h-36q0 35 -17 64.5t-46.5 47t-64.5 17.5q-58 0 -91.5 -28t-33.5 -77
q0 -28 19 -55t45 -38t70 -25q30 -10 45 -16q45 -18 70.5 -33.5t41.5 -41.5t16 -69q0 -42 -22.5 -76t-57.5 -46q30 -17 46 -49.5t16 -64.5q0 -74 -50 -113.5t-123 -39.5q-46 0 -86.5 22.5t-64.5 61t-24 84.5h37q0 -36 18.5 -66t50 -48t66.5 -18q61 0 100.5 29.5zM494 347
q-14 21 -36 32.5t-60 25.5l-89 30q-39 -10 -63 -37.5t-25 -66.5q0 -55 65 -88q26 -13 96 -40l43 -16q32 9 57.5 36t25.5 69q0 34 -14 55z" />
    <glyph glyph-name="copyright" unicode="&#xa9;" 
d="M145 482q35 60 95 95t130 35t130 -35t95 -95t35 -130t-35 -130t-95 -95t-130 -35t-130 35t-95 95t-35 130t35 130zM177 240.5q30 -51.5 81.5 -81.5t111.5 -30t111.5 30t81.5 81.5t30 111.5t-30 111.5t-81.5 81.5t-111.5 30t-111.5 -30t-81.5 -81.5t-30 -111.5t30 -111.5z
M466 394q-12 27 -37 43.5t-54 16.5q-42 0 -71.5 -30t-29.5 -72t29.5 -72t71.5 -30q30 0 55.5 17t36.5 45l34 -14q-16 -38 -50.5 -61.5t-75.5 -23.5q-37 0 -69 19t-50.5 51t-18.5 69t18.5 69t50.5 50.5t69 18.5q41 0 75 -22.5t50 -59.5z" />
    <glyph glyph-name="registered" unicode="&#xae;" 
d="M145 482q35 60 95 95t130 35t130 -35t95 -95t35 -130t-35 -130t-95 -95t-130 -35t-130 35t-95 95t-35 130t35 130zM177 240.5q30 -51.5 81.5 -81.5t111.5 -30t111.5 30t81.5 81.5t30 111.5t-30 111.5t-81.5 81.5t-111.5 30t-111.5 -30t-81.5 -81.5t-30 -111.5t30 -111.5z
M390 294h-84v-77h-37v270h121q40 0 68 -28t28 -68q0 -29 -15 -52.5t-40 -35.5l62 -86h-46l-55 77h-2zM432.5 348.5q17.5 17.5 17.5 42.5t-17.5 42.5t-42.5 17.5h-84v-120h84q25 0 42.5 17.5z" />
    <glyph glyph-name="trademark" unicode="&#x2122;" 
d="M71 696h265v-36h-114v-293h-37v293h-114v36zM667 696v-329h-37v257l-87 -160h-16l-89 163v-260h-36v329h36l97 -178l95 178h37z" />
    <glyph glyph-name="degree" unicode="&#xb0;" 
d="M299 433q-33 19 -52 52t-19 72t19 72t52 52t72 19t72 -19t52 -52t19 -72t-19 -72t-52 -52t-72 -19t-72 19zM295.5 632q-31.5 -31 -31.5 -75t31.5 -75t75.5 -31t75 31t31 75t-31 75t-75 31t-75.5 -31z" />
    <glyph glyph-name="minute" unicode="&#x2032;" 
d="M323 405v291h94v-291h-94z" />
    <glyph glyph-name="second" unicode="&#x2033;" 
d="M239 696h93v-291h-93v291zM408 405v291h93v-291h-93z" />
    <glyph glyph-name="bar" unicode="|" 
d="M388 773v-866h-36v866h36z" />
    <glyph glyph-name="brokenbar" unicode="&#xa6;" 
d="M388 773v-348h-36v348h36zM352 -93v348h36v-348h-36z" />
    <glyph glyph-name="dagger" unicode="&#x2020;" 
d="M542 327h-155v-415h-36v415h-153v37h153v414h36v-414h155v-37z" />
    <glyph glyph-name="daggerdbl" unicode="&#x2021;" 
d="M166 438h186v335h36v-335h186v-37h-186v-120h186v-37h-186v-337h-36v337h-186v37h186v120h-186v37z" />
    <glyph glyph-name="uni2116" unicode="&#x2116;" 
d="M675 433.5q-17 -28.5 -45.5 -45.5t-61.5 -17t-61.5 17t-45.5 45.5t-17 61.5v85q0 33 17 61.5t45.5 45.5t61.5 17t61.5 -17t45.5 -45.5t17 -61.5v-85q0 -33 -17 -61.5zM88 696l270 -486v486h37v-696h-37v138l-273 489v-627h-36v696h39zM506.5 433.5q25.5 -25.5 61.5 -25.5
t61.5 25.5t25.5 61.5v85q0 36 -25.5 61.5t-61.5 25.5t-61.5 -25.5t-25.5 -61.5v-85q0 -36 25.5 -61.5zM447 297v37h242v-37h-242z" />
    <glyph glyph-name="uni02BC" unicode="&#x2bc;" 
d="M314 402l66 113l-10 -1q-37 0 -64 27t-27 64q0 38 27 64.5t64 26.5q38 0 64.5 -26.5t26.5 -64.5q0 -24 -13 -45v-1l-91 -157h-43z" />
    <glyph glyph-name="uni02BA" unicode="&#x2ba;" 
d="M197 405l40 291h137l-84 -291h-93zM414 696h137l-84 -291h-93z" />
    <glyph glyph-name="uni02B9" unicode="&#x2b9;" 
d="M317 696h137l-84 -291h-93z" />
    <glyph glyph-name="uni0308" unicode="&#x308;" horiz-adv-x="0" 
d="M-538.5 791.5q-23.5 23.5 -23.5 57.5t23.5 58t57.5 24t58 -24t24 -58t-24 -57.5t-58 -23.5t-57.5 23.5zM-316.5 791.5q-23.5 23.5 -23.5 57.5t23.5 58t57.5 24t58 -24t24 -58t-24 -57.5t-58 -23.5t-57.5 23.5zM-514.5 816q13.5 -14 33.5 -14q19 0 33 14t14 33
q0 20 -13.5 34t-33.5 14t-33.5 -14t-13.5 -34q0 -19 13.5 -33zM-292.5 816q13.5 -14 33.5 -14q19 0 33 14t14 33q0 20 -13.5 34t-33.5 14t-33.5 -14t-13.5 -34q0 -19 13.5 -33z" />
    <glyph glyph-name="uni0307" unicode="&#x307;" horiz-adv-x="0" 
d="M-427.5 791.5q-23.5 23.5 -23.5 57.5t23.5 58t57.5 24t58 -24t24 -58t-24 -57.5t-58 -23.5t-57.5 23.5zM-403.5 816q13.5 -14 33.5 -14q19 0 33 14t14 33q0 20 -13.5 34t-33.5 14t-33.5 -14t-13.5 -34q0 -19 13.5 -33z" />
    <glyph glyph-name="gravecomb" unicode="&#x300;" horiz-adv-x="0" 
d="M-431 912l-35 -45l173 -126l19 25z" />
    <glyph glyph-name="acutecomb" unicode="&#x301;" horiz-adv-x="0" 
d="M-309 912l35 -45l-173 -126l-19 25z" />
    <glyph glyph-name="uni030B" unicode="&#x30b;" horiz-adv-x="0" 
d="M-430 916l45 -35l-125 -147l-25 19zM-315 753l105 163l45 -35l-125 -147z" />
    <glyph glyph-name="uni0302" unicode="&#x302;" horiz-adv-x="0" 
d="M-518 774l148 148l148 -148l-26 -26l-122 122l-122 -122z" />
    <glyph glyph-name="uni030C" unicode="&#x30c;" horiz-adv-x="0" 
d="M-518 896l148 -148l148 148l-26 26l-122 -122l-122 122z" />
    <glyph glyph-name="uni0306" unicode="&#x306;" horiz-adv-x="0" 
d="M-216 876q-20 -45 -62 -72t-92 -27t-92 27t-62 72l33 16q16 -36 49 -57t72 -21t71.5 21t49.5 56z" />
    <glyph glyph-name="uni030A" unicode="&#x30a;" horiz-adv-x="0" 
d="M-445.5 769.5q-31.5 31.5 -31.5 76.5q0 44 31.5 75.5t75.5 31.5t75.5 -31.5t31.5 -75.5q0 -45 -31.5 -76.5t-75.5 -31.5t-75.5 31.5zM-419.5 796q20.5 -21 49.5 -21t49.5 21t20.5 50t-20.5 49.5t-49.5 20.5t-49.5 -20.5t-20.5 -49.5t20.5 -50z" />
    <glyph glyph-name="tildecomb" unicode="&#x303;" horiz-adv-x="0" 
d="M-197 833q-44 -53 -103 -53q-42 0 -83 28q-29 21 -57 21q-40 0 -74 -42l-29 24q45 54 103 54q38 0 78 -26q32 -22 63 -22q41 0 73 40z" />
    <glyph glyph-name="uni0304" unicode="&#x304;" horiz-adv-x="0" 
d="M-222 827v-37h-296v37h296z" />
    <glyph glyph-name="hookabovecomb" unicode="&#x309;" horiz-adv-x="0" 
d="M-372 918q39 0 62 -20.5t23 -52.5q0 -31 -21 -52.5t-52 -22.5v-25h-32v59h26q19 1 31.5 12t12.5 28t-13 28.5t-37 11.5h-20v34h20z" />
    <glyph glyph-name="uni030F" unicode="&#x30f;" horiz-adv-x="0" 
d="M-437 734l25 19l-105 163l-45 -35zM-217 734l25 19l-105 163l-45 -35z" />
    <glyph glyph-name="uni0311" unicode="&#x311;" horiz-adv-x="0" 
d="M-491 777q17 35 49.5 56.5t71.5 21.5t71.5 -21.5t49.5 -56.5l33 16q-20 45 -62 72t-92 27t-92 -27t-62 -72z" />
    <glyph glyph-name="uni031B" unicode="&#x31b;" horiz-adv-x="0" 
d="M-417 696q33 0 53.5 21.5t20.5 57.5v86h37v-86q1 -52 -31 -84t-80 -32v37z" />
    <glyph glyph-name="dotbelowcomb" unicode="&#x323;" horiz-adv-x="0" 
d="M-427.5 -193.5q-23.5 23.5 -23.5 57.5t23.5 58t57.5 24t58 -24t24 -58t-24 -57.5t-58 -23.5t-57.5 23.5zM-403.5 -102q-13.5 -14 -13.5 -34t13.5 -33.5t33.5 -13.5q19 0 33 13.5t14 33.5t-13.5 34t-33.5 14t-33.5 -14z" />
    <glyph glyph-name="uni0324" unicode="&#x324;" horiz-adv-x="0" 
d="M-423 -78q24 -24 24 -58t-24 -57.5t-58 -23.5t-57.5 23.5t-23.5 57.5t23.5 58t57.5 24t58 -24zM-316.5 -193.5q-23.5 23.5 -23.5 57.5t23.5 58t57.5 24t58 -24t24 -58t-24 -57.5t-58 -23.5t-57.5 23.5zM-448 -169.5q14 13.5 14 33.5t-13.5 34t-33.5 14t-33.5 -14
t-13.5 -34t13.5 -33.5t33.5 -13.5q19 0 33 13.5zM-292.5 -102q-13.5 -14 -13.5 -34t13.5 -33.5t33.5 -13.5q19 0 33 13.5t14 33.5t-13.5 34t-33.5 14t-33.5 -14z" />
    <glyph glyph-name="uni0326" unicode="&#x326;" horiz-adv-x="0" 
d="M-412.5 -68.5q18.5 18.5 44.5 18.5t44.5 -18.5t18.5 -44.5q0 -15 -14 -41l-41 -69h-37l27 47q-25 1 -43 19t-18 44t18.5 44.5z" />
    <glyph glyph-name="uni0327" unicode="&#x327;" horiz-adv-x="0" 
d="M-432 -156l83 166l34 -14l-84 -169z" />
    <glyph glyph-name="uni0328" unicode="&#x328;" horiz-adv-x="0" 
d="M-369 -217q-55 0 -93 36t-38 88q0 46 29 78t75 43l27 -28q-39 0 -66.5 -27t-27.5 -65q0 -37 26.5 -62.5t67.5 -25.5v-37z" />
    <glyph glyph-name="uni032E" unicode="&#x32e;" horiz-adv-x="0" 
d="M-216 -83q-20 -45 -62 -72t-92 -27t-92 27t-62 72l33 16q16 -36 49 -57t72 -21t71.5 21t49.5 56z" />
    <glyph glyph-name="uni0331" unicode="&#x331;" horiz-adv-x="0" 
d="M-518 -156v37h296v-37h-296z" />
    <glyph glyph-name="uni0335" unicode="&#x335;" horiz-adv-x="0" 
d="M-198 428v-37h-344v37h344z" />
    <glyph glyph-name="uni0336" unicode="&#x336;" horiz-adv-x="0" 
d="M-128 428v-37h-484v37h484z" />
    <glyph glyph-name="uni0337" unicode="&#x337;" horiz-adv-x="0" 
d="M-219 464l19 -31l-320 -194l-19 31z" />
    <glyph glyph-name="uni0338" unicode="&#x338;" horiz-adv-x="0" 
d="M-643 -32l516 781l30 -21l-516 -780z" />
    <glyph glyph-name="acute" unicode="&#xb4;" 
d="M431 912l35 -45l-173 -126l-19 25z" />
    <glyph glyph-name="breve" unicode="&#x2d8;" 
d="M249 892q16 -36 49 -57t72 -21t72 21t49 57l33 -16q-20 -45 -62 -72t-92 -27t-92 27t-62 72z" />
    <glyph glyph-name="caron" unicode="&#x2c7;" 
d="M222 896l148 -148l148 148l-26 26l-122 -122l-122 122z" />
    <glyph glyph-name="cedilla" unicode="&#xb8;" 
d="M424 10l34 -14l-84 -169l-33 17z" />
    <glyph glyph-name="circumflex" unicode="&#x2c6;" 
d="M222 774l148 148l148 -148l-26 -26l-122 122l-122 -122z" />
    <glyph glyph-name="dieresis" unicode="&#xa8;" 
d="M317 907q24 -24 24 -58t-24 -57.5t-58 -23.5t-57.5 23.5t-23.5 57.5t23.5 58t57.5 24t58 -24zM423.5 791.5q-23.5 23.5 -23.5 57.5t23.5 58t57.5 24t58 -24t24 -58t-24 -57.5t-58 -23.5t-57.5 23.5zM292.5 816q13.5 14 13.5 33q0 20 -13.5 34t-33.5 14t-33.5 -14
t-13.5 -34q0 -19 14 -33t33 -14q20 0 33.5 14zM447.5 883q-13.5 -14 -13.5 -34q0 -19 14 -33t33 -14q20 0 33.5 14t13.5 33q0 20 -13.5 34t-33.5 14t-33.5 -14z" />
    <glyph glyph-name="dotaccent" unicode="&#x2d9;" 
d="M312.5 791.5q-23.5 23.5 -23.5 57.5t23.5 58t57.5 24t58 -24t24 -58t-24 -57.5t-58 -23.5t-57.5 23.5zM336.5 883q-13.5 -14 -13.5 -34q0 -19 14 -33t33 -14q20 0 33.5 14t13.5 33q0 20 -13.5 34t-33.5 14t-33.5 -14z" />
    <glyph glyph-name="grave" unicode="`" 
d="M274 867l173 -126l19 25l-157 146z" />
    <glyph glyph-name="hungarumlaut" unicode="&#x2dd;" 
d="M310 916l45 -35l-125 -147l-25 19zM530 916l45 -35l-126 -147l-24 19z" />
    <glyph glyph-name="macron" unicode="&#xaf;" 
d="M222 766v37h296v-37h-296z" />
    <glyph glyph-name="ogonek" unicode="&#x2db;" 
d="M278 -181q-38 36 -38 88q0 46 29 78t75 43l27 -28q-39 0 -66.5 -27t-27.5 -65q0 -37 26.5 -62.5t67.5 -25.5v-37q-55 0 -93 36z" />
    <glyph glyph-name="ring" unicode="&#x2da;" 
d="M294.5 769.5q-31.5 31.5 -31.5 76.5q0 44 31.5 75.5t75.5 31.5t75.5 -31.5t31.5 -75.5q0 -45 -31.5 -76.5t-75.5 -31.5t-75.5 31.5zM320.5 895.5q-20.5 -20.5 -20.5 -49.5t20.5 -50t49.5 -21t49.5 21t20.5 50t-20.5 49.5t-49.5 20.5t-49.5 -20.5z" />
    <glyph glyph-name="tilde" unicode="&#x2dc;" 
d="M300 865q38 0 78 -26q32 -22 62 -22q42 0 74 40l29 -24q-44 -53 -102 -53q-43 0 -84 28q-28 20 -57 20q-41 0 -74 -41l-29 24q45 54 103 54z" />
    <glyph glyph-name="uni0327.alt" horiz-adv-x="0" 
d="M-351 -8l33 -16l-75 -149l-33 17z" />
    <glyph glyph-name="uni03060301" horiz-adv-x="0" 
d="M-216 876q-20 -45 -62 -72t-92 -27t-92 27t-62 72l33 16q16 -36 49 -57t72 -21t71.5 21t49.5 56zM-303 1146l35 -45l-173 -126l-19 25z" />
    <glyph glyph-name="uni03060300" horiz-adv-x="0" 
d="M-216 876q-20 -45 -62 -72t-92 -27t-92 27t-62 72l33 16q16 -36 49 -57t72 -21t71.5 21t49.5 56zM-437 1146l-35 -45l173 -126l19 25z" />
    <glyph glyph-name="uni03060309" horiz-adv-x="0" 
d="M-351 1074.5q-13 11.5 -37 11.5h-20v34h20q39 0 62 -20.5t23 -52.5q0 -31 -21 -52.5t-52 -22.5v-25h-32v59h26q19 0 31.5 11.5t12.5 28.5t-13 28.5zM-216 876q-20 -45 -62 -72t-92 -27t-92 27t-62 72l33 16q16 -36 49 -57t72 -21t71.5 21t49.5 56z" />
    <glyph glyph-name="uni03060303" horiz-adv-x="0" 
d="M-216 876q-20 -45 -62 -72t-92 -27t-92 27t-62 72l33 16q16 -36 49 -57t72 -21t71.5 21t49.5 56zM-199 1067q-44 -53 -103 -53q-42 0 -83 28q-29 21 -57 21q-40 0 -74 -42l-29 24q45 54 103 54q38 0 78 -26q32 -22 63 -22q41 0 73 40z" />
    <glyph glyph-name="uni03020301" horiz-adv-x="0" 
d="M-518 774l148 148l148 -148l-26 -26l-122 122l-122 -122zM-303 1146l35 -45l-173 -126l-19 25z" />
    <glyph glyph-name="uni03020300" horiz-adv-x="0" 
d="M-518 774l148 148l148 -148l-26 -26l-122 122l-122 -122zM-437 1146l-35 -45l173 -126l19 25z" />
    <glyph glyph-name="uni03020309" horiz-adv-x="0" 
d="M-351 1074.5q-13 11.5 -37 11.5h-20v34h20q39 0 62 -20.5t23 -52.5q0 -31 -21 -52.5t-52 -22.5v-25h-32v59h26q19 0 31.5 11.5t12.5 28.5t-13 28.5zM-518 774l148 148l148 -148l-26 -26l-122 122l-122 -122z" />
    <glyph glyph-name="uni03020303" horiz-adv-x="0" 
d="M-518 774l148 148l148 -148l-26 -26l-122 122l-122 -122zM-199 1067q-44 -53 -103 -53q-42 0 -83 28q-29 21 -57 21q-40 0 -74 -42l-29 24q45 54 103 54q38 0 78 -26q32 -22 63 -22q41 0 73 40z" />
    <glyph glyph-name="uniE902" unicode="&#xe902;" 
d="M207 508h327v-326h-327v326zM471 471h-227v-226zM270 219h227v226z" />
    <glyph glyph-name="uniE903" unicode="&#xe903;" 
d="M534 182h-326v326h326v-326zM370 370l101 101h-202zM497 243v202l-101 -101zM245 443v-198l99 99zM271 219h198l-99 99z" />
    <glyph glyph-name="uniE904" unicode="&#xe904;" 
d="M534 508v-326h-326v326h326zM498 219v252h-253v-252h253z" />
    <glyph glyph-name="uniE907" unicode="&#xe907;" 
d="M22 696h697v-696h-697v696zM655 659h-596v-596zM85 37h596v596z" />
    </font>
</defs>
</svg>
